SplineFontDB: 1.0
FontName: DBThaiText-Bold
FullName: DBThaiText Bold
FamilyName: DBThaiText
Weight: Bold
Copyright: Typeface (c) The Monotype Corporation plc. Data (c) The Monotype Corporation plc/Type Solutions Inc. 1990-1992. All Rights Reserved\n\nModified by TLWG
Version: 1.1 : May 12, 2003
ItalicAngle: 0
UnderlinePosition: -477
UnderlineWidth: 205
Ascent: 1638
Descent: 410
NeedsXUIDChange: 1
FSType: 0
PfmFamily: 33
TTFWeight: 700
TTFWidth: 5
Panose: 2 0 8 3 0 0 0 0 0 0
LineGap: 184
VLineGap: 0
LangName: 1033 "" "" "" "PfaEdit : DBThaiTextBold : 13-0-2003" 
Encoding: compacted
OldEncoding: iso8859_1
DisplaySize: -72
AntiAlias: 1
WinInfo: 128 8 4
BeginPrivate: 3
BlueValues 31 [-31 0 726 753 786 804 959 976]
OtherBlues 11 [-260 -260]
ForceBold 4 true
EndPrivate
BeginChars: 293 258
StartChar: .notdef
Encoding: 0 -1
OldEncoding: 0
Width: 1090
Flags: HW
HStem: 1742 144<235 797>
VStem: 77 146<101 1735> 801 146<101 1735>
Fore
77 -58 m 1
 77 1886 l 1
 947 1886 l 1
 947 -58 l 1
 77 -58 l 1
223 86 m 1
 801 86 l 1
 801 1742 l 1
 223 1742 l 1
 223 86 l 1
EndSplineSet
MinimumDistance: x2,-1 
EndChar
StartChar: exclam
Encoding: 33 33
OldEncoding: 33
Width: 408
Flags: HW
HStem: -1 21G<119.69 316.31> 939 20G<119.69 316.31>
VStem: 120 197<13 175 680 959>
Fore
171 272 m 1
 120 681 l 1
 120 959 l 1
 317 959 l 1
 317 681 l 1
 259 272 l 1
 171 272 l 1
120 191 m 1
 317 191 l 1
 317 -1 l 1
 120 -1 l 1
 120 191 l 1
EndSplineSet
MinimumDistance: x3,-1 
EndChar
StartChar: quotedbl
Encoding: 34 34
OldEncoding: 34
Width: 588
Flags: HW
Fore
520 857 m 4
 523 795 501 744 455 702 c 4
 411 661 368 638 325 633 c 5
 309 665 l 5
 341 683 365 698 379 709 c 4
 397 724 409 747 413 777 c 5
 388 777 364 784 342 797 c 4
 319 810 307 836 305 876 c 4
 305 903 313 926 331 947 c 4
 346 966 369 976 397 976 c 4
 438 976 468 965 488 943 c 5
 509 921 520 892 520 857 c 4
242 857 m 4
 245 795 223 744 177 702 c 5
 134 661 91 638 48 633 c 5
 31 665 l 5
 63 683 87 698 101 709 c 4
 118 723 130 746 136 777 c 5
 112 777 88 784 64 797 c 4
 41 811 29 837 27 876 c 4
 27 903 35 926 53 947 c 4
 68 966 91 976 119 976 c 4
 161 976 192 965 210 943 c 5
 231 923 242 894 242 857 c 4
EndSplineSet
EndChar
StartChar: numbersign
Encoding: 35 35
OldEncoding: 35
Width: 689
Flags: HW
HStem: 191 150<-23 75 265 347 537 634> 503 148<25 139 310 418.985 585 683>
DStem: 81.1152 191.14 221.235 191.14 39.3047 -35.9902 178.295 -35.9902 143.265 503.02 282.255 503.02 110.495 341.43 249.485 341.43 221.235 919.99 360.225 919.99 170.385 651.05 309.375 651.05 353.445 191.14 492.435 191.14 309.375 -35.9902 450.625 -35.9902 418.985 503.02 556.845 503.02 383.955 341.43 525.205 341.43 492.435 919.99 631.425 919.99 441.585 653.31 580.575 651.05
Fore
221 920 m 1
 360 920 l 1
 309 651 l 1
 442 653 l 1
 492 920 l 1
 631 920 l 1
 581 651 l 1
 685 651 l 1
 685 503 l 1
 557 503 l 1
 525 341 l 1
 650 341 l 1
 650 191 l 1
 492 191 l 1
 451 -36 l 1
 309 -36 l 1
 353 191 l 1
 221 191 l 1
 178 -36 l 1
 39 -36 l 1
 81 191 l 1
 -38 191 l 1
 -38 341 l 1
 110 341 l 1
 143 503 l 1
 16 503 l 1
 16 651 l 1
 170 651 l 1
 221 920 l 1
282 503 m 1
 249 341 l 1
 384 341 l 1
 419 503 l 1
 282 503 l 1
EndSplineSet
MinimumDistance: x5,-1 
EndChar
StartChar: dollar
Encoding: 36 36
OldEncoding: 36
Width: 689
Flags: HW
VStem: 281 85<-155 -23 121 370 576 802 939 1010> 477 173<232.64 276.71>
Fore
641 663 m 1
 470 663 l 1
 470 705 459 738 435 763 c 1
 410 785 387 799 366 804 c 1
 366 542 l 1
 455 520 525 487 577 445 c 0
 628 404 652 348 650 277 c 0
 650 217 639 169 618 131 c 0
 596 90 571 62 544 45 c 1
 512 22 481 7 449 1 c 1
 366 -20 l 1
 366 -158 l 1
 278 -158 l 1
 281 -23 l 1
 234 -15 l 2
 225 -13 207 -8 179 1 c 0
 151 9 131 17 118 26 c 0
 84 53 65 68 60 72 c 0
 13 122 -11 191 -11 279 c 1
 162 279 l 1
 164 244 171 216 181 195 c 0
 192 172 201 157 210 149 c 0
 222 140 234 133 248 129 c 1
 255 123 266 119 281 116 c 1
 281 410 l 1
 205 425 143 453 93 494 c 0
 39 539 12 597 12 668 c 0
 9 745 33 809 84 860 c 1
 128 906 194 933 281 940 c 1
 281 1012 l 1
 366 1012 l 1
 366 940 l 1
 536 929 627 836 641 663 c 1
281 571 m 1
 281 809 l 1
 213 797 179 754 177 681 c 1
 179 662 183 646 190 633 c 0
 198 617 209 605 222 598 c 0
 238 587 258 578 281 571 c 1
366 378 m 1
 366 121 l 1
 394 133 l 1
 408 138 421 144 433 151 c 0
 444 158 454 168 462 182 c 0
 470 195 475 212 477 233 c 1
 477 309 441 357 366 378 c 1
EndSplineSet
MinimumDistance: x6,-1 
EndChar
StartChar: percent
Encoding: 37 37
OldEncoding: 37
Width: 1103
Flags: HW
HStem: -21 21G<204.185 308.145> -14 129<824 842> 335 132<824 842> 446 132<187.508 218> 798 131<186.952 218>
VStem: -39 131<682 700> 313 132<682 700> 588 131<218 236> 938 132<218 236>
DStem: 731.895 933.925 833.595 933.925 204.185 -20.9248 308.145 -20.9248
Fore
308 -21 m 1
 204 -21 l 1
 732 934 l 1
 834 934 l 1
 308 -21 l 1
588 227 m 0
 588 291 611 347 657 395 c 0
 703 443 761 467 829 467 c 0
 893 467 949 443 997 395 c 0
 1046 347 1070 291 1070 227 c 0
 1070 158 1046 101 997 55 c 0
 949 9 893 -14 829 -14 c 0
 761 -14 703 9 657 55 c 0
 611 101 588 158 588 227 c 0
-39 686 m 0
 -39 754 -15 811 32 858 c 0
 80 906 137 929 204 929 c 0
 271 929 327 906 373 858 c 1
 421 810 445 753 445 686 c 0
 445 619 421 562 373 516 c 0
 326 469 270 446 204 446 c 0
 139 446 81 469 32 516 c 0
 -15 561 -39 618 -39 686 c 0
719 227 m 0
 719 199 730 173 752 147 c 1
 774 126 800 115 829 115 c 0
 859 115 885 126 907 147 c 0
 927 170 938 196 938 227 c 0
 938 257 927 282 905 302 c 1
 884 324 859 335 829 335 c 0
 798 335 773 324 752 302 c 0
 730 280 719 255 719 227 c 0
92 686 m 0
 92 658 103 633 125 611 c 0
 145 589 172 578 204 578 c 0
 234 578 260 589 280 611 c 1
 302 631 313 656 313 686 c 0
 313 718 302 745 282 768 c 0
 262 788 236 798 204 798 c 0
 172 798 145 788 125 768 c 1
 103 742 92 715 92 686 c 0
EndSplineSet
MinimumDistance: x8,-1 
EndChar
StartChar: ampersand
Encoding: 38 38
OldEncoding: 38
Width: 891
Flags: HW
HStem: -26 151<312.273 331.961 332 334> 0 21G<645.05 857.49> 813 148<349 383>
VStem: 115 175<728 766.394> 443 156<719 750.573>
DStem: 307.18 419.483 445.04 518.924 482.33 201.394 586.29 340.384
Fore
633 493 m 1
 785 493 l 1
 785 446 777 396 760 343 c 0
 745 294 721 250 688 213 c 1
 857 0 l 1
 645 0 l 1
 580 82 l 1
 532 42 496 15 471 3 c 0
 432 -16 386 -26 332 -26 c 0
 248 -28 173 -4 107 47 c 0
 45 95 15 163 15 252 c 1
 20 310 l 1
 27 350 42 386 66 417 c 0
 91 447 117 470 144 484 c 1
 221 530 l 1
 170 588 l 2
 158 602 145 623 133 650 c 0
 121 678 115 704 115 729 c 0
 115 760 122 789 135 817 c 2
 138 822 l 2
 156 866 186 901 228 926 c 0
 270 949 316 961 367 961 c 0
 427 961 477 947 517 919 c 0
 559 891 584 852 593 801 c 1
 599 751 l 1
 599 701 586 658 559 621 c 1
 532 587 494 553 445 519 c 1
 586 340 l 1
 600 351 612 369 621 396 c 0
 632 420 637 444 637 468 c 1
 633 493 l 1
321 674 m 2
 363 623 l 1
 402 645 l 1
 415 657 423 665 427 671 c 0
 435 686 441 702 443 720 c 1
 443 749 438 771 429 787 c 1
 422 804 402 813 367 813 c 0
 323 813 297 797 290 766 c 1
 290 729 300 698 321 674 c 2
482 201 m 1
 307 419 l 1
 217 361 l 1
 195 343 184 315 184 278 c 0
 184 233 204 193 244 157 c 1
 271 136 299 125 328 125 c 0
 373 125 425 151 482 201 c 1
EndSplineSet
MinimumDistance: x24,-1 
EndChar
StartChar: quotesingle
Encoding: 39 39
OldEncoding: 39
Width: 294
Flags: HW
Fore
258 857 m 4
 261 795 239 744 193 702 c 5
 150 661 107 638 64 633 c 5
 47 665 l 5
 79 683 103 698 117 709 c 4
 134 723 146 746 152 777 c 5
 128 777 104 784 80 797 c 4
 57 811 45 837 43 876 c 4
 43 903 51 926 69 947 c 4
 84 966 107 976 135 976 c 4
 177 976 208 965 226 943 c 5
 247 923 258 894 258 857 c 4
EndSplineSet
EndChar
StartChar: parenleft
Encoding: 40 40
OldEncoding: 40
Width: 411
Flags: HW
HStem: 955 20G<240.745 371.825>
Fore
241 975 m 1
 372 975 l 1
 321 885 278 791 243 694 c 0
 209 602 192 511 192 419 c 1
 194 361 l 1
 199 252 218 142 252 32 c 1
 284 -82 324 -177 372 -253 c 1
 241 -253 l 1
 148 -88 l 2
 129 -54 111 -14 94 32 c 0
 78 75 64 126 51 184 c 0
 37 239 29 298 27 361 c 1
 27 424 34 484 48 541 c 0
 48 543 48 545 49 546 c 0
 59 601 76 657 99 712 c 0
 120 765 141 808 162 842 c 2
 241 975 l 1
EndSplineSet
EndChar
StartChar: parenright
Encoding: 41 41
OldEncoding: 41
Width: 413
Flags: HW
HStem: 955 20G<7.16504 135.984>
Fore
7 975 m 1
 136 975 l 1
 198 880 250 782 294 683 c 0
 335 587 354 480 352 361 c 0
 350 248 331 146 296 54 c 1
 261 -31 208 -133 136 -253 c 1
 7 -253 l 1
 56 -176 97 -81 129 32 c 0
 162 143 180 253 185 361 c 2
 187 414 l 1
 187 461 182 509 173 558 c 0
 167 590 153 639 131 703 c 0
 110 765 92 811 76 842 c 0
 62 875 39 919 7 975 c 1
EndSplineSet
EndChar
StartChar: asterisk
Encoding: 42 42
OldEncoding: 42
Width: 481
Flags: HW
VStem: 170 102<769 925>
DStem: 216.415 603.495 297.775 675.815 315.855 476.935 399.475 548.125
Fore
128 477 m 1
 42 548 l 1
 145 676 l 1
 2 727 l 1
 36 819 l 1
 170 768 l 1
 170 930 l 1
 272 930 l 1
 272 768 l 1
 406 819 l 1
 441 727 l 1
 298 676 l 1
 399 548 l 1
 316 477 l 1
 216 603 l 1
 128 477 l 1
EndSplineSet
MinimumDistance: x12,-1 
EndChar
StartChar: plus
Encoding: 43 43
OldEncoding: 43
Width: 723
Flags: HW
HStem: 391 157<35 260 419 645> 769 20G<260.9 419.1>
VStem: 261 158<165 390 548 775>
Fore
261 789 m 5
 419 789 l 5
 419 548 l 5
 660 548 l 5
 660 391 l 5
 419 391 l 5
 419 150 l 5
 261 150 l 5
 261 391 l 5
 20 391 l 5
 20 548 l 5
 261 548 l 5
 261 789 l 5
EndSplineSet
MinimumDistance: x3,-1 y5,7 y5,6 y2,0 y2,1 x8,10 x8,9 x2,4 x2,3 
EndChar
StartChar: comma
Encoding: 44 44
OldEncoding: 44
Width: 423
Flags: HW
Fore
319 81 m 4
 322 19 300 -33 255 -74 c 4
 211 -115 168 -138 125 -144 c 5
 109 -111 l 5
 141 -94 164 -80 178 -67 c 5
 197 -54 209 -32 213 -0 c 5
 190 -0 166 7 142 21 c 4
 119 34 107 60 105 99 c 4
 105 126 113 150 130 172 c 5
 147 190 169 200 197 200 c 4
 237 200 267 189 288 167 c 4
 309 144 319 116 319 81 c 4
EndSplineSet
EndChar
StartChar: hyphen
Encoding: 45 45
OldEncoding: 45
Width: 412
Flags: HW
HStem: 286 180<25 363>
Fore
10 466 m 1
 369 466 l 1
 369 286 l 1
 10 286 l 1
 10 466 l 1
EndSplineSet
EndChar
StartChar: period
Encoding: 46 46
OldEncoding: 46
Width: 309
Flags: HW
Fore
141 -27 m 4
 109 -27 86 -18 70 1 c 4
 53 20 44 43 44 70 c 4
 44 96 53 118 70 137 c 4
 86 156 109 165 141 165 c 4
 171 165 195 156 211 137 c 4
 228 120 236 98 236 70 c 4
 236 43 228 20 211 1 c 4
 195 -18 171 -27 141 -27 c 4
EndSplineSet
EndChar
StartChar: slash
Encoding: 47 47
OldEncoding: 47
Width: 344
Flags: HW
HStem: -17 21G<-18.6055 65.0146>
DStem: 259.375 943.25 339.605 943.25 -18.6055 -17.25 65.0146 -17.25
Fore
259 943 m 1
 340 943 l 1
 65 -17 l 5
 -19 -17 l 1
 259 943 l 1
EndSplineSet
MinimumDistance: x1,-1 
EndChar
StartChar: zero
Encoding: 48 48
OldEncoding: 48
Width: 689
Flags: HW
HStem: -30 170<301 335> 787 167<301 335>
VStem: -2 183<417 515> 454 185<417 515>
Fore
317 -30 m 0
 272 -30 230 -22 190 -6 c 0
 149 11 116 33 93 61 c 0
 30 140 -2 274 -2 464 c 0
 -2 654 30 787 93 864 c 0
 116 891 148 914 190 931 c 0
 227 947 269 954 317 954 c 0
 417 954 493 924 544 864 c 1
 607 786 639 653 639 464 c 0
 639 276 607 141 544 61 c 1
 493 1 417 -30 317 -30 c 0
317 140 m 0
 375 140 412 161 429 202 c 1
 445 250 454 338 454 464 c 0
 454 587 445 674 429 725 c 1
 412 767 375 787 317 787 c 0
 290 787 267 782 248 772 c 0
 228 760 215 745 208 725 c 0
 190 679 181 592 181 464 c 0
 181 333 190 246 208 202 c 1
 220 161 256 140 317 140 c 0
EndSplineSet
MinimumDistance: x8,-1 
EndChar
StartChar: one
Encoding: 49 49
OldEncoding: 49
Width: 697
Flags: HW
HStem: 0 21G<278.08 463.4>
VStem: 278 185<15 645>
Fore
463 933 m 5
 463 0 l 1
 278 0 l 1
 278 646 l 1
 57 646 l 1
 57 769 l 1
 93 769 130 773 170 782 c 0
 208 789 238 801 260 817 c 0
 312 854 339 892 341 933 c 1
 463 933 l 5
EndSplineSet
MinimumDistance: x0,-1 y5,3 x3,5 x3,4 
EndChar
StartChar: two
Encoding: 50 50
OldEncoding: 50
Width: 689
Flags: HW
HStem: -1 166<253 623>
VStem: 449 185<613 655>
Fore
632 165 m 1
 632 -1 l 1
 -2 -1 l 1
 3 59 13 116 30 168 c 0
 48 221 85 269 142 311 c 0
 146 314 185 343 259 399 c 2
 261 400 l 1
 262 401 l 1
 290 423 l 2
 343 463 379 493 396 513 c 0
 432 558 449 602 449 646 c 0
 449 662 447 681 442 703 c 0
 438 737 423 761 398 776 c 0
 371 794 344 802 317 802 c 1
 285 798 l 1
 222 784 191 721 191 610 c 1
 12 610 l 1
 12 720 39 806 93 867 c 0
 151 930 233 959 339 955 c 0
 488 948 582 881 619 754 c 0
 630 713 635 667 634 615 c 0
 632 529 557 434 410 330 c 0
 313 262 256 206 239 165 c 1
 632 165 l 1
EndSplineSet
MinimumDistance: x20,-1 
EndChar
StartChar: three
Encoding: 51 51
OldEncoding: 51
Width: 689
Flags: HW
HStem: -30 148<309 345>
Fore
-2 274 m 1
 173 274 l 1
 176 247 180 224 186 204 c 0
 190 188 199 173 211 160 c 0
 223 147 240 138 259 131 c 0
 291 123 319 118 345 118 c 1
 367 126 384 137 396 149 c 0
 433 184 451 225 451 272 c 0
 451 314 434 350 398 378 c 1
 361 405 310 418 246 418 c 1
 246 542 l 1
 295 542 337 551 373 568 c 0
 406 584 424 611 429 648 c 2
 433 688 l 1
 433 708 429 728 422 749 c 1
 412 766 398 781 380 792 c 0
 359 803 335 809 308 809 c 0
 257 811 222 796 204 762 c 1
 191 734 183 693 181 639 c 1
 12 639 l 1
 12 708 21 764 40 807 c 0
 57 850 96 889 157 924 c 0
 197 947 260 957 347 955 c 0
 419 955 476 936 519 899 c 0
 554 869 578 836 590 800 c 0
 602 762 608 719 608 670 c 1
 604 630 595 600 581 579 c 0
 567 558 541 532 504 500 c 1
 554 470 589 437 608 401 c 1
 631 365 641 313 639 244 c 0
 637 181 609 118 557 56 c 1
 507 -1 425 -30 310 -30 c 0
 266 -30 223 -23 179 -10 c 0
 138 1 100 28 65 72 c 0
 37 106 20 138 14 167 c 1
 6 196 0 232 -2 274 c 1
EndSplineSet
EndChar
StartChar: four
Encoding: 52 52
OldEncoding: 52
Width: 689
Flags: HW
HStem: 0 21G<363.135 548.455> 206 150<134 363 548 632>
VStem: 363 185<15 206 357 737>
DStem: 333.755 932.625 363.135 745.045 -8.63477 364.235 122.445 356.325
Fore
334 933 m 1
 548 933 l 1
 548 356 l 1
 646 356 l 1
 646 206 l 1
 548 206 l 1
 548 0 l 1
 363 0 l 1
 363 206 l 1
 -9 206 l 1
 -9 364 l 1
 334 933 l 1
363 745 m 1
 122 356 l 1
 363 356 l 1
 363 745 l 1
EndSplineSet
MinimumDistance: x3,-1 y5,7 y5,6 x0,2 y2,0 y2,1 y10,8 x8,10 x8,9 x2,4 x2,3 
EndChar
StartChar: five
Encoding: 53 53
OldEncoding: 53
Width: 689
Flags: HW
HStem: 771 164<218 602>
VStem: 452 188<290 324>
DStem: 106.885 934.38 219.885 770.53 21.0049 416.84 188.245 578.43
Fore
-6 245 m 1
 177 245 l 1
 179 222 184 203 191 187 c 0
 198 169 211 155 230 146 c 0
 252 134 280 128 315 128 c 0
 362 130 397 148 420 183 c 1
 441 218 452 259 452 305 c 0
 452 360 442 401 422 428 c 1
 391 467 348 486 294 484 c 0
 242 484 208 461 191 417 c 1
 21 417 l 1
 107 935 l 1
 604 935 l 1
 604 771 l 1
 220 771 l 1
 188 578 l 1
 223 599 252 613 274 620 c 0
 302 628 327 632 350 632 c 0
 384 632 417 626 449 616 c 0
 512 594 560 555 593 499 c 1
 624 444 640 382 640 314 c 0
 640 242 621 176 586 117 c 0
 558 74 524 41 484 18 c 0
 447 -5 391 -20 317 -28 c 1
 260 -28 215 -22 181 -9 c 0
 151 2 121 20 91 44 c 0
 65 66 42 90 23 117 c 1
 8 146 -0 169 -2 185 c 1
 -6 245 l 1
EndSplineSet
MinimumDistance: x20,-1 
EndChar
StartChar: six
Encoding: 54 54
OldEncoding: 54
Width: 689
Flags: HW
HStem: 475 141<318.805 386.605> 725 21G<453.275 625.035>
VStem: 468 173<289 323>
Fore
625 725 m 1
 453 725 l 1
 435 780 399 809 345 811 c 0
 307 811 275 802 250 783 c 1
 225 767 209 747 201 723 c 0
 188 687 181 646 181 597 c 0
 181 580 182 563 185 547 c 1
 213 571 240 588 266 597 c 0
 297 610 338 616 387 616 c 0
 470 616 537 579 588 505 c 0
 623 451 641 388 641 316 c 0
 641 251 631 198 611 156 c 0
 583 93 546 47 502 19 c 0
 454 -11 397 -27 329 -30 c 0
 259 -32 196 -11 139 34 c 1
 85 79 48 133 30 195 c 1
 10 269 0 359 0 466 c 0
 0 561 10 641 30 709 c 1
 54 782 91 841 141 887 c 0
 193 933 259 957 340 957 c 1
 391 954 l 1
 479 943 540 914 574 866 c 1
 606 816 623 769 625 725 c 1
199 392 m 1
 185 365 179 333 179 297 c 0
 179 249 190 209 213 177 c 0
 233 150 265 133 308 126 c 1
 355 126 392 140 417 167 c 1
 451 207 468 255 468 310 c 0
 468 352 459 388 440 420 c 1
 413 457 373 475 319 475 c 1
 291 473 268 465 250 452 c 1
 227 439 210 419 199 392 c 1
EndSplineSet
MinimumDistance: x10,-1 
EndChar
StartChar: seven
Encoding: 55 55
OldEncoding: 55
Width: 688
Flags: HW
HStem: 0 21G<131.835 316.025> 769 164<12 446>
Fore
-3 933 m 1
 652 933 l 1
 652 789 l 1
 603 732 560 673 521 612 c 0
 484 556 450 493 419 424 c 0
 389 356 366 289 349 223 c 1
 332 150 321 76 316 0 c 1
 132 0 l 1
 143 93 159 173 178 241 c 1
 193 304 215 367 243 429 c 0
 267 484 298 539 333 592 c 1
 365 646 407 705 457 769 c 1
 -3 769 l 1
 -3 933 l 1
EndSplineSet
EndChar
StartChar: eight
Encoding: 56 56
OldEncoding: 56
Width: 689
Flags: HW
HStem: 436 125<298 309 309.951 318.876>
VStem: -11 190<257 291> 21 163<689 707> 451 199<269 291> 462 160<689 707>
Fore
601 133 m 1
 577 83 537 42 482 12 c 1
 421 -18 362 -32 305 -30 c 1
 249 -30 193 -14 137 17 c 0
 84 45 45 85 18 135 c 0
 -1 174 -11 219 -11 272 c 0
 -11 380 37 459 132 510 c 1
 102 535 74 562 51 593 c 0
 31 622 21 656 21 697 c 0
 21 741 31 780 51 816 c 1
 74 861 108 895 151 919 c 0
 193 944 242 957 299 957 c 0
 427 957 516 922 565 853 c 0
 604 800 622 747 622 695 c 0
 622 651 610 612 586 579 c 0
 560 545 530 522 495 510 c 1
 544 495 582 467 608 427 c 0
 636 385 650 338 650 286 c 0
 650 228 634 177 601 133 c 1
403 591 m 1
 422 601 437 617 447 639 c 0
 457 660 462 681 462 703 c 0
 462 732 453 756 435 774 c 1
 412 802 378 816 334 816 c 0
 287 818 250 806 222 780 c 1
 196 759 184 731 184 695 c 0
 184 659 196 627 222 597 c 1
 247 573 277 561 310 561 c 0
 354 559 385 569 403 591 c 1
414 167 m 1
 424 177 433 194 440 215 c 0
 447 242 451 265 451 286 c 0
 451 319 443 349 426 376 c 0
 402 414 366 434 319 436 c 0
 273 436 238 421 213 392 c 0
 190 367 179 330 179 281 c 0
 179 238 187 203 204 177 c 1
 237 142 271 124 308 124 c 1
 351 121 387 135 414 167 c 1
EndSplineSet
MinimumDistance: x13,-1 
EndChar
StartChar: nine
Encoding: 57 57
OldEncoding: 57
Width: 689
Flags: HW
HStem: -30 146<283 309> 303 158<290 309>
VStem: -4 164<608 642>
Fore
7 219 m 1
 188 219 l 1
 188 194 198 171 217 149 c 1
 241 127 264 116 288 116 c 0
 359 116 407 145 431 204 c 0
 449 251 458 294 458 334 c 0
 458 356 455 373 449 385 c 1
 424 354 393 331 354 316 c 0
 335 307 315 303 292 303 c 0
 257 303 233 305 220 308 c 0
 129 325 65 377 28 464 c 0
 7 514 -4 568 -4 625 c 0
 -4 696 10 756 38 804 c 0
 63 848 99 886 146 917 c 0
 188 946 239 961 299 961 c 1
 345 956 l 1
 369 956 397 949 431 935 c 0
 467 918 500 897 528 871 c 0
 560 840 580 809 588 776 c 1
 622 701 639 608 639 498 c 0
 639 424 632 354 619 288 c 1
 599 212 581 159 566 128 c 0
 529 63 487 20 438 1 c 0
 387 -20 337 -30 288 -30 c 0
 198 -30 128 -2 79 54 c 1
 31 110 7 165 7 219 c 1
412 762 m 1
 386 790 350 804 303 804 c 0
 266 804 230 785 195 749 c 1
 172 718 160 677 160 625 c 0
 160 574 175 534 204 504 c 0
 232 476 266 461 308 461 c 0
 350 461 385 477 412 508 c 1
 440 537 454 576 454 625 c 0
 454 656 449 685 440 711 c 0
 433 736 424 753 412 762 c 1
EndSplineSet
MinimumDistance: x28,-1 
EndChar
StartChar: colon
Encoding: 58 58
OldEncoding: 58
Width: 375
Flags: HW
HStem: -25 185<171 189> 536 182<171 189>
Fore
185 -25 m 4
 156 -25 134 -15 118 4 c 5
 101 21 92 42 92 68 c 4
 92 91 101 113 118 132 c 4
 134 151 156 160 185 160 c 4
 216 160 239 151 255 132 c 5
 272 116 280 94 280 68 c 4
 280 44 272 22 255 4 c 4
 239 -15 216 -25 185 -25 c 4
185 536 m 4
 156 536 134 545 118 563 c 4
 101 584 92 606 92 628 c 4
 92 649 101 669 118 691 c 4
 134 709 156 718 185 718 c 4
 215 718 238 709 255 693 c 5
 272 673 280 651 280 628 c 4
 280 605 272 583 255 563 c 4
 239 545 216 536 185 536 c 4
EndSplineSet
EndChar
StartChar: semicolon
Encoding: 59 59
OldEncoding: 59
Width: 423
Flags: HW
HStem: 518 205<195 216>
Fore
204 480 m 4
 172 480 147 490 130 511 c 4
 113 532 105 555 105 582 c 4
 105 607 113 631 130 654 c 5
 147 674 172 685 204 685 c 4
 239 685 264 674 280 654 c 4
 297 632 306 608 306 582 c 4
 306 555 297 532 280 511 c 4
 262 490 236 480 204 480 c 4
319 82 m 4
 322 20 300 -32 255 -73 c 4
 211 -114 168 -137 125 -143 c 5
 109 -110 l 5
 141 -93 164 -79 178 -66 c 5
 197 -53 209 -31 213 1 c 5
 190 1 166 8 142 22 c 4
 119 35 107 61 105 100 c 4
 105 127 113 152 130 173 c 5
 147 192 169 201 197 201 c 4
 237 201 267 190 288 168 c 4
 309 146 319 117 319 82 c 4
EndSplineSet
EndChar
StartChar: less
Encoding: 60 60
OldEncoding: 60
Width: 724
Flags: HW
DStem: 10.0146 390.965 239.405 468.935 652.985 150.275 652.985 320.905 652.985 788.725 652.985 616.965 10.0146 548.035 239.405 468.935
Fore
10 391 m 5
 10 548 l 5
 653 789 l 5
 653 617 l 5
 239 469 l 5
 653 321 l 5
 653 150 l 5
 10 391 l 5
EndSplineSet
MinimumDistance: x2,-1 
EndChar
StartChar: equal
Encoding: 61 61
OldEncoding: 61
Width: 723
Flags: HW
HStem: 230 163<35 645> 549 157<35 645>
Fore
20 706 m 5
 660 706 l 5
 660 549 l 5
 20 549 l 5
 20 706 l 5
20 393 m 5
 660 393 l 5
 660 230 l 5
 20 230 l 5
 20 393 l 5
EndSplineSet
EndChar
StartChar: greater
Encoding: 62 62
OldEncoding: 62
Width: 724
Flags: HW
DStem: 10.0146 616.965 10.0146 788.725 422.465 468.935 652.985 548.035 422.465 468.935 652.985 390.965 10.0146 320.905 10.0146 150.275
Fore
10 789 m 5
 653 548 l 5
 653 391 l 5
 10 150 l 5
 10 321 l 5
 422 469 l 5
 10 617 l 5
 10 789 l 5
EndSplineSet
MinimumDistance: x1,-1 
EndChar
StartChar: question
Encoding: 63 63
OldEncoding: 63
Width: 757
Flags: HW
HStem: -2 21G<268.275 464.895> 806 173<346 375>
VStem: 492 192<682 686>
Fore
437 261 m 1
 277 261 l 1
 277 328 289 383 313 426 c 1
 343 471 382 511 430 546 c 0
 474 577 494 623 492 682 c 0
 492 721 478 751 450 773 c 0
 425 795 394 806 360 806 c 0
 321 806 287 791 258 761 c 1
 230 730 216 687 216 632 c 1
 39 632 l 1
 39 746 72 839 138 909 c 1
 196 955 266 979 349 979 c 0
 400 979 448 971 490 956 c 0
 533 940 568 919 594 894 c 0
 654 836 684 765 684 682 c 0
 684 628 673 581 651 541 c 0
 645 530 638 519 629 507 c 0
 620 495 609 485 596 477 c 1
 564 451 l 1
 525 421 l 2
 484 390 460 367 452 351 c 0
 442 330 437 300 437 261 c 1
268 -2 m 1
 268 190 l 1
 465 190 l 1
 465 -2 l 1
 268 -2 l 1
EndSplineSet
MinimumDistance: x14,-1 
EndChar
StartChar: at
Encoding: 64 64
OldEncoding: 64
Width: 1207
Flags: HW
HStem: -173 116<531 603> 85 104<833 858> 880 108<565 622>
VStem: -39 129<325 356> 1055 119<473 500>
Fore
774 679 m 1
 891 679 l 1
 781 281 l 1
 781 260 783 242 787 228 c 1
 790 213 797 201 810 193 c 1
 819 190 829 189 840 189 c 0
 864 189 883 194 898 205 c 1
 924 216 948 234 970 260 c 0
 994 290 1010 314 1017 332 c 1
 1042 387 1055 442 1055 496 c 0
 1055 528 1051 559 1042 589 c 1
 1035 623 1014 661 979 704 c 0
 948 743 910 778 865 807 c 0
 789 856 696 880 586 880 c 0
 555 880 518 877 474 869 c 0
 431 861 382 836 326 794 c 0
 278 758 234 713 195 661 c 0
 125 571 90 466 90 346 c 0
 90 320 96 287 107 246 c 0
 121 203 134 172 144 154 c 0
 162 125 177 104 190 92 c 0
 252 27 336 -18 440 -43 c 0
 479 -52 520 -57 565 -57 c 0
 654 -57 744 -40 836 -8 c 1
 873 -112 l 1
 792 -152 687 -173 558 -173 c 0
 515 -173 479 -171 449 -166 c 0
 392 -155 352 -147 329 -140 c 0
 290 -129 249 -109 206 -80 c 0
 159 -50 116 -12 77 34 c 0
 43 72 15 120 -7 177 c 0
 -28 232 -39 282 -39 326 c 0
 -39 377 -34 425 -25 467 c 1
 -18 509 -4 550 17 591 c 1
 34 631 56 669 83 706 c 0
 125 764 176 817 234 865 c 1
 294 910 361 944 434 966 c 0
 484 981 541 988 604 988 c 0
 716 988 815 964 900 913 c 0
 1046 827 1134 720 1162 591 c 1
 1170 550 1174 513 1174 483 c 0
 1174 416 1161 356 1134 302 c 0
 1090 210 1034 147 966 112 c 0
 928 94 889 85 847 85 c 0
 822 85 794 89 766 96 c 0
 732 105 702 130 677 172 c 1
 630 133 593 109 567 98 c 0
 536 86 508 79 482 79 c 0
 462 79 432 88 392 105 c 0
 356 120 327 143 306 174 c 0
 278 218 264 263 264 309 c 0
 264 326 266 341 269 355 c 0
 287 462 333 545 408 605 c 1
 472 662 537 690 602 690 c 0
 619 690 635 688 648 684 c 0
 704 670 739 642 752 600 c 1
 774 679 l 1
489 187 m 1
 536 187 573 199 600 223 c 1
 633 248 659 286 679 337 c 0
 698 386 708 432 708 476 c 0
 706 536 677 575 620 593 c 1
 597 598 l 1
 576 598 555 592 533 580 c 0
 517 572 495 555 467 529 c 0
 446 507 429 479 417 445 c 0
 400 402 392 368 392 341 c 0
 390 304 399 270 419 240 c 0
 436 211 460 193 489 187 c 1
EndSplineSet
MinimumDistance: x40,-1 
EndChar
StartChar: A
Encoding: 65 65
OldEncoding: 65
Width: 892
Flags: HW
HStem: -1 21G<-20.2197 180.92 669.08 870.22> 191 164<311 556> 939 20G<313.13 541.39>
DStem: 313.13 959.25 247.59 190.85 -20.2197 -1.25 180.92 -1.25 428.39 727.6 541.39 959.25 556.08 354.7 870.22 -1.25 602.41 190.85 541.39 959.25 669.08 -1.25 870.22 -1.25
Fore
541 959 m 1
 870 -1 l 1
 669 -1 l 1
 602 191 l 1
 248 191 l 1
 181 -1 l 1
 -20 -1 l 1
 313 959 l 1
 541 959 l 1
428 728 m 1
 311 355 l 1
 556 355 l 1
 428 728 l 1
EndSplineSet
MinimumDistance: x1,-1 
EndChar
StartChar: B
Encoding: 66 66
OldEncoding: 66
Width: 891
Flags: HW
HStem: -1 164<258 500> 411 164<258 487> 795 164<258 500>
VStem: 52 197<166 399 589 783> 628 190<297 308.325>
Fore
52 -1 m 1
 52 959 l 1
 478 959 l 2
 510 959 551 953 601 941 c 0
 647 928 682 910 707 885 c 1
 735 864 755 843 767 820 c 1
 783 767 l 1
 795 707 l 1
 795 671 788 637 772 606 c 1
 758 570 735 539 703 511 c 1
 733 489 758 460 779 425 c 0
 800 387 813 348 818 308 c 1
 818 252 811 205 795 168 c 0
 778 128 753 93 719 63 c 0
 667 20 589 -1 485 -1 c 2
 52 -1 l 1
249 795 m 1
 249 575 l 1
 473 575 l 2
 517 575 550 585 571 606 c 0
 594 627 606 653 606 684 c 0
 603 758 562 795 482 795 c 2
 249 795 l 1
249 411 m 1
 249 163 l 1
 480 163 l 2
 520 163 555 171 584 186 c 0
 616 203 630 240 628 297 c 0
 628 344 615 374 589 387 c 1
 564 403 529 411 485 411 c 2
 249 411 l 1
EndSplineSet
MinimumDistance: x11,-1 
EndChar
StartChar: C
Encoding: 67 67
OldEncoding: 67
Width: 892
Flags: HW
HStem: -31 170<415 443> 810 164<415 417 417.136 441.763 442 461.24>
Fore
656 329 m 1
 848 329 l 1
 848 280 835 231 810 183 c 0
 785 135 755 94 718 62 c 0
 685 36 644 15 594 -0 c 1
 537 -21 484 -31 435 -31 c 0
 332 -33 243 -4 167 57 c 0
 95 118 46 199 22 303 c 1
 9 348 2 404 2 472 c 0
 2 547 10 608 26 655 c 1
 88 868 226 974 442 974 c 0
 544 974 631 949 702 900 c 0
 795 837 843 748 848 634 c 1
 658 634 l 1
 656 658 648 683 634 708 c 0
 617 736 593 760 561 779 c 0
 524 802 476 812 417 810 c 0
 379 810 341 794 301 764 c 1
 265 732 240 697 225 657 c 0
 207 615 197 559 194 490 c 0
 193 462 195 426 201 382 c 1
 204 351 211 320 225 289 c 0
 252 226 294 182 349 155 c 1
 376 144 401 139 426 139 c 0
 448 139 476 142 510 150 c 0
 568 165 605 189 623 222 c 0
 640 255 651 290 656 329 c 1
EndSplineSet
EndChar
StartChar: D
Encoding: 68 68
OldEncoding: 68
Width: 890
Flags: HW
HStem: -1 164<251 421> 795 164<251 429>
VStem: 44 197<166 783> 639 200<493 527>
Fore
44 -1 m 1
 44 959 l 1
 491 959 l 2
 528 959 564 952 600 938 c 0
 639 922 675 898 706 867 c 1
 736 839 766 795 797 734 c 1
 825 675 839 604 839 522 c 0
 839 449 830 380 813 314 c 0
 799 261 778 213 751 168 c 0
 717 117 676 76 627 45 c 0
 578 14 528 -1 477 -1 c 2
 44 -1 l 1
241 795 m 1
 241 163 l 1
 398 163 l 2
 497 163 567 206 607 293 c 1
 628 343 639 411 639 496 c 0
 639 588 622 658 590 707 c 0
 567 743 542 766 517 776 c 0
 485 789 453 795 419 795 c 2
 241 795 l 1
EndSplineSet
MinimumDistance: x6,-1 
EndChar
StartChar: E
Encoding: 69 69
OldEncoding: 69
Width: 823
Flags: HW
HStem: -1 164<257 755> 411 164<257 707> 795 164<257 739>
VStem: 51 197<161 411 574 795>
Fore
51 959 m 1
 746 959 l 1
 746 795 l 1
 248 795 l 1
 248 575 l 1
 708 575 l 1
 708 411 l 1
 248 411 l 1
 248 163 l 1
 768 163 l 1
 768 -1 l 1
 51 -1 l 1
 51 959 l 1
EndSplineSet
MinimumDistance: x9,-1 x8,10 x8,9 x4,6 x4,5 x3,1 x3,2 
EndChar
StartChar: F
Encoding: 70 70
OldEncoding: 70
Width: 754
Flags: HW
HStem: -1 21G<47.2598 243.88> 411 164<244 656> 795 164<244 720>
VStem: 47 197<13 411 574 795>
Fore
47 959 m 1
 721 959 l 1
 721 795 l 1
 244 795 l 1
 244 575 l 1
 665 575 l 1
 665 411 l 1
 244 411 l 1
 244 -1 l 1
 47 -1 l 1
 47 959 l 1
EndSplineSet
MinimumDistance: x1,-1 x9,7 y7,9 y7,8 x4,6 x4,5 x3,1 x3,2 
EndChar
StartChar: G
Encoding: 71 71
OldEncoding: 71
Width: 965
Flags: HW
HStem: -5 21G<760.05 877.57> 351 165<509 703> 812 162<440 479>
VStem: -2 190<448 498>
Fore
493 351 m 1
 493 516 l 1
 878 516 l 1
 878 -5 l 1
 760 -5 l 1
 736 115 l 1
 708 80 685 57 667 44 c 1
 649 24 618 7 572 -7 c 1
 525 -25 475 -33 422 -31 c 0
 388 -31 352 -24 314 -12 c 1
 293 -9 268 0 239 16 c 1
 217 29 198 43 181 57 c 2
 142 92 l 1
 96 138 61 194 36 261 c 0
 11 326 -2 396 -2 472 c 0
 -2 575 23 669 71 755 c 0
 119 843 186 906 272 942 c 0
 322 963 383 974 455 974 c 0
 516 974 573 967 626 953 c 0
 678 939 725 911 769 870 c 1
 832 807 869 735 878 655 c 1
 698 655 l 1
 681 710 652 749 612 773 c 0
 570 799 520 812 464 812 c 0
 407 812 350 795 294 759 c 1
 261 729 235 687 217 634 c 0
 198 577 188 523 188 470 c 0
 188 401 199 345 221 303 c 0
 275 199 348 141 440 130 c 1
 536 130 609 160 658 220 c 1
 691 263 710 307 714 351 c 1
 493 351 l 1
EndSplineSet
MinimumDistance: x26,-1 
EndChar
StartChar: H
Encoding: 72 72
OldEncoding: 72
Width: 893
Flags: HW
HStem: -1 21G<35.4102 232.03 611.71 810.59> 434 164<232 611> 939 20G<35.4102 232.03 611.71 810.59>
VStem: 35 197<13 431 605 959> 612 199<13 431 605 959>
Fore
35 -1 m 1
 35 959 l 1
 232 959 l 1
 232 598 l 1
 612 598 l 1
 612 959 l 1
 811 959 l 1
 811 -1 l 1
 612 -1 l 1
 612 434 l 1
 232 434 l 1
 232 -1 l 1
 35 -1 l 1
EndSplineSet
MinimumDistance: x6,-1 x0,10 y10,0 y10,11 y9,7 y9,8 y4,6 y4,5 x1,3 y3,1 y3,2 
EndChar
StartChar: I
Encoding: 73 73
OldEncoding: 73
Width: 344
Flags: HW
HStem: -1 21G<62.6904 259.31> 939 20G<62.6904 259.31>
VStem: 63 197<13 959>
Fore
260 959 m 1
 260 -1 l 1
 63 -1 l 1
 63 959 l 1
 260 959 l 1
EndSplineSet
MinimumDistance: x0,-1 
EndChar
StartChar: J
Encoding: 74 74
OldEncoding: 74
Width: 692
Flags: HW
HStem: 941 20G<403.22 599.84>
VStem: -6 197<241 339> 403 197<227 947>
Fore
403 961 m 1
 600 961 l 1
 600 230 l 2
 600 166 578 109 533 60 c 0
 482 2 411 -28 320 -30 c 0
 238 -32 173 -21 123 5 c 0
 92 22 68 42 50 67 c 0
 29 94 16 122 10 151 c 1
 -1 186 -6 218 -6 246 c 2
 -6 354 l 1
 191 354 l 1
 191 257 l 2
 191 227 198 199 211 175 c 0
 225 147 256 135 302 137 c 0
 336 137 363 149 381 172 c 0
 396 192 403 216 403 243 c 2
 403 961 l 1
EndSplineSet
MinimumDistance: x1,-1 
EndChar
StartChar: K
Encoding: 75 75
OldEncoding: 75
Width: 888
Flags: HW
HStem: -1 21G<37.25 233.87 646.32 884.75> 939 20G<37.25 233.87 611.29 845.2>
VStem: 37 197<13 306 538 959>
DStem: 611.29 959.25 845.2 959.25 233.87 537.76 465.52 542.28
Fore
37 -1 m 1
 37 959 l 1
 234 959 l 1
 234 538 l 1
 611 959 l 1
 845 959 l 1
 466 542 l 1
 885 -1 l 1
 646 -1 l 1
 336 416 l 1
 234 306 l 1
 234 -1 l 1
 37 -1 l 1
EndSplineSet
MinimumDistance: x5,-1 
EndChar
StartChar: L
Encoding: 76 76
OldEncoding: 76
Width: 754
Flags: HW
HStem: -1 164<252 711> 939 20G<54.1699 253.05>
VStem: 54 199<161 959>
Fore
54 959 m 1
 253 959 l 1
 253 163 l 1
 712 163 l 1
 712 -1 l 1
 54 -1 l 1
 54 959 l 1
EndSplineSet
MinimumDistance: x3,-1 x0,2 y2,0 y2,1 x2,4 x2,3 
EndChar
StartChar: M
Encoding: 77 77
OldEncoding: 77
Width: 1032
Flags: HW
HStem: -1 21G<22.1152 220.995 391.625 589.375 760.005 958.885> 939 20G<22.1152 311.395 669.605 958.885>
VStem: 22 199<13 767> 760 199<13 767>
Fore
589 -1 m 1
 392 -1 l 1
 221 776 l 1
 221 -1 l 1
 22 -1 l 1
 22 959 l 1
 311 959 l 1
 492 221 l 1
 670 959 l 1
 959 959 l 1
 959 -1 l 1
 760 -1 l 1
 760 776 l 1
 589 -1 l 1
EndSplineSet
MinimumDistance: x9,-1 
EndChar
StartChar: N
Encoding: 78 78
OldEncoding: 78
Width: 892
Flags: HW
HStem: -1 21G<35.1504 231.77 620.49 814.85> 939 20G<35.1504 229.51 618.23 814.85>
VStem: 618 197<300 959>
DStem: 231.77 667.71 229.51 959.25 620.49 -1.25 618.23 299.33
Fore
35 959 m 1
 230 959 l 1
 618 299 l 1
 618 959 l 1
 815 959 l 1
 815 -1 l 1
 620 -1 l 1
 232 668 l 1
 232 -1 l 1
 35 -1 l 1
 35 959 l 1
EndSplineSet
MinimumDistance: x4,-1 
EndChar
StartChar: O
Encoding: 79 79
OldEncoding: 79
Width: 963
Flags: HW
HStem: -31 172<440 474> 803 173<440 474>
VStem: -6 190<448 498> 727 190<448 498>
Fore
917 472 m 0
 917 403 904 334 878 263 c 0
 852 190 818 132 776 90 c 1
 701 9 594 -31 457 -31 c 0
 321 -31 213 9 135 90 c 0
 93 132 59 190 33 263 c 0
 7 334 -6 403 -6 472 c 0
 -6 544 7 614 33 682 c 0
 59 754 93 812 135 856 c 1
 214 936 322 976 457 976 c 0
 490 976 529 972 572 965 c 1
 614 955 651 941 683 923 c 1
 715 908 746 886 776 856 c 0
 818 812 852 754 878 682 c 0
 904 614 917 544 917 472 c 0
457 141 m 0
 527 141 585 162 632 205 c 0
 666 236 690 274 705 319 c 0
 720 365 727 416 727 472 c 0
 727 528 720 579 705 624 c 0
 690 670 665 708 632 737 c 0
 584 781 526 803 457 803 c 0
 386 803 327 781 279 737 c 0
 249 711 226 674 210 627 c 0
 192 577 184 525 184 472 c 0
 184 419 192 369 210 322 c 0
 226 271 249 232 279 205 c 0
 326 162 386 141 457 141 c 0
EndSplineSet
MinimumDistance: x0,-1 
EndChar
StartChar: P
Encoding: 80 80
OldEncoding: 80
Width: 823
Flags: HW
HStem: -1 21G<45.8154 244.695> 341 165<245 480> 795 164<245 478>
VStem: 46 199<13 341 509 783> 587 192<653 687>
Fore
46 -1 m 1
 46 959 l 1
 474 959 l 2
 528 959 581 950 636 931 c 0
 687 913 726 871 754 804 c 0
 771 763 779 715 779 661 c 0
 779 598 771 548 754 513 c 0
 701 398 609 341 479 341 c 2
 245 341 l 1
 245 -1 l 1
 46 -1 l 1
245 795 m 1
 245 506 l 1
 465 506 l 2
 511 506 547 533 574 586 c 1
 580 621 l 1
 585 637 587 653 587 670 c 0
 587 688 585 705 580 721 c 0
 564 771 523 795 456 795 c 2
 245 795 l 1
EndSplineSet
MinimumDistance: x5,-1 y8,0 y8,9 
EndChar
StartChar: Q
Encoding: 81 81
OldEncoding: 81
Width: 962
Flags: HW
HStem: -29 172<444 478> 805 173<444 478>
VStem: -2 188<457 491> 731 190<441 491>
Fore
817 136 m 1
 921 37 l 1
 819 -69 l 1
 709 37 l 1
 635 -7 552 -29 459 -29 c 0
 324 -29 217 12 139 92 c 0
 99 132 65 189 37 263 c 0
 11 332 -2 402 -2 474 c 0
 -2 548 11 619 37 687 c 0
 65 759 99 816 139 858 c 1
 218 938 325 978 459 978 c 0
 525 978 585 968 639 949 c 0
 696 927 742 897 778 858 c 0
 823 811 859 753 885 684 c 0
 909 620 921 550 921 474 c 0
 921 413 912 351 894 291 c 1
 873 229 847 177 817 136 c 1
570 168 m 1
 470 261 l 1
 572 370 l 1
 680 265 l 1
 714 325 731 395 731 474 c 0
 731 526 723 578 706 629 c 0
 691 674 667 710 634 740 c 1
 588 784 530 805 459 805 c 0
 390 805 331 784 283 740 c 0
 253 713 230 675 214 627 c 0
 195 573 186 522 186 474 c 0
 186 428 195 378 214 324 c 0
 230 274 253 235 283 208 c 0
 330 165 389 143 459 143 c 0
 498 143 535 151 570 168 c 1
EndSplineSet
MinimumDistance: x1,-1 
EndChar
StartChar: R
Encoding: 82 82
OldEncoding: 82
Width: 890
Flags: HW
HStem: -1 21G<46.7598 245.64 620.8 833.24> 378 164<246 495> 795 164<246 527>
VStem: 47 199<13 379 557 783> 596 201<93 114> 632 190<669 692>
Fore
47 -1 m 1
 47 959 l 1
 581 959 l 2
 608 959 639 953 674 941 c 1
 703 929 730 912 755 889 c 1
 779 865 795 838 802 807 c 1
 811 769 l 1
 817 730 l 1
 822 693 l 1
 822 664 818 637 811 612 c 0
 799 573 784 544 764 524 c 1
 747 504 719 483 681 462 c 1
 711 443 l 1
 746 420 l 1
 757 410 765 397 771 383 c 1
 779 370 784 352 788 328 c 1
 793 224 l 1
 797 114 l 1
 797 91 800 74 806 63 c 0
 812 53 821 44 833 34 c 1
 833 -1 l 1
 621 -1 l 1
 604 33 596 64 596 89 c 2
 596 281 l 1
 592 305 587 324 579 337 c 1
 565 352 551 363 537 369 c 0
 523 375 503 378 477 378 c 2
 246 378 l 1
 246 -1 l 1
 47 -1 l 1
246 795 m 1
 246 542 l 1
 515 542 l 2
 543 542 570 555 596 580 c 0
 620 604 632 640 632 686 c 0
 632 759 592 795 512 795 c 2
 246 795 l 1
EndSplineSet
MinimumDistance: x8,-1 x0,27 y27,0 y27,28 
EndChar
StartChar: S
Encoding: 83 83
OldEncoding: 83
Width: 826
Flags: HW
HStem: -33 163<361 404.95> 819 155<342 393>
VStem: 593 192<257 289.135>
Fore
753 667 m 1
 565 667 l 1
 565 694 558 718 544 740 c 0
 531 763 510 782 480 799 c 1
 449 812 412 819 369 819 c 0
 260 819 202 782 195 708 c 1
 195 680 199 659 206 645 c 1
 217 632 234 622 255 613 c 1
 263 605 281 598 308 592 c 0
 309 592 345 584 417 569 c 0
 448 564 474 558 495 552 c 1
 603 534 679 503 722 459 c 0
 764 415 785 358 785 289 c 0
 785 242 774 194 753 146 c 0
 730 97 700 60 663 37 c 1
 596 -7 496 -31 362 -33 c 0
 333 -33 293 -27 243 -14 c 0
 194 -2 155 15 126 37 c 0
 83 67 51 104 31 148 c 0
 9 193 -4 239 -9 285 c 1
 183 285 l 1
 183 247 197 214 225 185 c 0
 261 148 321 130 405 130 c 0
 434 130 464 134 493 143 c 0
 519 149 541 160 559 174 c 0
 581 194 593 222 593 259 c 0
 593 290 583 316 563 335 c 0
 549 351 528 364 502 373 c 0
 476 382 439 391 391 400 c 2
 276 421 l 2
 236 429 206 436 186 444 c 0
 153 454 123 471 95 493 c 0
 69 514 49 543 35 578 c 1
 20 613 12 657 12 711 c 1
 21 790 55 855 113 905 c 1
 171 951 258 974 373 974 c 0
 437 974 495 967 546 954 c 0
 607 939 658 905 698 854 c 0
 735 805 753 743 753 667 c 1
EndSplineSet
MinimumDistance: x12,-1 
EndChar
StartChar: T
Encoding: 84 84
OldEncoding: 84
Width: 758
Flags: HW
HStem: -1 21G<263.34 461.09> 795 164<-14 263 461 740>
VStem: 263 198<13 795>
Fore
-28 959 m 1
 740 959 l 1
 740 795 l 1
 461 795 l 1
 461 -1 l 1
 263 -1 l 1
 263 795 l 1
 -28 795 l 1
 -28 959 l 1
EndSplineSet
MinimumDistance: x1,-1 y3,5 y3,4 x6,0 x6,7 x3,1 x3,2 
EndChar
StartChar: U
Encoding: 85 85
OldEncoding: 85
Width: 892
Flags: HW
HStem: -30 172<411 445> 941 20G<44.1904 243.07 609.19 805.81>
VStem: 44 199<288 946> 609 197<288 946>
Fore
609 961 m 1
 806 961 l 1
 806 299 l 2
 806 160 746 64 625 10 c 0
 565 -17 499 -30 428 -30 c 0
 367 -30 305 -19 243 3 c 1
 110 75 44 174 44 299 c 2
 44 961 l 1
 243 961 l 1
 243 297 l 2
 243 255 256 219 283 188 c 0
 309 157 356 142 424 142 c 0
 492 142 541 157 570 188 c 1
 596 220 609 257 609 297 c 2
 609 961 l 1
EndSplineSet
MinimumDistance: x1,-1 
EndChar
StartChar: V
Encoding: 86 86
OldEncoding: 86
Width: 825
Flags: HW
HStem: -1 21G<305.055 474.555> 939 20G<-18.125 178.495 602.245 801.125>
Fore
602 959 m 1
 801 959 l 1
 475 -1 l 1
 305 -1 l 1
 -18 959 l 1
 178 959 l 1
 391 235 l 1
 602 959 l 1
EndSplineSet
EndChar
StartChar: W
Encoding: 87 87
OldEncoding: 87
Width: 1170
Flags: HW
HStem: -1 21G<213.325 391.865 708.265 886.805> 939 20G<-55.6152 155.695 447.235 655.155 946.695 1154.62>
Fore
-56 959 m 1
 156 959 l 1
 304 239 l 1
 447 959 l 1
 655 959 l 1
 799 230 l 1
 947 959 l 1
 1155 959 l 1
 887 -1 l 1
 708 -1 l 1
 549 730 l 1
 392 -1 l 1
 213 -1 l 1
 -56 959 l 1
EndSplineSet
EndChar
StartChar: X
Encoding: 88 88
OldEncoding: 88
Width: 825
Flags: HW
HStem: -1 21G<-20.6445 209.875 575.995 807.645> 939 20G<-7.08496 224.565 569.215 800.865>
Fore
-7 959 m 1
 225 959 l 1
 393 648 l 1
 569 959 l 1
 801 959 l 1
 505 489 l 1
 808 -1 l 1
 576 -1 l 1
 393 325 l 1
 210 -1 l 1
 -21 -1 l 1
 282 482 l 1
 -7 959 l 1
EndSplineSet
EndChar
StartChar: Y
Encoding: 89 89
OldEncoding: 89
Width: 825
Flags: HW
HStem: -1 21G<300.145 496.765> 939 20G<-16.2549 202.965 582.645 805.255>
VStem: 300 197<13 354>
Fore
583 959 m 1
 805 959 l 1
 497 355 l 1
 497 -1 l 1
 300 -1 l 1
 300 355 l 1
 -16 959 l 1
 203 959 l 1
 400 545 l 1
 583 959 l 1
EndSplineSet
MinimumDistance: x2,-1 
EndChar
StartChar: Z
Encoding: 90 90
OldEncoding: 90
Width: 758
Flags: HW
HStem: -1 164<232 714> 792 167<8 473.6>
DStem: 483.885 792.01 715.535 795.4 -6.53516 162.6 225.115 162.6
Fore
-7 959 m 1
 716 959 l 1
 716 795 l 1
 225 163 l 1
 716 163 l 1
 716 -1 l 1
 -7 -1 l 1
 -7 163 l 1
 484 792 l 1
 -7 795 l 1
 -7 959 l 1
EndSplineSet
MinimumDistance: x1,-1 
EndChar
StartChar: bracketleft
Encoding: 91 91
OldEncoding: 91
Width: 408
Flags: HW
HStem: 955 20G<59.7998 376.2>
VStem: 60 171<-117 842>
Fore
376 842 m 1
 231 842 l 1
 231 -116 l 1
 376 -116 l 1
 376 -253 l 1
 60 -253 l 1
 60 975 l 1
 376 975 l 1
 376 842 l 1
EndSplineSet
MinimumDistance: x0,-1 y4,2 x2,4 x2,3 y7,1 x1,7 x1,0 
EndChar
StartChar: backslash
Encoding: 92 92
OldEncoding: 92
Width: 344
Flags: HW
HStem: -26 21G<261.57 358.75>
DStem: -36.75 934.25 62.6904 934.25 261.57 -26.25 358.75 -26.25
Fore
-37 934 m 1
 63 934 l 1
 359 -26 l 1
 262 -26 l 1
 -37 934 l 1
EndSplineSet
EndChar
StartChar: bracketright
Encoding: 93 93
OldEncoding: 93
Width: 416
Flags: HW
HStem: 955 20G<1.60547 321.395>
VStem: 149 173<-116 842>
Fore
2 842 m 1
 2 975 l 1
 322 975 l 1
 322 -253 l 1
 2 -253 l 1
 2 -116 l 1
 149 -116 l 1
 149 842 l 1
 2 842 l 1
EndSplineSet
MinimumDistance: x2,-1 y1,7 x7,1 x7,0 y4,6 x6,4 x6,5 
EndChar
StartChar: asciicircum
Encoding: 94 94
OldEncoding: 94
Width: 723
Flags: HW
DStem: 256.38 897.24 340 731.13 37.1602 336.76 185.19 336.76 340 731.13 419.1 897.24 494.81 336.76 642.84 336.76
Fore
37 337 m 1
 256 897 l 1
 419 897 l 1
 643 337 l 1
 495 337 l 1
 340 731 l 1
 185 337 l 1
 37 337 l 1
EndSplineSet
MinimumDistance: x3,-1 
EndChar
StartChar: underscore
Encoding: 95 95
OldEncoding: 95
Width: 689
Flags: HW
HStem: -184 92<-58 712>
Fore
720 -92 m 1
 720 -184 l 1
 -73 -184 l 1
 -73 -92 l 1
 720 -92 l 1
EndSplineSet
EndChar
StartChar: grave
Encoding: 96 96
OldEncoding: 96
Width: 291
Flags: HW
Fore
33 787 m 4
 30 851 52 902 97 942 c 5
 141 984 185 1007 227 1012 c 5
 243 979 l 5
 209 961 186 946 174 935 c 5
 155 921 143 898 139 868 c 5
 164 868 188 861 211 847 c 4
 233 834 245 808 248 769 c 5
 248 744 240 720 222 696 c 5
 207 678 184 669 156 669 c 4
 114 669 84 680 65 701 c 5
 44 723 33 751 33 787 c 4
EndSplineSet
EndChar
StartChar: a
Encoding: 97 97
OldEncoding: 97
Width: 689
Flags: HW
HStem: 606 132<309.824 339.862>
VStem: 433 173<283 336 513.55 541.8>
Fore
648 14 m 1
 453 14 l 1
 440 32 433 56 433 85 c 1
 403 56 371 33 338 16 c 0
 296 -5 243 -16 179 -16 c 1
 53 -1 -9 72 -7 204 c 0
 -7 259 10 308 44 352 c 0
 73 390 125 416 201 429 c 1
 259 431 321 442 387 460 c 1
 417 476 433 503 433 542 c 0
 433 564 423 580 402 590 c 0
 384 601 353 606 310 606 c 0
 264 604 232 593 215 572 c 1
 201 553 192 526 190 491 c 1
 16 491 l 1
 18 656 116 738 310 738 c 0
 380 738 436 730 479 712 c 0
 564 682 606 615 606 514 c 2
 606 123 l 2
 606 93 620 66 648 40 c 1
 648 14 l 1
433 310 m 2
 433 350 l 1
 410 339 378 330 336 321 c 1
 261 312 l 1
 236 308 216 298 201 283 c 0
 185 265 176 245 176 222 c 1
 181 197 l 1
 186 185 192 174 199 164 c 0
 206 156 218 149 236 144 c 0
 252 140 274 137 303 137 c 1
 354 144 388 163 405 195 c 1
 424 224 433 262 433 310 c 2
EndSplineSet
MinimumDistance: x17,-1 
EndChar
StartChar: b
Encoding: 98 98
OldEncoding: 98
Width: 756
Flags: HW
HStem: 1 21G<31 212.93> 566 159<368.87 417.46> 941 20G<31 212.93>
VStem: 31 182<16 66 320 370 617 946> 524 185<336 370>
Fore
31 1 m 1
 31 961 l 1
 213 961 l 1
 213 616 l 1
 248 689 317 725 417 725 c 0
 537 723 619 669 663 566 c 0
 694 490 709 420 709 356 c 0
 709 292 691 219 656 135 c 1
 635 91 613 60 590 40 c 1
 571 17 543 -0 508 -13 c 0
 478 -24 440 -30 396 -30 c 0
 324 -28 263 6 213 72 c 1
 213 1 l 1
 31 1 l 1
369 566 m 0
 315 566 274 538 246 484 c 0
 224 441 213 395 213 345 c 0
 213 295 224 249 246 206 c 0
 274 154 315 128 369 128 c 0
 426 128 467 154 491 206 c 0
 513 251 524 298 524 345 c 0
 524 393 513 439 491 484 c 0
 477 514 460 535 438 546 c 0
 414 559 391 566 369 566 c 0
EndSplineSet
MinimumDistance: x6,-1 
EndChar
StartChar: c
Encoding: 99 99
OldEncoding: 99
Width: 689
Flags: HW
HStem: 579 159<311.077 333.049 333.166 354.648>
Fore
645 460 m 1
 470 460 l 1
 457 511 441 543 421 555 c 0
 398 571 369 579 333 579 c 0
 273 581 230 547 205 475 c 1
 201 451 l 1
 196 410 l 1
 192 354 l 1
 192 319 195 289 201 266 c 0
 215 214 232 180 252 164 c 0
 274 149 301 140 335 137 c 0
 369 137 396 145 419 160 c 0
 441 176 458 211 470 264 c 1
 645 264 l 1
 645 222 632 181 605 142 c 0
 580 101 555 70 532 49 c 0
 504 26 476 10 448 1 c 0
 411 -11 370 -16 324 -16 c 0
 257 -19 200 -4 152 28 c 0
 108 57 74 94 51 140 c 0
 25 188 11 228 9 262 c 1
 4 288 2 320 2 359 c 0
 2 433 13 492 35 537 c 1
 59 594 86 638 117 669 c 0
 149 700 180 718 210 725 c 0
 251 734 292 738 333 738 c 0
 411 740 473 727 521 699 c 0
 558 676 588 639 611 590 c 0
 634 538 645 494 645 460 c 1
EndSplineSet
EndChar
StartChar: d
Encoding: 100 100
OldEncoding: 100
Width: 761
Flags: HW
HStem: -30 158<305.633 336.143> -4 21G<488.693 674.013> 568 157<285.293 336.143> 941 20G<488.693 674.013>
VStem: -4 185<321 333 333.978 374.707> 489 185<-3 67 321 371 617 947>
Fore
674 961 m 1
 674 -4 l 1
 489 -4 l 1
 489 72 l 1
 467 39 439 15 405 -2 c 0
 364 -21 331 -30 306 -30 c 0
 269 -32 233 -27 197 -13 c 0
 164 -2 135 16 111 40 c 0
 88 63 67 95 49 135 c 0
 14 212 -4 278 -4 334 c 0
 -6 414 8 491 40 563 c 0
 87 669 169 723 285 725 c 0
 390 725 458 689 489 616 c 1
 489 961 l 1
 674 961 l 1
336 568 m 0
 283 568 242 541 211 486 c 1
 191 442 181 396 181 347 c 0
 181 300 191 253 211 206 c 1
 241 154 283 128 336 128 c 0
 389 128 430 154 458 206 c 1
 479 250 489 297 489 347 c 0
 489 402 479 449 458 486 c 0
 430 541 390 568 336 568 c 0
EndSplineSet
MinimumDistance: x0,-1 
EndChar
StartChar: e
Encoding: 101 101
OldEncoding: 101
Width: 689
Flags: HW
HStem: -16 150<313 351.835> 312 125<174 458> 586 153<299.041 316.755 316.88 342>
VStem: -11 184<293 312>
Fore
648 312 m 1
 173 312 l 1
 173 262 181 224 197 199 c 0
 214 175 234 158 259 149 c 0
 287 139 318 134 352 134 c 1
 380 142 405 152 424 164 c 1
 442 180 454 197 458 215 c 1
 641 215 l 1
 629 169 606 129 572 95 c 0
 536 59 495 32 449 14 c 0
 402 -6 357 -16 315 -16 c 0
 257 -16 195 1 130 37 c 1
 96 62 69 87 51 114 c 1
 28 144 12 175 3 208 c 1
 -4 242 -9 271 -11 294 c 1
 -11 359 -9 410 -4 447 c 0
 9 530 35 595 74 639 c 0
 110 682 150 710 193 723 c 0
 229 733 271 739 317 739 c 0
 385 739 441 725 484 699 c 1
 527 675 562 642 588 599 c 0
 611 563 625 532 630 505 c 0
 638 473 643 442 646 412 c 1
 648 312 l 1
173 437 m 1
 458 437 l 1
 458 472 449 506 431 537 c 0
 410 570 376 586 329 586 c 0
 279 588 240 573 213 542 c 0
 186 509 173 474 173 437 c 1
EndSplineSet
MinimumDistance: x1,-1 
EndChar
StartChar: f
Encoding: 102 102
OldEncoding: 102
Width: 412
Flags: HW
HStem: -1 21G<92.7549 278.075> 575 122<8 92 279 385> 820 139<312 378>
VStem: 93 185<13 575 697 782>
Fore
-7 575 m 1
 -7 697 l 1
 93 697 l 1
 93 781 l 2
 93 836 107 881 137 913 c 1
 168 944 211 959 267 959 c 2
 382 959 l 1
 382 820 l 1
 318 820 l 2
 291 820 278 804 278 772 c 2
 278 697 l 1
 388 697 l 1
 388 575 l 1
 278 575 l 1
 278 -1 l 1
 93 -1 l 1
 93 575 l 1
 -7 575 l 1
EndSplineSet
MinimumDistance: x11,-1 y13,15 y13,14 x10,12 x10,11 x9,6 x9,7 x2,0 x2,1 
EndChar
StartChar: g
Encoding: 103 103
OldEncoding: 103
Width: 761
Flags: HW
HStem: -2 148<302 333.87> 587 166<304 333.87> 722 20G<495.46 669.48>
VStem: 1 166<346 380> 495 174<-6 92 346 380 636 732>
Fore
495 742 m 1
 669 742 l 1
 669 11 l 2
 669 -33 659 -75 637 -115 c 0
 616 -152 589 -182 555 -205 c 0
 497 -244 402 -263 268 -260 c 0
 201 -258 141 -235 89 -191 c 0
 39 -151 14 -105 14 -55 c 1
 206 -55 l 1
 206 -95 242 -121 315 -133 c 1
 367 -133 410 -119 445 -91 c 0
 479 -64 495 -33 495 3 c 2
 495 104 l 1
 481 87 463 68 440 47 c 0
 425 32 406 21 382 13 c 1
 362 3 336 -2 303 -2 c 0
 253 -2 215 4 190 15 c 0
 162 27 132 47 100 78 c 0
 78 99 60 126 47 157 c 1
 30 188 19 221 12 254 c 0
 4 292 1 328 1 362 c 0
 1 423 10 480 28 533 c 0
 47 590 74 635 107 667 c 1
 159 725 226 753 306 753 c 0
 333 753 357 750 376 744 c 0
 385 741 400 732 422 718 c 1
 454 687 l 2
 460 680 474 663 495 636 c 1
 495 742 l 1
334 587 m 0
 278 587 234 561 202 508 c 1
 178 458 167 411 167 367 c 0
 167 320 178 274 202 228 c 0
 230 174 274 146 334 146 c 0
 393 146 437 174 466 228 c 0
 487 269 498 316 498 367 c 0
 498 415 487 462 466 508 c 1
 434 561 390 587 334 587 c 0
EndSplineSet
MinimumDistance: x1,-1 
EndChar
StartChar: h
Encoding: 104 104
OldEncoding: 104
Width: 758
Flags: HW
HStem: -1 21G<42.0547 227.375 481.625 666.945> 939 20G<42.0547 212.685>
VStem: 42 171<620 959> 42 185<13 431> 482 185<13 463>
Fore
213 959 m 1
 213 619 l 1
 260 688 333 723 433 723 c 0
 496 723 551 707 597 674 c 0
 644 641 667 590 667 520 c 2
 667 -1 l 1
 482 -1 l 1
 482 450 l 2
 482 474 476 499 466 524 c 1
 453 543 428 555 391 561 c 1
 345 561 306 550 276 526 c 0
 244 501 227 464 227 416 c 2
 227 -1 l 1
 42 -1 l 1
 42 959 l 1
 213 959 l 1
EndSplineSet
MinimumDistance: x4,-1 
EndChar
StartChar: i
Encoding: 105 105
OldEncoding: 105
Width: 344
Flags: HW
HStem: -1 21G<67.3398 252.66> 795 21G<67.3398 252.66> 939 20G<67.3398 252.66>
VStem: 67 185<13 703 797 959>
Fore
67 795 m 1
 67 959 l 1
 252 959 l 1
 252 795 l 1
 67 795 l 1
67 -1 m 1
 67 712 l 1
 252 712 l 1
 252 -1 l 1
 67 -1 l 1
EndSplineSet
MinimumDistance: x2,-1 
EndChar
StartChar: j
Encoding: 106 106
OldEncoding: 106
Width: 348
Flags: HW
HStem: 708 20G<76.54 259.6> 812 164<77 246>
VStem: 77 183<-83 719 813 975>
Fore
77 812 m 1
 77 976 l 1
 260 976 l 1
 260 812 l 1
 77 812 l 1
77 -70 m 2
 77 728 l 1
 260 728 l 1
 260 -117 l 2
 260 -140 255 -162 245 -181 c 0
 235 -205 223 -222 209 -234 c 1
 192 -251 174 -260 153 -263 c 0
 104 -270 49 -274 -12 -274 c 1
 -12 -121 l 1
 22 -121 46 -118 58 -112 c 1
 71 -104 77 -90 77 -70 c 2
EndSplineSet
MinimumDistance: x2,-1 
EndChar
StartChar: k
Encoding: 107 107
OldEncoding: 107
Width: 685
Flags: HW
HStem: -1 21G<33.0146 214.945 457.895 675.985> 939 20G<33.0146 214.945>
VStem: 33 182<13 221 434 959>
Fore
33 959 m 1
 215 959 l 1
 215 434 l 1
 449 712 l 1
 660 712 l 1
 419 441 l 1
 676 -1 l 1
 458 -1 l 1
 292 304 l 1
 215 221 l 1
 215 -1 l 1
 33 -1 l 1
 33 959 l 1
EndSplineSet
MinimumDistance: x1,-1 
EndChar
StartChar: l
Encoding: 108 108
OldEncoding: 108
Width: 344
Flags: HW
HStem: -1 21G<67.3398 252.66> 939 20G<67.3398 252.66>
VStem: 67 185<13 959>
Fore
67 959 m 1
 252 959 l 1
 252 -1 l 1
 67 -1 l 1
 67 959 l 1
EndSplineSet
MinimumDistance: x1,-1 
EndChar
StartChar: m
Encoding: 109 109
OldEncoding: 109
Width: 1103
Flags: HW
HStem: 705 20G<12.085 194.015>
VStem: 12 182<27 461 619 717> 423 183<27 461> 834 185<27 509>
Fore
194 12 m 1
 12 12 l 1
 12 725 l 1
 194 725 l 1
 194 619 l 1
 224 661 255 691 287 708 c 1
 317 727 360 736 417 736 c 1
 460 732 492 722 512 708 c 0
 533 692 558 666 586 632 c 1
 608 666 635 693 666 714 c 1
 697 732 736 741 783 741 c 1
 836 736 l 1
 958 721 1019 644 1019 507 c 2
 1019 12 l 1
 834 12 l 1
 834 502 l 2
 834 547 803 573 741 579 c 1
 698 579 665 565 641 538 c 0
 618 507 606 478 606 449 c 2
 606 12 l 1
 423 12 l 1
 423 502 l 1
 412 551 378 577 322 579 c 0
 287 579 257 568 231 544 c 1
 206 524 194 492 194 449 c 2
 194 12 l 1
EndSplineSet
MinimumDistance: x12,-1 
EndChar
StartChar: n
Encoding: 110 110
OldEncoding: 110
Width: 758
Flags: HW
HStem: 589 148<353.805 397.875> 705 20G<37.4053 220.465>
VStem: 37 183<27 477 620 717> 488 185<27 477>
Fore
37 12 m 1
 37 725 l 1
 220 725 l 1
 220 619 l 1
 240 658 265 687 296 706 c 0
 327 726 361 737 398 737 c 0
 582 737 673 655 673 491 c 2
 673 12 l 1
 488 12 l 1
 488 450 l 2
 488 494 481 528 466 551 c 0
 449 576 412 589 354 589 c 1
 306 582 272 567 252 545 c 0
 231 521 220 496 220 468 c 2
 220 12 l 1
 37 12 l 1
EndSplineSet
MinimumDistance: x6,-1 
EndChar
StartChar: o
Encoding: 111 111
OldEncoding: 111
Width: 758
Flags: HW
HStem: -19 160<335 369> 581 157<335 369>
VStem: 1 185<348 382> 519 185<348 382>
Fore
352 -19 m 0
 252 -19 170 11 104 70 c 0
 73 99 48 142 29 197 c 0
 10 254 1 308 1 361 c 0
 1 421 10 476 29 528 c 1
 45 583 70 624 104 653 c 1
 166 710 249 738 352 738 c 0
 454 738 535 710 597 653 c 0
 633 620 660 578 679 528 c 1
 696 473 704 417 704 361 c 0
 704 308 696 253 679 197 c 0
 661 147 634 104 597 70 c 0
 534 11 452 -19 352 -19 c 0
352 581 m 0
 294 581 250 555 221 502 c 0
 198 459 186 412 186 361 c 0
 186 312 198 266 221 222 c 0
 250 169 294 141 352 141 c 0
 407 141 451 169 484 222 c 1
 507 273 519 319 519 361 c 0
 519 414 507 461 484 502 c 0
 455 555 411 581 352 581 c 0
EndSplineSet
MinimumDistance: x9,-1 
EndChar
StartChar: p
Encoding: 112 112
OldEncoding: 112
Width: 756
Flags: HW
HStem: -260 21G<29 210.93> -2 154<368 405.29> 592 162<368 400.77> 722 20G<29 210.93>
VStem: 29 182<-246 92 360 380 636 732> 522 185<360 380>
Fore
29 742 m 1
 211 742 l 1
 211 636 l 1
 248 679 l 2
 259 692 272 705 288 718 c 0
 301 729 317 737 334 744 c 0
 350 750 372 754 401 754 c 0
 482 754 549 725 602 667 c 0
 635 633 661 589 679 536 c 0
 698 478 707 420 707 362 c 0
 707 310 698 256 681 203 c 0
 665 152 641 110 610 78 c 0
 580 48 550 27 519 15 c 0
 494 4 456 -2 405 -2 c 0
 371 -2 345 3 325 13 c 1
 305 19 287 30 270 45 c 0
 259 52 240 72 211 104 c 1
 211 -260 l 1
 29 -260 l 1
 29 742 l 1
369 592 m 0
 315 592 272 565 241 510 c 1
 221 459 211 413 211 371 c 0
 211 330 221 284 241 232 c 1
 272 179 315 152 369 152 c 0
 421 152 462 179 491 232 c 1
 512 281 522 327 522 371 c 0
 522 416 512 462 491 510 c 1
 461 565 420 592 369 592 c 0
EndSplineSet
MinimumDistance: x9,-1 
EndChar
StartChar: q
Encoding: 113 113
OldEncoding: 113
Width: 761
Flags: HW
HStem: -260 21G<488.94 672> -2 141<296.84 334.13> 720 20G<488.94 672>
VStem: -6 185<346 380> 489 183<-246 92 346 380 636 732>
Fore
672 740 m 1
 672 -260 l 1
 489 -260 l 1
 489 104 l 1
 475 87 456 68 434 47 c 0
 419 32 399 21 376 13 c 1
 356 3 329 -2 297 -2 c 0
 245 -2 206 4 182 15 c 0
 148 29 118 50 91 78 c 0
 60 108 36 150 19 203 c 0
 2 256 -6 310 -6 362 c 0
 -6 423 3 480 21 533 c 0
 41 591 67 636 98 667 c 0
 121 692 148 713 182 731 c 0
 209 746 249 753 299 753 c 0
 353 751 392 740 418 721 c 1
 445 702 469 674 489 636 c 1
 489 740 l 1
 672 740 l 1
334 587 m 0
 281 587 240 560 211 506 c 1
 190 460 179 413 179 365 c 0
 179 314 190 266 211 221 c 0
 237 167 278 139 334 139 c 0
 388 139 428 167 456 221 c 0
 478 262 489 310 489 365 c 0
 489 420 478 467 456 506 c 1
 428 560 388 587 334 587 c 0
EndSplineSet
MinimumDistance: x0,-1 
EndChar
StartChar: r
Encoding: 114 114
OldEncoding: 114
Width: 478
Flags: HW
HStem: 705 20G<50.8604 233.92>
VStem: 51 183<27 415 589 717>
Fore
51 12 m 1
 51 725 l 1
 234 725 l 1
 234 589 l 1
 244 613 254 633 263 646 c 0
 275 661 295 679 323 699 c 0
 356 724 400 737 453 737 c 1
 453 549 l 1
 389 554 l 1
 347 554 313 544 289 524 c 0
 261 503 243 467 234 415 c 1
 234 12 l 1
 51 12 l 1
EndSplineSet
MinimumDistance: x2,-1 
EndChar
StartChar: s
Encoding: 115 115
OldEncoding: 115
Width: 689
Flags: HW
HStem: -16 139<308 338> 599 139<296 316>
VStem: 23 179<497.719 528.229> 447 179<497.759 518.886> 451 192<197.139 236.688>
Fore
-4 224 m 1
 179 224 l 1
 186 199 197 180 213 167 c 0
 226 154 242 144 261 137 c 0
 288 127 313 123 338 123 c 0
 410 121 448 145 451 197 c 0
 451 210 447 223 440 237 c 0
 433 248 421 255 405 257 c 1
 177 324 l 2
 116 341 76 365 56 396 c 0
 34 429 23 463 23 498 c 0
 23 575 52 637 109 685 c 1
 153 721 216 738 299 738 c 0
 391 740 464 724 519 688 c 0
 563 659 592 630 606 599 c 0
 619 569 626 535 626 498 c 1
 447 498 l 1
 447 523 443 543 435 555 c 1
 425 569 406 580 378 588 c 0
 351 596 329 599 310 599 c 0
 279 599 252 593 230 579 c 1
 211 570 202 553 202 528 c 0
 202 504 215 489 243 482 c 2
 509 410 l 2
 531 404 552 392 574 375 c 0
 596 357 614 337 626 315 c 0
 638 288 643 262 643 237 c 0
 643 192 632 148 608 104 c 0
 583 60 543 28 488 7 c 0
 472 2 444 -3 405 -9 c 0
 373 -14 342 -16 310 -16 c 0
 247 -14 194 -5 153 12 c 1
 53 56 0 127 -4 224 c 1
EndSplineSet
MinimumDistance: x26,-1 
EndChar
StartChar: t
Encoding: 116 116
OldEncoding: 116
Width: 413
Flags: HW
HStem: -26 144<280 299> 581 122<9 84 271 370>
VStem: 85 185<164 580 702 886>
Fore
-6 703 m 1
 85 703 l 1
 85 898 l 1
 270 898 l 1
 270 703 l 1
 372 703 l 1
 372 581 l 1
 270 581 l 1
 270 181 l 2
 270 138 280 118 301 118 c 2
 369 115 l 1
 369 -9 l 1
 336 -20 306 -26 281 -26 c 0
 248 -28 220 -25 197 -16 c 1
 133 2 96 46 85 115 c 1
 85 581 l 1
 -6 581 l 1
 -6 703 l 1
EndSplineSet
MinimumDistance: x5,-1 y1,3 y1,2 x4,6 x4,5 x1,16 x1,0 
EndChar
StartChar: u
Encoding: 117 117
OldEncoding: 117
Width: 759
Flags: HW
HStem: 708 20G<31.4053 213.335 482.275 667.595>
VStem: 31 182<264 721> 482 185<15 97 255 721>
Fore
667 728 m 1
 667 15 l 1
 482 15 l 1
 482 103 l 1
 454 59 428 31 405 17 c 0
 386 4 353 -7 306 -16 c 1
 254 -14 211 -8 177 1 c 0
 139 10 106 33 80 70 c 1
 48 110 31 164 31 233 c 2
 31 728 l 1
 213 728 l 1
 213 286 l 2
 213 242 221 209 237 186 c 0
 252 162 289 149 348 149 c 1
 398 156 432 170 450 191 c 1
 471 214 482 240 482 267 c 2
 482 728 l 1
 667 728 l 1
EndSplineSet
MinimumDistance: x0,-1 
EndChar
StartChar: v
Encoding: 118 118
OldEncoding: 118
Width: 689
Flags: HW
HStem: 706 20G<-23.585 170.775 470.225 664.585>
Fore
-24 726 m 1
 171 726 l 1
 319 203 l 1
 470 726 l 1
 665 726 l 1
 417 13 l 1
 222 13 l 1
 -24 726 l 1
EndSplineSet
EndChar
StartChar: w
Encoding: 119 119
OldEncoding: 119
Width: 964
Flags: HW
HStem: 706 20G<-51.6553 138.185 354.015 546.115 758.555 950.655>
DStem: 354.015 726.015 451.195 514.705 248.925 225.425 337.065 12.9854 451.195 514.705 546.115 726.015 561.935 12.9854 647.815 225.425
Fore
-52 726 m 1
 138 726 l 1
 249 225 l 1
 354 726 l 1
 546 726 l 1
 648 225 l 1
 759 726 l 1
 951 726 l 1
 752 13 l 1
 562 13 l 1
 451 515 l 1
 337 13 l 1
 147 13 l 1
 -52 726 l 1
EndSplineSet
MinimumDistance: x5,-1 
EndChar
StartChar: x
Encoding: 120 120
OldEncoding: 120
Width: 689
Flags: HW
HStem: 706 20G<-13.415 208.065 441.975 660.065>
Fore
-13 726 m 1
 208 726 l 1
 324 510 l 1
 442 726 l 1
 660 726 l 1
 428 369 l 1
 662 13 l 1
 442 13 l 1
 324 223 l 1
 199 13 l 1
 -21 13 l 1
 213 369 l 1
 -13 726 l 1
EndSplineSet
EndChar
StartChar: y
Encoding: 121 121
OldEncoding: 121
Width: 689
Flags: HW
HStem: 723 20G<-30.1055 173.295 477.265 667.105>
Fore
-30 743 m 1
 173 743 l 1
 329 224 l 1
 477 743 l 1
 667 743 l 1
 363 -118 l 1
 356 -147 339 -177 310 -209 c 0
 293 -228 258 -242 206 -248 c 0
 152 -256 106 -260 69 -260 c 1
 69 -109 l 1
 126 -109 164 -103 183 -90 c 1
 213 -74 228 -48 228 -12 c 0
 228 5 225 19 220 30 c 1
 -30 743 l 1
EndSplineSet
EndChar
StartChar: z
Encoding: 122 122
OldEncoding: 122
Width: 619
Flags: HW
HStem: 13 150<230 572> 576 150<22 328>
DStem: 342.63 575.725 569.76 575.725 -8.7998 163.275 219.46 163.275
Fore
16 726 m 1
 570 726 l 1
 570 576 l 1
 219 163 l 1
 579 163 l 1
 579 13 l 1
 -9 13 l 1
 -9 163 l 1
 343 576 l 1
 16 576 l 1
 16 726 l 1
EndSplineSet
MinimumDistance: x1,-1 
EndChar
StartChar: braceleft
Encoding: 123 123
OldEncoding: 123
Width: 483
Flags: HW
HStem: -253 130<325.489 390> 845 130<324 390>
VStem: 130 150<-62 230 482 795>
Fore
22 306 m 1
 22 429 l 1
 94 429 130 450 130 491 c 2
 130 794 l 2
 130 850 147 894 181 926 c 0
 216 958 248 975 278 975 c 2
 390 975 l 1
 390 845 l 1
 342 845 l 2
 314 845 297 839 291 829 c 0
 284 819 280 801 280 776 c 2
 280 495 l 2
 280 424 239 381 156 366 c 1
 187 362 217 351 244 334 c 1
 269 314 280 278 280 227 c 2
 280 -53 l 2
 280 -74 285 -91 293 -103 c 0
 300 -116 316 -123 342 -123 c 2
 390 -123 l 1
 390 -253 l 1
 278 -253 l 2
 250 -253 217 -236 181 -204 c 0
 147 -172 130 -128 130 -72 c 2
 130 229 l 2
 130 280 94 306 22 306 c 1
EndSplineSet
MinimumDistance: x10,-1 y0,1 x2,0 x2,1 
EndChar
StartChar: bar
Encoding: 124 124
OldEncoding: 124
Width: 346
Flags: HW
HStem: 955 20G<111.02 214.98>
VStem: 111 104<-238 964>
Fore
215 975 m 1
 215 -253 l 1
 111 -253 l 1
 111 975 l 1
 215 975 l 1
EndSplineSet
MinimumDistance: x0,-1 
EndChar
StartChar: braceright
Encoding: 125 125
OldEncoding: 125
Width: 478
Flags: HW
HStem: 306 123<413 431> 955 20G<62.8096 173.55>
VStem: 171 153<-74 244 482 795>
Fore
431 429 m 1
 431 306 l 1
 397 306 371 300 354 290 c 0
 334 278 324 257 324 229 c 2
 324 -72 l 2
 324 -129 306 -173 271 -204 c 0
 236 -236 204 -253 174 -253 c 2
 63 -253 l 1
 63 -123 l 1
 111 -123 l 2
 139 -123 155 -116 162 -103 c 0
 168 -94 171 -77 171 -53 c 2
 171 227 l 2
 171 312 214 359 299 368 c 1
 269 370 239 380 209 398 c 0
 184 413 171 446 171 495 c 2
 171 776 l 2
 171 801 168 819 162 829 c 0
 155 841 138 847 111 847 c 2
 63 847 l 1
 63 975 l 1
 174 975 l 2
 192 975 213 969 239 957 c 1
 261 941 281 920 299 893 c 1
 316 865 324 831 324 794 c 2
 324 493 l 2
 324 450 360 429 431 429 c 1
EndSplineSet
MinimumDistance: x0,-1 x25,1 x25,0 
EndChar
StartChar: asciitilde
Encoding: 126 126
OldEncoding: 126
Width: 723
Flags: HW
VStem: 537 102<381 399>
Fore
128 248 m 1
 35 248 l 1
 44 315 67 366 104 401 c 0
 136 429 168 443 199 443 c 0
 222 443 248 435 276 419 c 2
 409 343 l 2
 438 326 461 317 479 317 c 0
 518 317 537 345 537 401 c 1
 639 401 l 1
 639 376 635 350 627 324 c 0
 621 302 604 278 577 250 c 0
 549 221 520 206 488 206 c 0
 461 206 429 217 394 237 c 2
 248 315 l 2
 224 328 205 334 190 334 c 0
 168 334 154 325 146 308 c 0
 138 289 132 269 128 248 c 1
EndSplineSet
MinimumDistance: x8,-1 
EndChar
StartChar: uni0E10.descless
Encoding: 128 63232
OldEncoding: 63232
Width: 687
Flags: HW
HStem: -1 21G<407.385 553.155> 188 93<203 216.975> 403 97<204 216.985> 644 107<544 561.704> 705 99<269 303>
VStem: 49 95<333 351> 420 133<273 415>
Fore
407 -1 m 1
 401 37 384 87 359 149 c 1
 336 209 323 239 320 239 c 1
 313 230 301 219 285 207 c 1
 265 195 238 188 204 188 c 0
 154 188 116 204 91 235 c 1
 63 265 49 301 49 343 c 0
 49 387 63 423 91 452 c 0
 118 482 156 498 204 500 c 0
 248 500 284 492 310 476 c 0
 334 459 354 429 369 385 c 1
 401 316 l 1
 420 272 l 1
 420 381 l 2
 420 438 413 475 398 491 c 0
 384 507 351 522 299 535 c 0
 220 556 166 568 137 573 c 2
 14 591 l 1
 14 642 l 1
 51 692 91 732 135 763 c 0
 178 790 227 804 283 804 c 0
 334 804 384 796 433 778 c 1
 494 760 531 751 544 751 c 0
 570 751 599 758 632 772 c 1
 641 732 l 1
 648 709 653 686 655 665 c 1
 610 651 573 644 544 644 c 1
 489 648 l 1
 415 674 l 1
 338 697 l 2
 323 702 306 705 285 705 c 0
 265 705 245 700 225 690 c 0
 203 680 190 672 188 665 c 1
 281 652 l 1
 325 644 357 636 376 630 c 0
 453 610 502 582 524 547 c 0
 543 514 553 460 553 385 c 2
 553 -1 l 1
 407 -1 l 1
204 281 m 1
 224 281 238 287 248 299 c 0
 259 310 264 324 264 343 c 0
 264 361 259 375 248 385 c 0
 238 397 224 403 204 403 c 0
 184 403 170 397 160 385 c 0
 149 375 144 361 144 343 c 0
 144 329 149 315 160 301 c 1
 171 290 186 283 204 281 c 1
EndSplineSet
MinimumDistance: x36,-1 
EndChar
StartChar: uni0E34.left
Encoding: 129 63233
OldEncoding: 63233
Width: 0
Flags: HW
HStem: 915 97<-676 -621.598> 1084 93<-566.896 -540.683>
Fore
-541 1177 m 0
 -486 1177 -438 1161 -395 1130 c 1
 -357 1105 -329 1075 -311 1040 c 0
 -289 997 -275 960 -269 929 c 1
 -251 841 l 1
 -358 873 l 1
 -413 886 -469 897 -526 905 c 0
 -564 912 -614 915 -677 915 c 1
 -795 911 l 1
 -872 903 l 1
 -860 982 -823 1047 -762 1097 c 1
 -701 1152 -627 1179 -541 1177 c 0
-541 1084 m 1
 -584 1084 -620 1076 -651 1061 c 0
 -685 1044 -705 1026 -711 1008 c 1
 -675 1012 l 1
 -619 1012 l 1
 -538 1008 l 1
 -495 1003 -458 996 -426 989 c 1
 -373 968 l 1
 -407 1036 -462 1075 -541 1084 c 1
EndSplineSet
EndChar
StartChar: uni0E35.left
Encoding: 130 63234
OldEncoding: 63234
Width: 0
Flags: HW
VStem: -400 123<1121 1252>
DStem: -627.435 1011.91 -627.435 1011.91 -696.365 1009.64 -557.375 1007.38
Fore
-560 1176 m 0
 -525 1176 -490 1168 -456 1153 c 1
 -430 1140 -412 1129 -400 1120 c 1
 -400 1259 l 1
 -277 1259 l 1
 -277 940 l 1
 -274 940 -266 905 -252 836 c 1
 -377 873 l 2
 -418 884 -475 895 -546 906 c 0
 -585 912 -636 915 -699 915 c 2
 -785 912 l 1
 -851 908 l 1
 -891 902 l 1
 -885 947 -866 993 -835 1039 c 0
 -807 1080 -768 1114 -719 1138 c 0
 -666 1166 -613 1178 -560 1176 c 0
-562 1083 m 1
 -603 1083 -638 1076 -668 1060 c 0
 -704 1043 -725 1025 -731 1005 c 1
 -696 1010 l 1
 -627 1012 l 1
 -557 1007 l 2
 -522 1004 -486 997 -449 988 c 1
 -394 968 l 1
 -407 997 -426 1022 -451 1041 c 0
 -475 1062 -512 1076 -562 1083 c 1
EndSplineSet
MinimumDistance: x4,-1 
EndChar
StartChar: uni0E36.left
Encoding: 131 63235
OldEncoding: 63235
Width: 0
Flags: HW
HStem: 914 97<-695 -638.127> 1182 90<-394 -376>
Fore
-250 1157 m 1
 -250 1088 -271 1043 -312 1022 c 1
 -294 987 -283 964 -280 953 c 0
 -268 922 -258 882 -250 835 c 1
 -375 872 l 2
 -416 883 -473 894 -544 905 c 0
 -583 911 -634 914 -697 914 c 2
 -783 912 l 1
 -849 907 l 1
 -889 902 l 1
 -883 947 -864 992 -833 1038 c 0
 -805 1080 -766 1113 -717 1138 c 0
 -669 1163 -616 1175 -558 1175 c 1
 -531 1173 l 1
 -511 1168 l 1
 -509 1189 -497 1211 -476 1235 c 0
 -457 1260 -425 1272 -381 1272 c 0
 -345 1272 -315 1262 -292 1241 c 0
 -271 1219 -257 1192 -250 1157 c 1
-560 1082 m 1
 -601 1082 -636 1075 -666 1060 c 0
 -702 1042 -723 1025 -729 1007 c 1
 -694 1011 l 1
 -637 1011 l 1
 -555 1007 l 1
 -520 1003 -484 996 -447 987 c 1
 -392 967 l 1
 -405 996 -424 1021 -449 1040 c 0
 -473 1062 -510 1076 -560 1082 c 1
-385 1102 m 0
 -373 1102 -363 1106 -356 1115 c 0
 -349 1123 -345 1132 -345 1142 c 0
 -345 1152 -349 1161 -356 1168 c 0
 -363 1177 -373 1182 -385 1182 c 0
 -410 1182 -423 1169 -423 1142 c 0
 -423 1115 -410 1102 -385 1102 c 0
EndSplineSet
EndChar
StartChar: uni0E37.left
Encoding: 132 63236
OldEncoding: 63236
Width: 0
Flags: HW
VStem: -379 116<1120 1252>
DStem: -612.435 1011.91 -612.435 1011.91 -681.365 1009.64 -542.375 1007.38
Fore
-379 1116 m 1
 -379 1259 l 1
 -263 1259 l 1
 -263 940 l 1
 -260 940 -251 905 -237 836 c 1
 -362 873 l 2
 -403 884 -460 895 -531 906 c 0
 -570 912 -621 915 -684 915 c 2
 -770 912 l 1
 -836 908 l 1
 -876 902 l 1
 -848 1014 -802 1087 -739 1123 c 0
 -676 1158 -610 1176 -540 1176 c 1
 -540 1259 l 1
 -432 1259 l 1
 -432 1149 l 1
 -428 1149 -410 1138 -379 1116 c 1
-547 1083 m 1
 -588 1083 -623 1076 -653 1060 c 0
 -689 1043 -710 1025 -716 1005 c 1
 -681 1010 l 1
 -612 1012 l 1
 -542 1007 l 2
 -507 1004 -471 997 -434 988 c 1
 -379 968 l 1
 -392 997 -411 1022 -436 1041 c 0
 -460 1062 -497 1076 -547 1083 c 1
EndSplineSet
MinimumDistance: x2,-1 
EndChar
StartChar: ellipsis
Encoding: 133 8230
OldEncoding: 8230
Width: 1076
Flags: HW
VStem: 79 216<54 72> 414 216<59 72> 752 216<59 63>
Fore
630 64 m 4
 630 14 596 -15 526 -24 c 5
 459 -24 421 4 414 61 c 5
 414 122 451 153 524 153 c 4
 556 153 582 144 602 126 c 4
 621 110 630 90 630 64 c 4
968 64 m 5
 968 14 933 -15 862 -24 c 5
 796 -24 759 4 752 61 c 5
 752 122 788 153 860 153 c 4
 891 153 917 144 940 126 c 5
 956 110 966 90 968 64 c 5
295 64 m 4
 295 5 259 -24 186 -24 c 4
 115 -24 79 5 79 64 c 4
 79 123 115 153 186 153 c 4
 259 153 295 123 295 64 c 4
EndSplineSet
MinimumDistance: x5,-1 
EndChar
StartChar: uni0E48.low_left
Encoding: 134 63237
OldEncoding: 63237
Width: 0
Flags: HW
VStem: -430 134<862 1200>
Fore
-430 848 m 1
 -430 1200 l 1
 -296 1200 l 1
 -296 848 l 1
 -430 848 l 1
EndSplineSet
MinimumDistance: x2,-1 
EndChar
StartChar: uni0E49.low_left
Encoding: 135 63238
OldEncoding: 63238
Width: 0
Flags: HW
HStem: 1131 97<-645 -630>
VStem: -774 95<1085 1094> -590 107<1074 1094>
Fore
-483 1076 m 0
 -485 1038 -492 1007 -502 981 c 1
 -514 959 -522 947 -527 946 c 2
 -500 951 l 1
 -463 965 l 2
 -444 973 -428 982 -416 990 c 0
 -398 1004 -386 1018 -379 1030 c 0
 -353 1084 -339 1129 -339 1166 c 1
 -342 1219 l 1
 -211 1219 l 1
 -211 1048 -266 937 -377 884 c 0
 -442 853 -516 838 -597 838 c 1
 -661 840 l 1
 -680 842 -692 844 -699 847 c 1
 -699 893 l 1
 -688 897 -678 904 -668 914 c 1
 -655 925 -648 935 -646 946 c 1
 -690 958 l 2
 -712 964 -732 981 -750 1007 c 0
 -766 1030 -774 1058 -774 1090 c 0
 -774 1129 -762 1161 -736 1187 c 0
 -710 1215 -676 1228 -633 1228 c 0
 -598 1228 -570 1221 -551 1206 c 0
 -527 1189 -510 1169 -500 1145 c 1
 -489 1125 -483 1102 -483 1076 c 0
-633 1041 m 0
 -619 1041 -608 1046 -602 1056 c 0
 -594 1065 -590 1076 -590 1087 c 0
 -590 1098 -594 1108 -602 1118 c 0
 -608 1127 -619 1131 -633 1131 c 0
 -648 1131 -659 1127 -666 1118 c 1
 -675 1109 -679 1099 -679 1087 c 0
 -679 1077 -675 1067 -666 1056 c 0
 -659 1046 -648 1041 -633 1041 c 0
EndSplineSet
MinimumDistance: x0,-1 
EndChar
StartChar: uni0E4A.low_left
Encoding: 136 63239
OldEncoding: 63239
Width: 0
Flags: HW
HStem: 833 71<-671 -667> 1078 86<-670 -646.976>
VStem: -642 77<924 945>
Fore
-670 833 m 0
 -711 835 -743 853 -767 886 c 0
 -795 924 -809 966 -806 1011 c 0
 -806 1050 -793 1086 -767 1120 c 0
 -744 1149 -712 1164 -670 1164 c 0
 -639 1164 -617 1158 -605 1147 c 1
 -587 1134 -577 1126 -575 1122 c 1
 -545 1147 l 2
 -530 1158 -510 1164 -484 1164 c 0
 -443 1164 -412 1151 -393 1126 c 0
 -372 1102 -362 1068 -362 1025 c 0
 -362 987 -371 952 -389 921 c 1
 -384 922 -375 928 -362 939 c 0
 -348 950 -337 963 -329 976 c 0
 -313 1011 -305 1043 -305 1073 c 0
 -305 1094 -307 1115 -311 1136 c 1
 -219 1168 l 1
 -213 1156 -210 1134 -210 1100 c 0
 -210 1034 -226 978 -258 932 c 1
 -280 898 -312 875 -353 863 c 0
 -389 852 -438 846 -499 846 c 1
 -501 865 l 1
 -503 884 l 1
 -490 897 -480 910 -473 921 c 0
 -461 940 -455 965 -455 994 c 0
 -453 1047 -470 1073 -506 1073 c 0
 -519 1073 -532 1070 -543 1062 c 0
 -548 1059 -555 1053 -565 1043 c 1
 -573 1050 -583 1058 -596 1064 c 0
 -610 1073 -627 1078 -647 1078 c 0
 -683 1078 -702 1061 -705 1027 c 1
 -687 1032 l 1
 -656 1036 l 1
 -624 1034 -602 1024 -589 1007 c 0
 -574 986 -565 959 -565 925 c 0
 -565 900 -576 878 -596 860 c 0
 -616 842 -641 833 -670 833 c 0
-672 967 m 0
 -694 967 -705 957 -705 937 c 0
 -705 929 -702 922 -696 916 c 0
 -689 908 -681 904 -672 904 c 0
 -663 904 -655 907 -649 914 c 0
 -645 921 -642 928 -642 937 c 0
 -642 943 -645 951 -649 958 c 1
 -655 964 -663 967 -672 967 c 0
EndSplineSet
MinimumDistance: x27,-1 
EndChar
StartChar: uni0E4B.low_left
Encoding: 137 63240
OldEncoding: 63240
Width: 0
Flags: HW
HStem: 978 123<-624 -506 -378 -254>
VStem: -505 128<860 977 1101 1230>
Fore
-505 978 m 1
 -639 978 l 1
 -639 1101 l 1
 -505 1101 l 1
 -505 1232 l 1
 -377 1232 l 1
 -377 1101 l 1
 -243 1101 l 1
 -243 978 l 1
 -377 978 l 1
 -377 846 l 1
 -505 846 l 1
 -505 978 l 1
EndSplineSet
MinimumDistance: x7,-1 y3,5 y3,4 y0,10 y0,11 x6,8 x6,7 x0,2 x0,1 
EndChar
StartChar: uni0E4C.low_left
Encoding: 138 63241
OldEncoding: 63241
Width: 0
Flags: HW
HStem: 841 93<-435.953 -419.017 -419 -415>
VStem: -596 124<976 1008.21> -382 97<967.539 977.692 977.74 988>
Fore
-214 1130 m 0
 -280 1120 -347 1114 -417 1114 c 0
 -377 1114 -346 1102 -324 1077 c 1
 -298 1052 -285 1022 -285 987 c 0
 -283 949 -294 915 -320 885 c 0
 -344 856 -377 841 -419 841 c 0
 -471 839 -514 853 -548 885 c 0
 -580 915 -596 956 -596 1008 c 0
 -594 1096 -558 1158 -488 1194 c 1
 -456 1208 -411 1216 -356 1218 c 0
 -298 1223 -258 1230 -236 1240 c 0
 -213 1249 -201 1273 -201 1311 c 1
 -86 1311 l 1
 -86 1263 -95 1224 -115 1194 c 0
 -137 1160 -170 1139 -214 1130 c 0
-426 1022 m 0
 -439 1022 -450 1018 -460 1010 c 1
 -468 1001 -472 990 -472 978 c 0
 -472 968 -468 958 -460 948 c 0
 -451 939 -439 934 -426 934 c 0
 -411 934 -400 939 -393 948 c 1
 -385 956 -382 966 -382 978 c 0
 -382 1007 -396 1022 -426 1022 c 0
EndSplineSet
MinimumDistance: x3,-1 
EndChar
StartChar: uni0E48.low
Encoding: 139 63242
OldEncoding: 63242
Width: 0
Flags: HW
VStem: -245 134<862 1200>
Fore
-245 848 m 5
 -245 1200 l 5
 -111 1200 l 5
 -111 848 l 5
 -245 848 l 5
EndSplineSet
MinimumDistance: x2,-1 
EndChar
StartChar: uni0E49.low
Encoding: 140 63243
OldEncoding: 63243
Width: 0
Flags: HW
HStem: 1131 97<-358 -341>
VStem: -485 93<1085 1094> -300 104<1074 1094>
Fore
-196 1076 m 4
 -198 1028 -205 995 -215 979 c 5
 -225 958 -233 947 -238 946 c 5
 -231 946 -219 949 -201 956 c 5
 -179 961 -159 969 -141 979 c 4
 -123 989 -106 1006 -90 1030 c 5
 -63 1081 -50 1128 -50 1171 c 5
 -53 1219 l 5
 76 1219 l 5
 76 1048 21 937 -90 884 c 4
 -153 853 -226 838 -308 838 c 5
 -372 840 l 5
 -390 842 -403 844 -410 847 c 5
 -410 893 l 5
 -399 897 -389 904 -379 914 c 5
 -366 925 -359 935 -356 946 c 5
 -403 958 l 6
 -425 964 -445 981 -463 1007 c 4
 -478 1030 -485 1058 -485 1090 c 4
 -485 1126 -472 1159 -446 1187 c 4
 -421 1215 -387 1228 -344 1228 c 4
 -296 1228 -259 1212 -233 1180 c 4
 -208 1151 -196 1116 -196 1076 c 4
-346 1041 m 4
 -333 1041 -321 1046 -312 1056 c 5
 -304 1069 -300 1080 -300 1087 c 4
 -300 1096 -304 1106 -312 1118 c 5
 -321 1127 -333 1131 -346 1131 c 4
 -361 1131 -372 1127 -379 1118 c 5
 -388 1109 -392 1099 -392 1087 c 4
 -392 1077 -388 1067 -379 1056 c 4
 -372 1046 -361 1041 -346 1041 c 4
EndSplineSet
MinimumDistance: x0,-1 
EndChar
StartChar: uni0E4A.low
Encoding: 141 63244
OldEncoding: 63244
Width: 0
Flags: HW
HStem: 837 81<-504 -486> 1101 94<-504 -478.471>
VStem: -457 67<935 954> -269 102<1009 1042.6>
Fore
-503 837 m 0
 -549 837 -584 857 -611 897 c 0
 -640 940 -654 984 -651 1029 c 0
 -651 1073 -638 1112 -611 1147 c 0
 -585 1179 -549 1195 -503 1195 c 0
 -488 1195 -472 1193 -457 1188 c 1
 -428 1175 l 1
 -408 1161 l 1
 -399 1150 l 1
 -392 1157 -380 1167 -364 1177 c 0
 -348 1189 -327 1195 -302 1195 c 0
 -262 1195 -228 1182 -200 1157 c 1
 -179 1127 -167 1089 -167 1043 c 0
 -167 1005 -179 967 -200 930 c 1
 -170 948 l 1
 -155 961 -143 975 -134 989 c 0
 -113 1020 -103 1059 -103 1106 c 0
 -103 1132 -108 1157 -117 1182 c 1
 -11 1203 l 1
 -5 1184 -2 1160 -2 1131 c 0
 -2 1055 -20 991 -57 941 c 0
 -84 902 -118 878 -159 867 c 0
 -204 855 -257 848 -318 848 c 1
 -318 865 l 1
 -321 890 l 1
 -312 898 -302 912 -291 932 c 0
 -277 954 -269 980 -269 1011 c 0
 -269 1069 -288 1098 -326 1098 c 0
 -344 1098 -360 1093 -375 1084 c 0
 -386 1078 -395 1071 -402 1064 c 1
 -402 1064 l 1
 -402 1066 -405 1069 -411 1075 c 1
 -439 1093 l 1
 -452 1099 -466 1101 -478 1101 c 0
 -519 1101 -541 1083 -543 1047 c 1
 -523 1055 l 1
 -488 1060 l 1
 -457 1057 -433 1046 -416 1025 c 0
 -399 1000 -390 971 -390 936 c 0
 -390 911 -401 888 -423 867 c 0
 -443 847 -469 837 -503 837 c 0
-492 985 m 0
 -515 985 -527 974 -527 952 c 0
 -527 930 -515 918 -492 918 c 0
 -469 918 -457 930 -457 952 c 0
 -457 962 -460 970 -465 976 c 0
 -471 982 -480 985 -492 985 c 0
EndSplineSet
MinimumDistance: x12,-1 
EndChar
StartChar: uni0E4B.low
Encoding: 142 63245
OldEncoding: 63245
Width: 0
Flags: HW
HStem: 978 123<-366 -246 -120 4>
VStem: -245 125<860 977 1101 1230>
Fore
-245 978 m 1
 -381 978 l 1
 -381 1101 l 1
 -245 1101 l 1
 -245 1232 l 1
 -120 1232 l 1
 -120 1101 l 1
 15 1101 l 1
 15 978 l 1
 -120 978 l 1
 -120 846 l 5
 -245 846 l 1
 -245 978 l 1
EndSplineSet
MinimumDistance: y3,5 y3,4 y0,10 y0,11 x6,8 x6,7 x0,2 x0,1 
EndChar
StartChar: uni0E4C.low
Encoding: 143 63246
OldEncoding: 63246
Width: 0
Flags: HW
HStem: 843 90<-268 -255>
VStem: -222 97<969.912 979.807 979.83 988>
Fore
-55 1130 m 0
 -79 1126 -115 1122 -164 1119 c 2
 -257 1114 l 1
 -217 1114 -186 1102 -164 1077 c 1
 -138 1054 -125 1024 -125 987 c 1
 -123 949 -134 915 -159 885 c 0
 -185 857 -218 843 -259 843 c 0
 -315 843 -359 859 -391 889 c 1
 -424 923 -440 963 -437 1008 c 0
 -437 1046 -427 1084 -407 1121 c 0
 -391 1151 -365 1175 -328 1193 c 0
 -298 1207 -255 1216 -197 1221 c 0
 -142 1223 -101 1229 -74 1240 c 0
 -52 1247 -41 1271 -41 1311 c 1
 74 1311 l 1
 74 1208 31 1147 -55 1130 c 0
-266 1024 m 0
 -280 1024 -292 1019 -301 1010 c 0
 -308 1001 -312 990 -312 980 c 0
 -312 972 -308 961 -301 948 c 0
 -294 938 -282 933 -266 933 c 0
 -251 933 -240 938 -233 948 c 0
 -225 958 -222 969 -222 980 c 0
 -222 992 -225 1003 -233 1013 c 1
 -244 1020 -255 1024 -266 1024 c 0
EndSplineSet
MinimumDistance: x4,-1 
EndChar
StartChar: uni0E0D.descless
Encoding: 144 63247
OldEncoding: 63247
Width: 1044
Flags: HW
HStem: -14 85<208 230> -1 120<430 498 632 752> 196 86<209 230> 766 20G<800.35 934.82>
VStem: 69 85<128 138> 282 84<128 149> 500 133<119 591> 800 134<160 783>
Fore
934 786 m 1
 934 150 l 2
 934 109 928 77 916 53 c 0
 904 31 885 18 858 11 c 0
 830 3 792 -1 745 -1 c 2
 423 -1 l 1
 423 119 l 1
 500 119 l 1
 500 592 l 2
 500 628 485 657 456 677 c 0
 426 697 386 708 335 710 c 0
 311 710 281 705 244 693 c 0
 203 681 175 665 160 645 c 1
 181 641 204 635 229 627 c 0
 262 617 291 602 317 583 c 1
 317 518 l 1
 291 518 266 510 242 494 c 0
 218 479 206 445 206 390 c 2
 206 280 l 1
 210 282 l 1
 217 282 l 2
 249 282 276 275 298 260 c 0
 321 245 338 227 348 205 c 0
 360 185 366 161 366 134 c 0
 366 108 360 83 348 62 c 0
 337 39 320 21 298 6 c 0
 275 -7 248 -14 217 -14 c 0
 169 -14 133 1 109 30 c 1
 82 58 69 93 69 136 c 2
 69 381 l 2
 69 427 75 462 85 485 c 0
 96 512 116 534 143 552 c 1
 129 559 111 565 87 571 c 0
 56 580 26 586 -1 587 c 1
 -1 631 l 1
 16 658 55 694 116 740 c 0
 175 783 259 805 368 805 c 0
 422 805 465 797 498 781 c 0
 535 764 562 745 578 724 c 0
 599 698 613 673 620 647 c 0
 629 620 633 595 633 571 c 2
 633 119 l 1
 745 119 l 2
 769 119 785 123 794 132 c 1
 798 138 800 157 800 187 c 2
 800 786 l 1
 934 786 l 1
220 71 m 0
 230 71 242 74 255 81 c 1
 264 88 271 96 275 103 c 0
 279 112 282 123 282 134 c 0
 282 154 276 170 266 180 c 0
 255 191 240 196 220 196 c 0
 201 196 185 190 173 178 c 0
 160 164 154 149 154 134 c 0
 154 119 160 105 173 92 c 0
 185 78 201 71 220 71 c 0
EndSplineSet
MinimumDistance: x0,-1 y5,7 x7,5 x7,6 
EndChar
StartChar: quoteleft
Encoding: 145 8216
OldEncoding: 8216
Width: 291
Flags: HW
Fore
33 787 m 4
 30 851 52 902 97 942 c 5
 141 984 185 1007 227 1012 c 5
 243 979 l 5
 209 961 186 946 174 935 c 5
 155 921 143 898 139 868 c 5
 164 868 188 861 211 847 c 4
 233 834 245 808 248 769 c 5
 248 744 240 720 222 696 c 5
 207 678 184 669 156 669 c 4
 114 669 84 680 65 701 c 5
 44 723 33 751 33 787 c 4
EndSplineSet
EndChar
StartChar: quoteright
Encoding: 146 8217
OldEncoding: 8217
Width: 290
Flags: HW
Fore
254 880 m 4
 268 818 256 763 218 716 c 5
 182 667 143 636 103 624 c 5
 81 653 l 5
 111 677 131 696 141 708 c 4
 157 726 165 750 164 781 c 5
 139 776 114 779 89 789 c 4
 65 798 48 821 38 859 c 4
 34 883 38 908 51 934 c 4
 63 956 83 968 112 973 c 4
 153 980 184 976 206 958 c 5
 231 941 247 915 254 880 c 4
EndSplineSet
EndChar
StartChar: quotedblleft
Encoding: 147 8220
OldEncoding: 8220
Width: 587
Flags: HW
Fore
31 783 m 4
 27 845 48 897 93 939 c 5
 136 982 178 1006 220 1011 c 5
 237 980 l 5
 205 961 182 946 168 935 c 4
 150 920 139 897 136 866 c 5
 161 866 185 860 208 848 c 4
 231 835 243 808 246 768 c 4
 247 742 239 718 222 697 c 4
 207 678 185 668 156 668 c 4
 115 666 85 677 65 698 c 4
 43 720 31 748 31 783 c 4
309 790 m 4
 305 852 326 904 371 946 c 5
 412 988 454 1012 497 1017 c 5
 515 987 l 5
 483 968 460 952 446 940 c 4
 429 926 418 903 413 872 c 5
 437 872 462 866 485 853 c 4
 508 840 521 814 524 775 c 4
 525 748 517 724 500 703 c 4
 485 684 463 674 434 674 c 4
 392 673 361 683 342 704 c 5
 321 724 309 753 309 790 c 4
EndSplineSet
EndChar
StartChar: quotedblright
Encoding: 148 8221
OldEncoding: 8221
Width: 588
Flags: HW
Fore
520 857 m 4
 523 795 501 744 455 702 c 4
 411 661 368 638 325 633 c 5
 309 665 l 5
 341 683 365 698 379 709 c 4
 397 724 409 747 413 777 c 5
 388 777 364 784 342 797 c 4
 319 810 307 836 305 876 c 4
 305 903 313 926 331 947 c 4
 346 966 369 976 397 976 c 4
 438 976 468 965 488 943 c 5
 509 921 520 892 520 857 c 4
242 857 m 4
 245 795 223 744 177 702 c 5
 134 661 91 638 48 633 c 5
 31 665 l 5
 63 683 87 698 101 709 c 4
 118 723 130 746 136 777 c 5
 112 777 88 784 64 797 c 4
 41 811 29 837 27 876 c 4
 27 903 35 926 53 947 c 4
 68 966 91 976 119 976 c 4
 161 976 192 965 210 943 c 5
 231 923 242 894 242 857 c 4
EndSplineSet
EndChar
StartChar: bullet
Encoding: 149 8226
OldEncoding: 8226
Width: 370
Flags: HW
Fore
174 205 m 0
 113 205 64 225 28 265 c 0
 -6 304 -23 349 -23 402 c 0
 -23 437 -15 469 -0 497 c 0
 18 529 41 554 68 572 c 0
 97 590 133 599 174 599 c 0
 217 599 253 590 282 572 c 0
 311 553 334 529 350 499 c 1
 364 470 371 437 371 402 c 0
 371 348 354 301 320 263 c 0
 286 225 237 205 174 205 c 0
EndSplineSet
EndChar
StartChar: endash
Encoding: 150 8211
OldEncoding: 8211
Width: 1090
Flags: HW
HStem: 343 67<-52 1086>
Fore
-67 410 m 1
 1091 410 l 1
 1091 343 l 1
 -67 343 l 1
 -67 410 l 1
EndSplineSet
EndChar
StartChar: emdash
Encoding: 151 8212
OldEncoding: 8212
Width: 2183
Flags: HW
HStem: 343 67<-119 2171>
Fore
-133 410 m 1
 2183 410 l 1
 2183 343 l 1
 -133 343 l 1
 -133 410 l 1
EndSplineSet
EndChar
StartChar: uni0E31.left
Encoding: 152 63248
OldEncoding: 63248
Width: 0
Flags: HW
HStem: 1088 93<-494 -476>
VStem: -637 97<1029 1039> -429 88<1021 1039>
Fore
-484 1181 m 0
 -438 1181 -403 1166 -378 1138 c 0
 -353 1110 -341 1074 -341 1030 c 0
 -341 1014 -343 999 -347 986 c 0
 -352 975 -356 965 -361 959 c 1
 -304 959 -251 972 -202 999 c 0
 -153 1026 -111 1079 -76 1160 c 1
 35 1118 l 1
 22 1065 -5 1017 -44 975 c 0
 -88 929 -133 897 -179 880 c 0
 -233 858 -290 847 -350 847 c 1
 -398 849 l 1
 -458 855 -514 874 -568 907 c 1
 -616 938 -639 979 -637 1030 c 0
 -637 1071 -623 1107 -595 1138 c 0
 -570 1166 -533 1181 -484 1181 c 0
-484 977 m 0
 -464 977 -451 982 -442 993 c 0
 -433 1005 -429 1018 -429 1032 c 0
 -429 1047 -433 1060 -442 1072 c 0
 -451 1082 -464 1088 -484 1088 c 0
 -504 1088 -518 1082 -526 1072 c 0
 -535 1060 -540 1047 -540 1032 c 0
 -540 1018 -535 1005 -526 993 c 0
 -518 982 -504 977 -484 977 c 0
EndSplineSet
MinimumDistance: x2,-1 
EndChar
StartChar: uni0E4D.left
Encoding: 153 63249
OldEncoding: 63249
Width: 0
Flags: HW
HStem: 903 95<-455.686 -442> 1121 95<-456.824 -442>
VStem: -602 97<1048.17 1063> -384 95<1048.17 1063>
Fore
-444 1216 m 4
 -395 1216 -356 1201 -329 1170 c 4
 -302 1141 -289 1105 -289 1061 c 4
 -289 1019 -303 982 -331 949 c 5
 -360 918 -398 903 -444 903 c 4
 -492 903 -531 918 -560 949 c 5
 -588 983 -602 1021 -602 1061 c 4
 -602 1102 -588 1138 -560 1170 c 4
 -533 1201 -494 1216 -444 1216 c 4
-444 998 m 4
 -426 998 -412 1004 -401 1017 c 4
 -390 1028 -384 1042 -384 1061 c 4
 -384 1078 -390 1091 -401 1102 c 4
 -412 1115 -426 1121 -444 1121 c 4
 -463 1121 -477 1115 -488 1104 c 4
 -499 1094 -505 1079 -505 1061 c 4
 -505 1042 -499 1028 -488 1017 c 4
 -477 1004 -462 998 -444 998 c 4
EndSplineSet
MinimumDistance: x2,-1 
EndChar
StartChar: uni0E47.left
Encoding: 154 63250
OldEncoding: 63250
Width: 0
Flags: HW
HStem: 842 84<-367 -358> 954 104<-590 -574> 998 82<-367 -354>
VStem: -791 114<1007.24 1043.4> -328 84<953 965>
Fore
-365 842 m 0
 -388 842 -408 848 -425 859 c 1
 -441 867 -461 881 -485 900 c 0
 -513 922 -531 935 -539 939 c 0
 -554 949 -570 954 -587 954 c 0
 -602 954 -615 942 -626 917 c 0
 -637 893 -643 867 -643 838 c 1
 -672 838 l 1
 -704 855 -731 884 -754 924 c 1
 -778 961 -791 1001 -791 1043 c 0
 -791 1066 -788 1085 -782 1100 c 0
 -765 1139 -743 1165 -716 1178 c 0
 -690 1192 -651 1199 -599 1199 c 2
 -541 1197 l 1
 -442 1193 l 1
 -399 1193 -369 1199 -354 1213 c 1
 -335 1224 -325 1251 -325 1294 c 1
 -219 1294 l 1
 -219 1225 -237 1176 -272 1146 c 0
 -308 1115 -366 1100 -446 1100 c 1
 -543 1104 l 1
 -591 1104 -626 1098 -647 1085 c 0
 -667 1075 -677 1049 -677 1007 c 1
 -675 1017 -665 1028 -650 1039 c 0
 -632 1052 -607 1058 -575 1058 c 0
 -545 1058 -523 1052 -508 1041 c 2
 -473 1014 l 1
 -458 1058 -421 1080 -365 1080 c 0
 -326 1080 -296 1070 -274 1049 c 0
 -254 1028 -244 999 -244 963 c 0
 -244 928 -255 899 -277 877 c 0
 -299 854 -328 842 -365 842 c 0
-365 926 m 0
 -354 926 -344 930 -337 937 c 0
 -331 943 -328 952 -328 963 c 0
 -328 974 -331 982 -337 988 c 0
 -343 995 -353 998 -365 998 c 0
 -373 998 -381 994 -390 986 c 0
 -397 980 -400 972 -400 963 c 0
 -400 952 -397 943 -390 937 c 0
 -382 930 -374 926 -365 926 c 0
EndSplineSet
MinimumDistance: x29,-1 
EndChar
StartChar: uni0E48.left
Encoding: 155 63251
OldEncoding: 63251
Width: 0
Flags: HW
VStem: -396 123<1312 1554>
Fore
-396 1297 m 1
 -396 1568 l 1
 -273 1568 l 1
 -273 1297 l 5
 -396 1297 l 1
EndSplineSet
MinimumDistance: x2,-1 
EndChar
StartChar: uni0E49.left
Encoding: 156 63252
OldEncoding: 63252
Width: 0
Flags: HW
HStem: 1517 80<-491 -470>
VStem: -598 78<1469 1488> -441 88<1468 1481>
Fore
-353 1468 m 4
 -355 1428 -361 1401 -370 1387 c 5
 -378 1369 -384 1359 -388 1356 c 5
 -358 1364 l 6
 -342 1369 -325 1376 -307 1387 c 4
 -292 1396 -277 1410 -263 1429 c 5
 -248 1453 -240 1476 -238 1498 c 5
 -233 1520 -231 1550 -231 1588 c 5
 -125 1588 l 5
 -125 1440 -170 1346 -260 1303 c 4
 -318 1277 -379 1264 -443 1264 c 4
 -454 1264 -472 1266 -499 1269 c 6
 -534 1274 l 5
 -534 1312 l 5
 -509 1329 l 5
 -498 1335 -492 1344 -490 1356 c 5
 -527 1367 l 6
 -550 1374 -567 1388 -578 1407 c 4
 -591 1429 -598 1453 -598 1480 c 4
 -598 1512 -587 1540 -564 1563 c 4
 -542 1586 -514 1597 -478 1597 c 4
 -438 1597 -407 1584 -386 1559 c 5
 -364 1529 -353 1498 -353 1468 c 4
-481 1438 m 4
 -454 1438 -441 1451 -441 1477 c 4
 -441 1489 -444 1498 -450 1505 c 4
 -457 1513 -467 1517 -481 1517 c 4
 -493 1517 -503 1513 -511 1505 c 4
 -517 1498 -520 1489 -520 1477 c 4
 -520 1468 -516 1459 -509 1449 c 5
 -500 1442 -491 1438 -481 1438 c 4
EndSplineSet
MinimumDistance: x0,-1 
EndChar
StartChar: uni0E4A.left
Encoding: 157 63253
OldEncoding: 63253
Width: 0
Flags: HW
HStem: 1248 69<-587 -583> 1480 81<-586 -564.08 -430.74 -411.53>
VStem: -557 71<1337 1353> -382 88<1401 1431.86>
Fore
-586 1248 m 4
 -624 1250 -656 1268 -680 1301 c 4
 -705 1332 -718 1371 -718 1416 c 5
 -713 1458 -700 1493 -678 1520 c 4
 -657 1548 -626 1561 -586 1561 c 4
 -567 1561 -553 1560 -541 1555 c 5
 -506 1535 l 5
 -495 1522 l 5
 -495 1522 l 5
 -491 1529 -480 1538 -465 1548 c 4
 -451 1557 -433 1561 -412 1561 c 4
 -372 1561 -342 1550 -323 1527 c 4
 -304 1505 -294 1473 -294 1432 c 4
 -294 1396 -302 1362 -319 1330 c 5
 -315 1332 -307 1339 -294 1352 c 5
 -279 1364 -269 1374 -264 1383 c 4
 -247 1415 -239 1447 -239 1478 c 4
 -239 1496 -241 1515 -245 1537 c 5
 -157 1566 l 5
 -151 1551 -148 1531 -148 1506 c 4
 -148 1439 -164 1385 -197 1343 c 5
 -219 1310 -249 1288 -287 1277 c 4
 -323 1267 -370 1261 -426 1261 c 5
 -426 1279 l 5
 -428 1299 l 5
 -422 1305 -412 1316 -400 1332 c 4
 -390 1347 -384 1370 -382 1402 c 4
 -382 1425 -385 1444 -391 1458 c 4
 -398 1471 -411 1478 -431 1478 c 4
 -444 1478 -455 1474 -465 1467 c 5
 -477 1460 -484 1454 -486 1449 c 5
 -486 1449 l 5
 -486 1451 -489 1454 -495 1458 c 6
 -526 1474 l 6
 -537 1478 -550 1480 -564 1480 c 4
 -599 1480 -618 1465 -621 1434 c 4
 -620 1435 -613 1437 -601 1440 c 5
 -574 1442 l 6
 -548 1442 -526 1433 -509 1414 c 4
 -494 1396 -486 1371 -486 1337 c 4
 -486 1314 -495 1294 -513 1275 c 5
 -535 1257 -559 1248 -586 1248 c 4
-588 1374 m 4
 -608 1374 -618 1365 -618 1347 c 4
 -618 1327 -608 1317 -588 1317 c 4
 -567 1317 -557 1327 -557 1347 c 4
 -557 1365 -567 1374 -588 1374 c 4
EndSplineSet
MinimumDistance: x12,-1 
EndChar
StartChar: uni0E4B.left
Encoding: 158 63254
OldEncoding: 63254
Width: 0
Flags: HW
HStem: 1378 106<-507 -407 -291 -185>
VStem: -407 116<1293 1377 1483 1583>
Fore
-407 1378 m 5
 -522 1378 l 5
 -522 1484 l 5
 -407 1484 l 5
 -407 1586 l 5
 -291 1586 l 5
 -291 1484 l 5
 -175 1484 l 5
 -175 1378 l 5
 -291 1378 l 5
 -291 1278 l 5
 -407 1278 l 5
 -407 1378 l 5
EndSplineSet
MinimumDistance: x7,-1 y3,5 y3,4 y0,10 y0,11 x6,8 x6,7 x0,2 x0,1 
EndChar
StartChar: uni0E4C.left
Encoding: 159 63255
OldEncoding: 63255
Width: 0
Flags: HW
HStem: 1181 79<-393.482 -372>
VStem: -526 106<1298 1322.38> -345 85<1287.81 1299.76 1299.79 1310>
Fore
-202 1426 m 0
 -207 1426 -248 1422 -325 1415 c 1
 -373 1413 l 1
 -340 1413 -312 1403 -292 1382 c 0
 -271 1359 -260 1334 -260 1307 c 0
 -258 1272 -268 1243 -290 1218 c 0
 -312 1194 -341 1181 -376 1181 c 0
 -421 1179 -457 1192 -484 1221 c 1
 -512 1246 -526 1280 -526 1322 c 0
 -526 1400 -495 1452 -433 1479 c 0
 -403 1493 -366 1501 -320 1503 c 0
 -278 1505 -244 1511 -219 1519 c 0
 -198 1526 -188 1546 -188 1579 c 1
 -91 1579 l 1
 -91 1538 -100 1505 -119 1479 c 1
 -137 1449 -165 1431 -202 1426 c 0
-383 1336 m 0
 -407 1336 -420 1324 -420 1300 c 0
 -420 1273 -407 1260 -383 1260 c 0
 -358 1260 -345 1273 -345 1300 c 0
 -345 1310 -349 1319 -355 1325 c 0
 -363 1332 -372 1336 -383 1336 c 0
EndSplineSet
MinimumDistance: x4,-1 
EndChar
StartChar: uni0E01
Encoding: 161 3585
OldEncoding: 3585
Width: 807
Flags: HW
HStem: -1 21G<83.7998 220.53 562.92 696.26> 703 102<348 384>
VStem: 84 137<13 399> 563 133<13 553>
Fore
157 551 m 1
 144 558 125 564 102 570 c 0
 70 579 41 585 14 586 c 1
 14 630 l 1
 42 665 l 2
 53 677 75 697 109 723 c 1
 146 747 184 766 225 781 c 0
 266 796 319 805 382 805 c 0
 445 805 499 795 544 776 c 0
 591 755 628 726 656 688 c 0
 683 649 696 601 696 544 c 2
 696 -1 l 1
 563 -1 l 1
 563 533 l 2
 563 589 545 631 510 661 c 0
 474 689 428 703 371 703 c 0
 305 703 240 682 176 642 c 1
 206 635 l 2
 212 634 231 629 263 619 c 0
 288 610 310 598 331 582 c 1
 331 517 l 1
 306 517 281 509 257 494 c 0
 233 479 221 444 221 390 c 2
 221 -1 l 1
 84 -1 l 1
 84 381 l 2
 84 427 89 461 100 485 c 0
 111 511 130 533 157 551 c 1
EndSplineSet
MinimumDistance: x10,-1 
EndChar
StartChar: uni0E02
Encoding: 162 3586
OldEncoding: 3586
Width: 792
Flags: HW
HStem: -1 120<170 259 396 492> 445 95<128.215 142> 765 20G<544.635 681.365>
VStem: -20 101<587 607> 260 137<118 367> 359 116<588.423 607> 545 137<173 784>
Fore
359 588 m 1
 359 628 350 656 332 674 c 1
 310 691 288 700 267 703 c 1
 273 693 280 681 286 667 c 0
 293 646 297 625 297 603 c 0
 295 556 280 518 253 489 c 1
 224 460 186 445 140 445 c 0
 95 445 56 460 24 491 c 0
 -6 521 -20 559 -20 603 c 0
 -20 645 -9 682 15 714 c 0
 40 745 70 768 105 783 c 0
 140 799 178 806 220 806 c 0
 297 806 359 785 406 743 c 0
 452 703 475 654 475 597 c 0
 475 564 473 541 467 526 c 0
 461 512 450 493 436 471 c 2
 406 420 l 1
 400 405 397 385 397 359 c 2
 397 119 l 1
 482 119 l 2
 510 119 527 122 536 131 c 1
 542 139 545 157 545 186 c 2
 545 785 l 1
 682 785 l 1
 682 149 l 2
 682 86 667 46 637 29 c 1
 609 9 557 -1 482 -1 c 2
 167 -1 l 1
 167 119 l 1
 260 119 l 1
 260 354 l 2
 260 381 264 404 272 425 c 0
 279 441 291 460 308 482 c 0
 323 499 334 515 343 531 c 0
 349 539 354 558 359 588 c 1
140 540 m 0
 160 540 175 546 186 559 c 0
 195 570 200 584 200 600 c 0
 200 618 195 632 186 644 c 0
 176 655 160 661 140 661 c 0
 122 661 107 654 96 641 c 0
 85 631 81 617 81 600 c 0
 81 583 85 570 96 559 c 0
 107 546 122 540 140 540 c 0
EndSplineSet
MinimumDistance: x23,-1 y27,29 x29,27 x29,28 
EndChar
StartChar: uni0E03
Encoding: 163 3587
OldEncoding: 3587
Width: 874
Flags: HW
HStem: -2 120<253 344 479 575> 341 93<148.387 163> 554 92<157 163>
VStem: 220 95<482.498 493.314 493.356 502> 345 134<118 486> 442 114<647 655> 630 134<173 783>
Fore
162 341 m 0
 101 341 57 360 28 398 c 1
 -3 436 -18 485 -18 544 c 0
 -18 568 -16 589 -13 607 c 0
 -10 647 7 683 35 716 c 0
 58 744 86 767 121 785 c 0
 150 801 176 809 197 809 c 1
 285 760 l 1
 384 809 l 1
 424 802 463 783 500 753 c 0
 537 722 556 687 556 648 c 0
 556 623 550 602 537 584 c 1
 497 537 l 1
 485 521 479 499 479 473 c 2
 479 118 l 1
 567 118 l 2
 594 118 612 122 620 131 c 1
 626 139 630 157 630 186 c 2
 630 785 l 1
 764 785 l 1
 764 186 l 2
 764 118 753 70 731 42 c 1
 712 13 666 -2 594 -2 c 2
 250 -2 l 1
 250 118 l 1
 345 118 l 1
 345 484 l 2
 345 550 369 595 417 621 c 1
 434 633 442 644 442 654 c 0
 442 671 425 688 391 705 c 1
 285 654 l 1
 176 705 l 1
 154 701 134 690 118 672 c 1
 105 654 97 640 95 630 c 1
 99 634 105 637 113 639 c 0
 126 644 142 646 162 646 c 0
 193 646 220 639 243 626 c 1
 263 616 280 599 294 575 c 0
 308 549 315 524 315 500 c 0
 317 458 304 420 276 385 c 1
 249 355 211 341 162 341 c 0
159 434 m 0
 179 434 194 439 204 452 c 0
 215 464 220 478 220 493 c 0
 220 511 215 526 204 537 c 1
 194 549 180 554 159 554 c 0
 144 554 130 548 115 535 c 0
 105 525 100 511 100 493 c 0
 100 477 105 463 115 452 c 0
 129 439 144 434 159 434 c 0
EndSplineSet
MinimumDistance: x19,-1 y23,25 x25,23 x25,24 
EndChar
StartChar: uni0E04
Encoding: 164 3588
OldEncoding: 3588
Width: 800
Flags: HW
HStem: -2 21G<137.56 274.29 555.66 690.13> 512 95<338.738 352.634> 705 106<328 362>
VStem: 10 116<494 523> 138 137<13 159> 399 95<445 463> 556 134<13 543>
Fore
339 294 m 1
 301 299 l 1
 283 303 275 306 275 308 c 2
 275 -2 l 1
 138 -2 l 1
 138 135 l 2
 138 170 132 202 121 230 c 0
 107 262 91 294 72 325 c 0
 58 348 42 381 26 422 c 0
 15 449 10 483 10 524 c 0
 12 585 30 638 63 681 c 0
 96 726 139 758 191 778 c 0
 245 800 300 811 357 811 c 0
 416 811 471 801 522 780 c 0
 571 760 611 728 644 685 c 0
 675 643 690 592 690 533 c 2
 690 -2 l 1
 556 -2 l 1
 556 526 l 2
 556 583 536 627 496 658 c 0
 454 689 406 705 350 705 c 0
 292 705 240 688 195 656 c 0
 149 621 126 576 126 519 c 0
 126 486 132 455 142 427 c 0
 150 402 156 389 158 389 c 1
 158 392 l 2
 158 436 170 482 195 528 c 1
 219 579 266 605 339 607 c 0
 385 607 422 593 452 563 c 0
 480 533 494 496 494 451 c 0
 494 409 480 373 452 343 c 0
 424 313 386 297 339 294 c 1
339 389 m 0
 358 389 373 395 385 407 c 1
 394 419 399 434 399 451 c 0
 399 469 394 484 385 495 c 0
 374 507 359 512 339 512 c 0
 321 512 306 506 295 493 c 0
 284 483 279 469 279 451 c 0
 279 433 284 419 295 407 c 0
 307 395 321 389 339 389 c 0
EndSplineSet
MinimumDistance: x15,-1 
EndChar
StartChar: uni0E05
Encoding: 165 3589
OldEncoding: 3589
Width: 800
Flags: HW
HStem: -1 21G<137.56 274.29 555.66 690.13> 513 95<338.738 352.634>
VStem: 10 116<495 535> 138 137<13 159> 399 95<445 463> 556 134<13 543>
Fore
246 800 m 1
 367 749 l 1
 496 800 l 1
 541 787 579 765 610 735 c 0
 641 704 662 671 672 635 c 0
 684 595 690 561 690 533 c 2
 690 -1 l 1
 556 -1 l 1
 556 529 l 2
 556 564 552 595 544 622 c 0
 538 643 518 663 487 681 c 1
 367 637 l 1
 251 688 l 1
 211 672 180 650 158 622 c 1
 137 590 126 556 126 520 c 0
 126 487 132 456 142 427 c 0
 150 402 156 390 158 390 c 1
 158 392 l 2
 158 437 170 482 195 529 c 1
 219 579 266 606 339 608 c 0
 385 608 422 593 452 564 c 0
 480 534 494 496 494 452 c 0
 494 410 480 374 452 344 c 0
 424 313 386 297 339 295 c 1
 301 299 l 1
 283 304 275 307 275 309 c 2
 275 -1 l 1
 138 -1 l 1
 138 136 l 2
 138 171 132 203 121 231 c 0
 107 263 91 295 72 325 c 0
 58 349 42 381 26 423 c 0
 15 450 10 484 10 524 c 0
 12 659 91 751 246 800 c 1
339 390 m 0
 358 390 373 396 385 408 c 1
 394 420 399 435 399 452 c 0
 399 470 394 485 385 496 c 0
 374 507 359 513 339 513 c 0
 321 513 306 507 295 494 c 0
 284 483 279 469 279 452 c 0
 279 434 284 419 295 408 c 0
 307 396 321 390 339 390 c 0
EndSplineSet
MinimumDistance: x5,-1 
EndChar
StartChar: uni0E06
Encoding: 166 3590
OldEncoding: 3590
Width: 1002
Flags: HW
HStem: -0 21G<757.985 892.455> 766 20G<757.985 892.455>
VStem: 161 106<145.08 163> 217 97<474.889 487.97 488 497> 343 134<108 241 362 487> 440 114<637 649> 758 134<221 785>
Fore
477 465 m 2
 477 364 l 1
 521 357 558 347 586 335 c 0
 606 328 641 309 691 278 c 1
 724 255 747 236 758 220 c 1
 758 786 l 1
 892 786 l 1
 892 -0 l 1
 758 -0 l 1
 758 13 746 40 723 79 c 0
 699 120 666 158 626 192 c 0
 587 225 537 245 477 252 c 1
 477 120 l 2
 477 81 465 49 438 22 c 0
 413 -3 378 -16 334 -16 c 0
 280 -16 237 2 207 37 c 0
 176 72 161 113 161 161 c 0
 161 212 178 257 210 296 c 0
 242 336 286 358 343 364 c 1
 343 479 l 2
 343 544 367 590 416 616 c 1
 432 622 440 632 440 645 c 0
 440 665 424 683 390 698 c 1
 283 647 l 1
 175 698 l 1
 151 694 131 683 115 664 c 0
 100 645 90 629 85 616 c 1
 89 620 98 625 113 629 c 0
 122 633 138 636 161 638 c 1
 206 638 242 624 270 596 c 0
 299 567 314 532 314 493 c 0
 316 451 301 414 270 382 c 0
 239 351 203 335 161 335 c 0
 101 338 56 356 27 391 c 0
 -4 428 -19 476 -19 534 c 0
 -19 556 -18 578 -15 599 c 0
 -6 657 23 706 71 744 c 0
 118 782 159 801 195 801 c 1
 283 755 l 1
 383 801 l 1
 421 796 460 779 499 748 c 0
 536 717 554 682 554 643 c 0
 554 623 551 607 544 594 c 1
 517 556 l 1
 487 516 l 1
 481 505 477 488 477 465 c 2
281 108 m 0
 288 95 300 88 316 88 c 0
 334 88 343 99 343 120 c 2
 343 256 l 1
 323 254 304 244 288 225 c 1
 274 203 267 181 267 159 c 0
 267 142 272 125 281 108 c 0
156 426 m 0
 173 426 188 432 200 444 c 0
 211 454 217 469 217 488 c 0
 217 505 212 519 202 530 c 0
 190 542 175 548 156 548 c 0
 139 548 125 542 113 530 c 0
 101 519 96 505 96 488 c 0
 96 469 101 454 113 444 c 0
 125 432 139 426 156 426 c 0
EndSplineSet
MinimumDistance: x6,-1 
EndChar
StartChar: uni0E07
Encoding: 167 3591
OldEncoding: 3591
Width: 641
Flags: HW
HStem: 491 93<368 370> 706 95<368 385>
VStem: 214 97<632 655> 397 134<120 492> 432 99<632 655>
DStem: -11.2002 492.895 96.1504 562.955 248.7 53.3252 174.12 430.745 -11.2002 492.895 174.12 430.745 248.7 53.3252 290.51 236.385
Fore
371 801 m 0
 417 801 455 787 487 760 c 1
 517 729 531 694 531 653 c 2
 531 113 l 2
 531 72 518 39 492 14 c 1
 462 -10 428 -22 390 -22 c 0
 325 -22 278 3 249 53 c 2
 -11 493 l 1
 96 563 l 1
 174 431 l 1
 291 236 l 1
 353 126 l 1
 364 104 374 93 383 93 c 0
 392 93 397 108 397 137 c 2
 397 493 l 1
 390 493 l 1
 371 491 l 1
 326 491 288 506 255 537 c 1
 228 567 214 603 214 645 c 0
 214 688 228 725 255 755 c 0
 285 786 323 801 371 801 c 0
371 584 m 0
 390 584 405 589 415 601 c 0
 426 613 432 627 432 645 c 0
 432 664 426 679 415 690 c 1
 407 701 392 706 371 706 c 0
 356 706 341 700 327 687 c 0
 316 677 311 663 311 645 c 0
 311 627 316 613 327 601 c 0
 340 589 355 584 371 584 c 0
EndSplineSet
MinimumDistance: x2,-1 
EndChar
StartChar: uni0E08
Encoding: 168 3592
OldEncoding: 3592
Width: 755
Flags: HW
HStem: -10 97<494 500> 236 95<231 245.369> 450 95<225 243> 691 110<309 357>
VStem: 75 95<378.736 392> 511 134<127 551>
Fore
645 157 m 2
 645 88 631 43 603 22 c 0
 578 1 543 -10 499 -10 c 0
 462 -10 432 -1 409 18 c 0
 385 34 367 62 356 101 c 1
 331 201 l 1
 312 260 l 1
 311 258 303 253 289 245 c 0
 277 239 258 236 231 236 c 0
 179 238 141 253 117 282 c 1
 89 312 75 348 75 390 c 0
 75 430 89 467 117 499 c 0
 144 530 182 545 231 545 c 0
 313 545 365 510 390 439 c 0
 393 430 l 2
 481 117 l 1
 483 97 489 87 497 87 c 0
 506 87 511 102 511 129 c 2
 511 536 l 2
 511 593 494 632 460 655 c 0
 427 679 384 691 333 691 c 0
 237 691 156 648 88 562 c 1
 2 624 l 1
 74 742 185 801 338 801 c 0
 427 801 500 778 559 733 c 0
 616 690 645 626 645 541 c 2
 645 157 l 2
231 331 m 0
 251 331 266 336 278 346 c 1
 287 358 291 372 291 390 c 0
 291 408 287 423 278 434 c 1
 266 445 251 450 231 450 c 0
 212 450 197 444 187 432 c 0
 176 421 170 407 170 390 c 0
 170 374 176 360 187 349 c 0
 199 337 214 331 231 331 c 0
EndSplineSet
MinimumDistance: x0,-1 
EndChar
StartChar: uni0E09
Encoding: 169 3593
OldEncoding: 3593
Width: 867
Flags: HW
HStem: -0 21G<159.05 289> 439 95<136 152> 696 110<350 384>
VStem: -16 97<366 384> 201 93<366 384> 553 133<111 256 356 560> 746 92<152 154 154.413 165.664 165.695 183.146>
Fore
139 534 m 0
 181 534 217 521 247 495 c 0
 278 470 294 436 294 395 c 2
 294 207 l 1
 321 246 359 278 408 302 c 1
 453 328 501 346 553 358 c 1
 553 539 l 2
 553 591 538 630 507 657 c 0
 476 683 429 696 366 696 c 0
 326 696 286 683 245 657 c 0
 207 632 172 601 141 565 c 1
 51 627 l 1
 84 676 129 720 187 757 c 1
 244 789 307 806 377 806 c 0
 471 806 547 782 604 735 c 1
 659 687 686 622 686 541 c 2
 686 358 l 1
 735 349 773 326 799 289 c 0
 827 246 841 201 838 154 c 1
 838 103 822 62 792 32 c 0
 762 -0 724 -16 680 -16 c 0
 646 -16 617 -6 592 13 c 0
 566 35 553 67 553 110 c 2
 553 258 l 1
 483 241 423 207 373 157 c 0
 324 108 296 55 289 -0 c 1
 159 -0 l 1
 159 227 l 1
 150 224 l 1
 139 222 l 1
 90 224 53 241 26 271 c 0
 -2 299 -16 335 -16 377 c 0
 -16 417 -2 453 26 485 c 0
 53 518 90 534 139 534 c 0
746 166 m 0
 746 191 740 212 729 229 c 0
 718 244 703 254 686 258 c 1
 686 113 l 1
 688 93 695 83 706 83 c 1
 713 85 720 90 726 97 c 1
 740 132 l 1
 744 145 746 156 746 166 c 0
141 317 m 0
 160 317 175 323 187 335 c 1
 196 346 201 361 201 379 c 0
 201 397 196 412 187 423 c 0
 177 434 161 439 141 439 c 0
 124 439 109 433 97 421 c 0
 86 410 81 396 81 379 c 0
 81 362 86 348 97 337 c 0
 108 324 123 317 141 317 c 0
EndSplineSet
MinimumDistance: x18,-1 
EndChar
StartChar: uni0E0A
Encoding: 170 3594
OldEncoding: 3594
Width: 799
Flags: HW
HStem: -4 120<190 277 412 512> 440 97<157 163>
VStem: -0 102<585 604> 222 97<585 604> 278 134<116 364> 556 133<170 474>
Fore
373 588 m 0
 375 624 366 652 344 672 c 1
 327 691 307 702 285 704 c 1
 287 702 294 690 307 667 c 1
 315 644 319 623 319 603 c 0
 319 557 306 518 278 486 c 0
 248 455 209 440 159 440 c 0
 115 440 76 455 44 486 c 0
 14 516 -0 554 -0 603 c 0
 -0 641 12 675 37 704 c 1
 60 734 89 757 125 773 c 0
 162 791 197 799 229 799 c 0
 288 799 340 787 384 762 c 0
 429 736 458 706 470 669 c 1
 489 669 519 681 560 704 c 1
 602 725 645 773 689 850 c 1
 786 787 l 1
 764 735 735 696 699 669 c 0
 666 645 639 629 618 621 c 1
 630 615 645 602 664 579 c 1
 681 556 689 516 689 461 c 2
 689 146 l 2
 689 103 685 71 676 49 c 0
 666 28 650 14 627 7 c 0
 602 -0 567 -4 521 -4 c 2
 181 -4 l 1
 181 116 l 1
 278 116 l 1
 278 356 l 2
 278 380 282 401 289 420 c 0
 297 438 308 456 324 475 c 1
 358 524 l 1
 368 540 373 562 373 588 c 0
161 537 m 0
 179 537 194 544 205 556 c 0
 217 567 222 580 222 597 c 0
 222 616 217 631 205 641 c 0
 195 652 180 658 161 658 c 0
 144 658 130 652 118 639 c 0
 107 628 102 614 102 597 c 0
 102 580 107 567 118 556 c 0
 130 544 144 537 161 537 c 0
483 572 m 1
 481 538 477 515 472 505 c 0
 464 487 455 473 446 464 c 1
 439 452 430 436 421 415 c 0
 415 400 412 376 412 343 c 2
 412 116 l 1
 490 116 l 2
 519 116 537 120 546 128 c 0
 552 136 556 154 556 183 c 2
 556 449 l 2
 556 497 546 530 527 546 c 1
 512 563 497 572 483 572 c 1
EndSplineSet
MinimumDistance: x15,-1 y25,27 x27,25 x27,26 
EndChar
StartChar: uni0E0B
Encoding: 171 3595
OldEncoding: 3595
Width: 847
Flags: HW
HStem: -4 120<229 325 466 556> 338 93<138 156> 552 92<138 156>
VStem: 202 97<478.655 490.787 490.819 499> 325 134<116 370> 606 133<170 470>
Fore
369 806 m 1
 399 804 432 788 469 760 c 0
 504 731 524 701 529 669 c 1
 551 672 579 686 615 709 c 1
 652 730 692 777 737 850 c 1
 836 787 l 1
 814 733 785 694 751 669 c 0
 718 645 691 629 670 621 c 1
 682 616 697 602 714 579 c 1
 731 553 739 513 739 461 c 2
 739 146 l 2
 739 84 728 43 707 24 c 0
 684 5 638 -4 571 -4 c 2
 228 -4 l 1
 228 116 l 1
 325 116 l 1
 325 369 l 2
 325 393 329 414 337 431 c 1
 347 448 359 464 374 480 c 1
 411 528 l 1
 420 542 425 562 427 588 c 1
 427 620 424 643 418 658 c 0
 412 672 399 685 379 699 c 1
 379 700 l 1
 374 702 l 1
 270 651 l 1
 160 702 l 1
 134 698 115 687 103 669 c 0
 90 651 82 637 80 628 c 1
 84 631 90 634 98 637 c 0
 107 641 124 644 147 644 c 0
 176 644 203 637 228 623 c 0
 250 611 267 594 279 572 c 0
 293 548 299 523 299 498 c 0
 301 455 288 417 258 385 c 0
 230 354 194 338 147 338 c 0
 87 338 42 357 10 396 c 1
 -21 437 -36 486 -36 542 c 1
 -32 605 l 1
 -23 646 -7 682 17 711 c 0
 45 743 73 767 103 782 c 0
 134 798 159 806 180 806 c 1
 270 757 l 1
 332 787 l 1
 369 806 l 1
531 572 m 1
 529 546 524 526 518 512 c 0
 510 493 501 479 492 468 c 1
 469 417 l 1
 463 400 459 375 459 343 c 2
 459 116 l 1
 538 116 l 2
 566 116 585 120 593 128 c 0
 602 138 606 156 606 183 c 2
 606 449 l 2
 606 498 595 530 575 546 c 1
 559 563 545 572 531 572 c 1
142 431 m 0
 161 431 177 437 189 449 c 1
 198 462 202 476 202 491 c 0
 202 509 198 524 189 535 c 1
 177 546 162 552 142 552 c 0
 126 552 111 545 98 533 c 0
 88 522 82 508 82 491 c 0
 82 474 88 460 98 449 c 0
 110 437 125 431 142 431 c 0
EndSplineSet
MinimumDistance: x9,-1 y13,15 x15,13 x15,14 
EndChar
StartChar: uni0E0C
Encoding: 172 3596
OldEncoding: 3596
Width: 1044
Flags: HW
HStem: -14 85<208 230> -1 21G<800.35 934.82> 196 86<209 230> 766 20G<800.35 934.82>
VStem: 69 85<125 139> 282 84<125 146> 392 75<125 146> 500 133<292 591> 520 113<77 181> 800 134<185 783>
Fore
633 92 m 2
 633 61 623 36 604 15 c 0
 583 -4 553 -14 513 -14 c 0
 473 -14 443 -0 423 28 c 0
 403 55 392 91 392 136 c 0
 392 173 401 207 418 238 c 0
 435 264 462 283 500 293 c 1
 500 592 l 2
 500 628 485 657 456 677 c 0
 426 697 386 708 335 710 c 0
 311 710 281 705 244 693 c 0
 203 681 175 665 160 645 c 1
 181 641 204 635 229 627 c 0
 262 617 291 602 317 583 c 1
 317 518 l 1
 291 518 266 510 242 494 c 0
 218 479 206 445 206 390 c 2
 206 280 l 1
 210 282 l 1
 217 282 l 2
 249 282 276 275 298 260 c 0
 321 245 338 227 348 205 c 0
 360 185 366 161 366 134 c 0
 366 108 360 83 348 62 c 0
 337 39 320 21 298 6 c 0
 275 -7 248 -14 217 -14 c 0
 169 -14 133 1 109 30 c 1
 82 58 69 93 69 136 c 2
 69 381 l 2
 69 427 75 462 85 485 c 0
 96 512 116 534 143 552 c 1
 129 559 111 565 87 571 c 0
 55 580 26 586 -1 587 c 1
 -1 631 l 1
 16 658 55 694 116 740 c 0
 175 783 259 805 368 805 c 0
 422 805 465 797 498 781 c 0
 535 764 562 745 578 724 c 0
 599 698 613 673 620 647 c 0
 629 620 633 595 633 571 c 2
 633 286 l 1
 662 280 688 268 712 251 c 0
 745 231 765 218 772 212 c 0
 786 201 795 192 800 185 c 1
 800 786 l 1
 934 786 l 1
 934 -1 l 1
 800 -1 l 1
 789 25 770 59 743 101 c 1
 711 145 674 172 633 182 c 1
 633 92 l 2
220 71 m 0
 230 71 242 74 255 81 c 1
 264 88 271 96 275 103 c 0
 279 112 282 123 282 134 c 0
 282 154 276 170 266 180 c 0
 255 191 240 196 220 196 c 0
 201 196 185 190 173 178 c 0
 160 164 154 149 154 134 c 0
 154 119 160 105 173 92 c 0
 185 78 201 71 220 71 c 0
520 79 m 1
 520 205 l 1
 500 203 486 195 478 182 c 0
 471 170 467 151 467 127 c 0
 467 111 472 97 481 85 c 1
 488 73 497 66 507 66 c 0
 513 66 518 70 520 79 c 1
EndSplineSet
MinimumDistance: x45,-1 
EndChar
StartChar: uni0E0D
Encoding: 173 3597
OldEncoding: 3597
Width: 1044
Flags: HW
HStem: -99 85<531 545> -43 20G<798.09 930.3> 7 85<208 230> 21 120<423 498 632 756> 217 86<209 230>
VStem: 69 85<149 159> 282 84<149 170> 392 88<-162.381 -149.454> 500 133<140 612> 608 81<-171 -153> 800 134<181 807>
Fore
934 807 m 1
 934 171 l 2
 934 130 928 98 916 74 c 0
 904 53 885 39 858 32 c 0
 830 24 792 21 745 21 c 2
 423 21 l 1
 423 141 l 1
 500 141 l 1
 500 613 l 2
 500 650 485 678 456 699 c 0
 426 718 386 729 335 731 c 0
 311 731 281 726 244 714 c 0
 203 702 175 686 160 666 c 1
 181 662 204 656 229 648 c 0
 262 638 291 623 317 604 c 1
 317 539 l 1
 291 539 266 531 242 516 c 0
 218 500 206 466 206 412 c 2
 206 301 l 1
 210 303 l 1
 217 303 l 2
 249 303 276 296 298 282 c 0
 321 267 338 248 348 226 c 0
 360 206 366 182 366 155 c 0
 366 129 360 105 348 83 c 0
 337 60 320 42 298 27 c 0
 275 14 248 7 217 7 c 0
 169 7 133 22 109 51 c 1
 82 79 69 114 69 157 c 2
 69 403 l 2
 69 449 75 483 85 507 c 0
 96 533 116 555 143 573 c 1
 129 580 111 586 87 592 c 0
 56 601 26 607 -1 608 c 1
 -1 652 l 1
 16 679 55 716 116 761 c 0
 175 804 259 826 368 826 c 0
 422 826 465 818 498 803 c 0
 535 785 562 766 578 745 c 0
 599 719 613 694 620 668 c 0
 629 641 633 616 633 592 c 2
 633 141 l 1
 745 141 l 2
 769 141 785 145 794 153 c 1
 798 160 800 178 800 208 c 2
 800 807 l 1
 934 807 l 1
666 -246 m 1
 693 -246 722 -232 754 -204 c 1
 783 -175 798 -114 798 -23 c 1
 930 -23 l 1
 930 -108 916 -176 886 -227 c 0
 855 -278 818 -313 774 -331 c 1
 733 -351 687 -361 635 -361 c 0
 592 -361 558 -356 531 -345 c 0
 479 -327 443 -303 423 -273 c 0
 400 -239 390 -202 392 -162 c 0
 392 -123 406 -89 434 -58 c 1
 459 -29 496 -14 544 -14 c 0
 593 -14 630 -29 655 -58 c 0
 678 -89 689 -124 689 -165 c 0
 689 -199 682 -226 666 -246 c 1
544 -225 m 0
 563 -225 579 -219 592 -207 c 0
 603 -195 608 -181 608 -162 c 0
 608 -144 603 -129 592 -118 c 0
 578 -106 562 -99 544 -99 c 0
 526 -99 510 -106 498 -118 c 0
 486 -129 480 -144 480 -162 c 0
 480 -179 487 -194 500 -207 c 0
 512 -219 527 -225 544 -225 c 0
220 92 m 0
 230 92 242 95 255 102 c 1
 264 110 271 117 275 125 c 0
 279 134 282 144 282 155 c 0
 282 175 276 191 266 201 c 0
 255 212 240 217 220 217 c 0
 201 217 185 211 173 199 c 0
 160 185 154 170 154 155 c 0
 154 140 160 126 173 113 c 0
 185 99 201 92 220 92 c 0
EndSplineSet
MinimumDistance: x0,-1 x7,5 x7,6 
EndChar
StartChar: uni0E0E
Encoding: 174 3598
OldEncoding: 3598
Width: 880
Flags: HW
HStem: -357 114<240 242 242.444 269.362> -128 113<270.694 293> 226 88<127 152> 724 102<421 466>
VStem: -14 88<153 171> 79 108<-194 -186> 207 86<153 171> 636 134<-173 575>
Fore
509 -88 m 1
 557 -115 583 -131 587 -134 c 2
 636 -174 l 1
 636 555 l 2
 636 610 617 652 580 683 c 0
 544 710 499 724 444 724 c 0
 412 724 379 719 344 707 c 0
 310 698 279 684 249 663 c 1
 317 648 l 2
 343 642 372 627 404 603 c 1
 404 539 l 1
 380 539 356 531 333 515 c 0
 306 499 293 465 293 411 c 2
 293 162 l 2
 293 116 280 79 254 51 c 1
 230 22 193 7 141 5 c 1
 89 7 51 22 28 51 c 1
 -0 80 -14 115 -14 157 c 0
 -14 202 -0 239 28 268 c 1
 53 299 90 314 141 314 c 2
 152 314 l 1
 157 312 l 1
 157 402 l 2
 157 446 163 481 176 506 c 0
 188 533 206 556 231 573 c 1
 219 579 201 585 176 592 c 0
 142 601 112 606 85 608 c 1
 85 652 l 1
 115 687 l 2
 129 703 152 722 183 745 c 0
 216 768 254 787 296 802 c 0
 338 818 392 826 455 826 c 0
 517 826 572 816 618 796 c 1
 666 777 703 748 728 707 c 1
 756 668 770 621 770 566 c 2
 770 -357 l 1
 636 -357 l 1
 604 -312 573 -278 543 -255 c 0
 510 -228 486 -211 472 -202 c 1
 454 -245 426 -281 388 -311 c 0
 344 -344 295 -359 242 -357 c 0
 199 -357 161 -340 127 -306 c 1
 95 -276 79 -236 79 -185 c 0
 81 -133 99 -93 134 -63 c 0
 169 -33 214 -17 271 -15 c 0
 305 -15 348 -23 399 -40 c 1
 410 -2 l 1
 423 64 l 1
 536 38 l 1
 525 -33 l 1
 509 -88 l 1
141 92 m 0
 161 92 177 99 189 113 c 0
 201 127 207 143 207 159 c 0
 207 179 202 195 192 208 c 0
 179 220 163 226 141 226 c 0
 120 226 104 220 92 208 c 0
 80 194 74 177 74 159 c 0
 74 143 80 127 92 113 c 0
 104 99 120 92 141 92 c 0
293 -234 m 1
 317 -223 335 -209 346 -190 c 0
 358 -172 366 -159 368 -149 c 1
 338 -135 307 -128 273 -128 c 0
 247 -128 225 -134 210 -146 c 0
 195 -158 187 -173 187 -192 c 1
 192 -214 l 1
 198 -233 218 -243 251 -243 c 0
 271 -243 285 -240 293 -234 c 1
EndSplineSet
MinimumDistance: x34,-1 
EndChar
StartChar: uni0E0F
Encoding: 175 3599
OldEncoding: 3599
Width: 880
Flags: HW
HStem: -359 99<200 224> -158 97<205 226> 226 88<129 146> 724 102<430 468>
VStem: -14 80<151 169> 201 93<151 169> 636 134<-178 575>
Fore
555 -97 m 1
 636 -178 l 1
 636 555 l 2
 636 610 617 653 580 683 c 0
 544 711 499 724 444 724 c 0
 412 724 379 719 344 708 c 0
 310 698 279 684 249 663 c 1
 317 648 l 2
 343 642 372 627 404 604 c 1
 404 539 l 1
 380 539 356 531 333 515 c 0
 306 500 294 465 294 411 c 2
 294 162 l 2
 294 116 280 79 254 51 c 1
 230 22 193 7 141 5 c 1
 89 7 51 22 28 51 c 1
 -0 80 -14 115 -14 157 c 0
 -14 202 -0 239 28 268 c 1
 53 299 90 314 141 314 c 2
 152 314 l 1
 157 312 l 1
 157 402 l 2
 157 446 163 481 176 506 c 0
 188 534 206 556 231 573 c 1
 219 579 201 585 176 592 c 0
 142 601 112 607 85 608 c 1
 85 652 l 1
 115 687 l 2
 129 703 152 722 183 745 c 0
 216 768 254 787 296 802 c 0
 338 818 392 826 455 826 c 0
 517 826 572 816 618 796 c 1
 666 778 703 748 728 708 c 1
 756 668 770 621 770 566 c 2
 770 -357 l 1
 642 -357 l 1
 548 -243 l 1
 441 -357 l 1
 429 -331 416 -309 402 -291 c 0
 391 -278 380 -265 368 -253 c 1
 357 -276 341 -297 322 -317 c 0
 296 -345 258 -359 207 -359 c 0
 166 -359 133 -344 108 -315 c 0
 80 -283 66 -242 66 -192 c 1
 71 -151 88 -118 117 -95 c 0
 148 -72 183 -61 222 -61 c 0
 260 -61 297 -71 331 -93 c 1
 337 -77 343 -56 349 -30 c 0
 358 11 364 41 366 60 c 1
 465 43 l 1
 449 -52 432 -119 414 -158 c 1
 432 -174 l 1
 453 -200 l 1
 518 -137 l 2
 543 -112 555 -99 555 -97 c 1
141 92 m 1
 163 95 179 103 187 115 c 0
 196 127 201 141 201 159 c 0
 201 179 195 195 185 208 c 0
 173 220 154 226 129 226 c 1
 110 224 94 217 83 206 c 0
 72 194 66 179 66 162 c 0
 66 141 73 125 88 113 c 1
 100 99 117 92 141 92 c 1
242 -253 m 0
 255 -247 267 -235 277 -216 c 1
 289 -190 l 1
 289 -190 l 1
 262 -169 238 -158 218 -158 c 0
 191 -158 173 -170 163 -194 c 1
 163 -238 179 -260 212 -260 c 0
 223 -260 233 -257 242 -253 c 0
EndSplineSet
MinimumDistance: x33,-1 
EndChar
StartChar: uni0E10
Encoding: 176 3600
OldEncoding: 3600
Width: 665
Flags: HW
HStem: -418 81<48 50 50.5804 72.4918> -252 79<49 66> -89 80<421 427> 214 95<186 204> 429 97<194.077 204> 669 107<536 553.994> 730 99<258 293>
VStem: 39 97<365 371> 291 84<-148 -131> 477 78<-148 -131>
Fore
400 24 m 1
 393 62 377 113 351 174 c 1
 328 235 315 265 312 265 c 1
 299 253 287 242 274 232 c 1
 255 220 228 214 194 214 c 0
 144 214 106 229 80 260 c 0
 53 291 39 327 39 369 c 0
 39 412 53 448 80 477 c 0
 108 507 146 524 194 526 c 0
 238 526 273 518 300 501 c 0
 324 485 344 455 360 411 c 1
 391 342 l 1
 409 298 l 1
 409 406 l 2
 409 449 406 479 400 496 c 0
 392 516 382 529 369 536 c 0
 361 540 335 548 291 561 c 0
 213 581 159 594 128 598 c 2
 6 616 l 1
 6 667 l 1
 28 699 51 727 78 751 c 0
 108 779 138 798 168 808 c 1
 197 823 233 829 274 829 c 0
 316 829 365 821 423 804 c 0
 479 786 517 776 536 776 c 0
 562 776 591 783 625 797 c 0
 625 797 629 784 636 757 c 1
 647 691 l 1
 600 676 564 669 536 669 c 1
 481 674 l 1
 406 700 l 1
 331 722 l 2
 313 728 294 730 274 730 c 0
 255 730 235 725 214 716 c 0
 194 707 183 698 180 691 c 1
 270 677 l 1
 365 656 l 1
 448 632 498 605 515 572 c 0
 534 539 543 485 543 411 c 2
 543 24 l 1
 400 24 l 1
402 -323 m 1
 439 -298 l 1
 439 -270 l 1
 423 -272 l 1
 381 -272 349 -259 326 -232 c 1
 303 -208 291 -177 291 -140 c 0
 291 -103 304 -72 328 -47 c 0
 352 -21 383 -9 423 -9 c 0
 462 -9 493 -21 518 -45 c 0
 542 -68 555 -98 555 -133 c 2
 555 -272 l 2
 555 -295 548 -314 534 -327 c 1
 521 -344 504 -358 483 -369 c 2
 406 -413 l 1
 316 -362 l 1
 238 -411 l 1
 175 -349 l 1
 154 -397 112 -420 51 -418 c 0
 20 -418 -9 -405 -35 -378 c 1
 -57 -352 -68 -321 -68 -286 c 0
 -68 -253 -54 -226 -26 -205 c 0
 0 -183 30 -173 64 -173 c 0
 96 -173 126 -183 152 -205 c 1
 164 -145 l 1
 168 -115 170 -80 170 -40 c 1
 258 -40 l 1
 258 -89 255 -130 249 -166 c 0
 243 -207 232 -243 217 -272 c 1
 254 -309 l 1
 287 -291 l 2
 306 -279 316 -272 316 -270 c 1
 402 -323 l 1
62 -252 m 0
 45 -252 34 -256 27 -265 c 0
 19 -275 15 -286 15 -298 c 0
 15 -324 31 -337 62 -337 c 0
 78 -337 92 -330 104 -316 c 0
 113 -303 119 -292 122 -283 c 1
 117 -277 110 -270 101 -263 c 0
 89 -255 75 -252 62 -252 c 0
426 -194 m 0
 441 -194 453 -188 462 -177 c 1
 472 -168 477 -156 477 -142 c 0
 477 -128 472 -116 462 -106 c 0
 454 -95 441 -89 426 -89 c 0
 407 -89 394 -95 388 -106 c 1
 379 -117 375 -129 375 -142 c 0
 375 -156 379 -168 388 -177 c 1
 395 -188 408 -194 426 -194 c 0
196 309 m 0
 215 309 231 315 243 327 c 1
 252 339 256 353 256 369 c 0
 256 385 252 399 243 411 c 1
 231 423 215 429 196 429 c 0
 177 429 162 423 152 411 c 0
 142 400 136 386 136 369 c 0
 136 352 142 338 152 327 c 0
 164 315 179 309 196 309 c 0
EndSplineSet
MinimumDistance: x49,-1 
EndChar
StartChar: uni0E11
Encoding: 177 3601
OldEncoding: 3601
Width: 1027
Flags: HW
HStem: -2 21G<320.61 447.17 782.78 917.25> 341 93<131 149> 554 92<131 149> 683 106<751 755>
VStem: 195 95<482 500> 321 134<323 500> 418 108<647 659> 783 134<13 632>
DStem: 590.68 656.055 718.37 651.535 455.08 322.705 447.17 -1.60547
Fore
455 478 m 2
 455 323 l 1
 591 656 l 1
 613 707 633 741 649 760 c 0
 667 780 701 789 753 789 c 0
 826 789 871 773 890 741 c 0
 908 709 917 663 917 603 c 2
 917 -2 l 1
 783 -2 l 1
 783 593 l 2
 783 626 781 650 778 665 c 0
 776 674 768 680 756 683 c 1
 744 683 735 679 727 672 c 1
 718 652 l 1
 447 -2 l 1
 321 -2 l 1
 321 484 l 2
 321 550 344 595 392 621 c 1
 409 632 418 643 418 654 c 0
 418 669 401 686 367 705 c 1
 261 654 l 1
 151 705 l 1
 128 700 109 689 93 672 c 1
 81 654 73 640 71 630 c 1
 75 634 81 637 89 639 c 0
 100 644 116 646 138 646 c 0
 168 646 195 639 219 626 c 0
 242 614 259 597 272 575 c 0
 282 555 288 530 290 500 c 1
 290 455 276 417 248 387 c 0
 221 356 184 341 138 341 c 0
 78 341 33 359 3 396 c 0
 -28 435 -43 484 -43 542 c 0
 -43 566 -42 588 -39 607 c 0
 -30 648 -14 684 10 716 c 1
 36 747 65 770 96 785 c 0
 124 801 150 809 173 809 c 1
 261 760 l 1
 360 809 l 1
 400 802 438 783 473 753 c 0
 509 722 526 687 526 648 c 0
 526 631 524 617 519 605 c 1
 491 570 l 2
 483 560 474 547 464 531 c 0
 458 521 455 503 455 478 c 2
135 434 m 0
 154 434 170 439 182 452 c 1
 191 464 195 478 195 493 c 0
 195 511 191 526 182 537 c 1
 170 549 155 554 135 554 c 0
 119 554 104 548 91 535 c 0
 81 525 75 511 75 493 c 0
 75 477 81 463 91 452 c 0
 103 439 118 434 135 434 c 0
EndSplineSet
MinimumDistance: x6,-1 
EndChar
StartChar: uni0E12
Encoding: 178 3602
OldEncoding: 3602
Width: 1082
Flags: HW
HStem: -0 21G<112.01 229.53 834.08 969.68> 514 95<319 337> 766 20G<836.34 969.68>
VStem: -16 115<492 515> 172 97<449 457> 389 95<452 467> 428 77<114.069 138> 537 134<292 565> 556 115<77 182> 836 133<185 771>
Fore
205 163 m 1
 250 233 l 1
 296 300 l 1
 264 302 235 319 209 349 c 0
 184 378 172 414 172 455 c 0
 172 499 187 535 216 565 c 0
 245 594 283 609 329 609 c 0
 377 609 414 595 440 567 c 0
 469 532 484 494 484 453 c 0
 486 403 472 358 442 317 c 1
 230 -0 l 1
 112 -0 l 1
 112 76 106 137 93 183 c 1
 58 254 l 2
 37 294 19 337 2 384 c 1
 -10 426 -16 470 -16 516 c 0
 -13 580 14 639 66 693 c 1
 115 748 168 784 225 801 c 1
 350 748 l 1
 477 803 l 1
 556 764 608 726 632 689 c 1
 658 654 671 603 671 534 c 2
 671 287 l 1
 708 278 742 262 773 238 c 1
 836 185 l 1
 836 786 l 1
 969 786 l 1
 969 -0 l 1
 834 -0 l 1
 823 28 804 62 778 101 c 0
 750 144 714 171 671 183 c 1
 671 92 l 2
 671 64 661 38 640 15 c 0
 619 -4 590 -14 552 -14 c 0
 512 -14 482 -0 461 28 c 0
 437 58 426 94 428 136 c 0
 428 172 438 206 457 238 c 0
 473 264 500 283 537 293 c 1
 537 552 l 2
 537 596 531 627 519 647 c 0
 508 666 491 681 470 693 c 1
 350 647 l 1
 225 693 l 1
 141 650 99 589 99 511 c 0
 99 455 121 383 165 296 c 0
 179 268 189 239 197 210 c 1
 205 163 l 1
556 79 m 1
 556 205 l 1
 522 201 505 175 505 127 c 0
 505 112 509 98 517 85 c 1
 527 73 536 66 543 66 c 0
 549 66 554 70 556 79 c 1
329 391 m 0
 349 391 363 397 373 409 c 0
 384 420 389 435 389 453 c 0
 389 472 384 486 373 497 c 1
 365 508 350 514 329 514 c 0
 311 514 296 507 285 495 c 0
 274 484 269 470 269 453 c 0
 269 435 274 420 285 409 c 0
 297 397 312 391 329 391 c 0
EndSplineSet
MinimumDistance: x26,-1 
EndChar
StartChar: uni0E13
Encoding: 179 3603
OldEncoding: 3603
Width: 1073
Flags: HW
HStem: -14 85<199 221> -0 21G<491.125 619.945> 196 86<200 221> 766 20G<791.705 926.175>
VStem: 61 85<126 144> 273 84<126 144> 491 133<245 591> 792 134<101 256 356 783> 984 93<152 180>
Fore
491 -0 m 1
 491 592 l 2
 491 629 476 657 447 678 c 0
 418 697 377 708 326 710 c 0
 302 710 272 705 236 693 c 0
 194 681 166 665 151 645 c 1
 172 641 195 635 220 627 c 0
 253 617 282 602 308 583 c 1
 308 518 l 1
 282 518 258 510 233 495 c 0
 209 479 197 445 197 391 c 2
 197 280 l 1
 202 282 l 1
 209 282 l 2
 240 282 267 275 289 261 c 0
 312 246 329 227 340 205 c 0
 351 185 357 161 357 134 c 0
 357 108 351 84 340 62 c 0
 328 39 311 21 289 6 c 0
 266 -7 240 -14 209 -14 c 0
 160 -14 124 1 100 30 c 1
 74 58 61 93 61 136 c 2
 61 382 l 2
 61 427 66 462 76 485 c 0
 88 512 107 534 134 552 c 1
 120 559 102 565 79 571 c 0
 46 580 17 586 -9 587 c 1
 -9 631 l 1
 7 658 46 695 107 740 c 0
 166 783 250 805 359 805 c 0
 413 805 456 797 489 782 c 0
 527 764 553 745 569 724 c 0
 590 698 604 673 611 647 c 0
 620 620 624 595 624 571 c 2
 624 245 l 1
 646 271 673 295 706 317 c 0
 741 340 770 354 792 358 c 1
 792 786 l 1
 926 786 l 1
 926 358 l 1
 973 349 1011 326 1039 289 c 0
 1064 253 1077 209 1077 154 c 0
 1077 104 1061 63 1030 32 c 0
 1000 -0 963 -16 918 -16 c 0
 883 -16 853 -6 829 13 c 0
 804 33 792 66 792 110 c 2
 792 258 l 1
 746 240 708 206 679 157 c 0
 646 104 626 52 620 -0 c 1
 491 -0 l 1
211 71 m 0
 221 71 233 74 246 81 c 1
 256 88 262 96 266 104 c 0
 271 113 273 123 273 134 c 0
 273 154 268 170 257 180 c 0
 247 191 231 196 211 196 c 0
 192 196 177 190 165 178 c 0
 152 164 146 149 146 134 c 0
 146 119 152 105 165 92 c 0
 177 78 192 71 211 71 c 0
984 166 m 0
 984 189 977 209 965 227 c 0
 953 243 940 254 926 258 c 1
 926 113 l 2
 926 93 931 83 942 83 c 0
 955 85 965 94 973 110 c 0
 980 129 984 148 984 166 c 0
EndSplineSet
EndChar
StartChar: uni0E14
Encoding: 180 3604
OldEncoding: 3604
Width: 799
Flags: HW
HStem: -1 21G<129.04 246.56 553.92 688.39> 511 95<338 357> 688 116<338 372>
VStem: 4 115<489 515> 189 97<445 453> 406 95<449 463> 554 134<13 547>
Fore
351 804 m 0
 466 802 551 775 605 723 c 0
 661 670 688 607 688 533 c 2
 688 -1 l 1
 554 -1 l 1
 554 544 l 2
 554 592 535 628 496 654 c 1
 456 677 409 688 355 688 c 0
 294 688 239 671 191 637 c 0
 143 603 119 557 119 498 c 0
 119 454 140 386 182 295 c 0
 196 267 206 238 214 209 c 1
 222 163 l 1
 267 230 l 2
 265 229 281 251 313 297 c 1
 281 299 252 315 226 346 c 0
 201 375 189 410 189 452 c 0
 189 495 204 532 233 561 c 0
 262 591 300 606 346 606 c 0
 394 606 431 592 457 564 c 0
 486 529 501 491 501 450 c 0
 503 400 489 355 459 314 c 1
 247 -1 l 1
 129 -1 l 1
 129 75 123 137 110 182 c 1
 75 253 l 1
 57 292 40 335 24 383 c 1
 10 433 4 477 4 515 c 0
 6 563 22 608 52 652 c 0
 82 697 122 734 173 763 c 0
 225 790 284 804 351 804 c 0
346 390 m 0
 366 390 380 396 390 408 c 0
 401 419 406 433 406 450 c 0
 406 468 401 483 390 494 c 1
 382 505 367 511 346 511 c 0
 329 511 315 504 302 491 c 0
 291 481 286 467 286 450 c 0
 286 433 291 419 302 408 c 0
 314 396 329 390 346 390 c 0
EndSplineSet
MinimumDistance: x2,-1 
EndChar
StartChar: uni0E15
Encoding: 181 3605
OldEncoding: 3605
Width: 799
Flags: HW
HStem: -1 21G<129.17 246.69 554.05 688.52> 513 95<336 354>
VStem: 1 115<491 514> 189 97<445 463> 406 95<451 463> 554 134<13 565>
Fore
688 -1 m 1
 554 -1 l 1
 554 551 l 2
 554 595 548 627 536 646 c 0
 525 665 508 681 487 693 c 1
 368 646 l 1
 242 693 l 1
 159 649 116 588 116 511 c 0
 116 454 139 382 182 295 c 0
 196 267 206 238 214 209 c 1
 222 163 l 1
 267 233 l 1
 313 299 l 1
 281 302 252 318 226 348 c 0
 201 377 189 413 189 454 c 0
 189 498 204 534 233 564 c 0
 263 593 300 608 346 608 c 0
 394 608 431 594 457 566 c 0
 486 531 501 493 501 452 c 0
 503 402 489 357 459 316 c 1
 247 -1 l 1
 129 -1 l 1
 129 76 123 137 110 182 c 1
 75 253 l 2
 55 293 36 336 20 383 c 1
 8 425 1 469 1 515 c 0
 4 579 31 638 83 693 c 1
 132 748 185 783 242 800 c 1
 368 747 l 1
 494 802 l 1
 573 763 625 725 649 688 c 1
 675 653 688 602 688 533 c 2
 688 -1 l 1
346 390 m 0
 366 390 380 396 390 408 c 0
 401 419 406 434 406 452 c 0
 406 471 401 485 390 496 c 1
 382 507 367 513 346 513 c 0
 328 513 313 507 302 494 c 0
 292 483 286 469 286 452 c 0
 286 434 292 419 302 408 c 0
 314 396 329 390 346 390 c 0
EndSplineSet
MinimumDistance: x0,-1 
EndChar
StartChar: uni0E16
Encoding: 182 3606
OldEncoding: 3606
Width: 807
Flags: HW
HStem: -14 88<236 249> -1 21G<562.92 696.26> 207 88<238.659 255.075> 703 102<348 396>
VStem: 84 95<136 146> 312 84<128 146> 563 133<0 554>
Fore
221 295 m 1
 239 295 l 2
 288 295 327 280 354 249 c 0
 382 218 396 182 396 141 c 0
 396 97 382 61 354 32 c 1
 327 1 288 -14 239 -14 c 0
 192 -14 155 1 128 32 c 1
 98 61 84 97 84 141 c 2
 84 381 l 2
 84 427 89 462 100 485 c 0
 111 512 130 534 157 552 c 1
 144 559 125 565 102 571 c 0
 70 580 41 586 14 587 c 1
 14 631 l 1
 42 666 l 2
 53 678 75 697 109 724 c 1
 146 748 184 767 225 781 c 0
 266 797 319 805 382 805 c 0
 445 805 499 796 544 777 c 0
 591 756 628 726 656 689 c 0
 683 650 696 602 696 545 c 2
 696 -1 l 1
 563 -1 l 1
 563 534 l 2
 563 590 545 632 510 662 c 0
 474 689 428 703 371 703 c 0
 305 703 240 683 176 642 c 1
 206 636 l 2
 212 635 231 630 263 620 c 0
 288 611 310 598 331 583 c 1
 331 518 l 1
 306 518 281 510 257 494 c 0
 233 479 221 445 221 390 c 2
 221 295 l 1
250 74 m 1
 268 76 283 83 294 94 c 0
 306 106 312 121 312 138 c 0
 312 158 306 175 294 189 c 0
 282 201 263 207 239 207 c 1
 218 205 204 198 195 187 c 0
 184 176 179 161 179 141 c 0
 179 124 185 109 197 94 c 0
 208 81 226 74 250 74 c 1
EndSplineSet
MinimumDistance: x20,-1 
EndChar
StartChar: uni0E17
Encoding: 183 3607
OldEncoding: 3607
Width: 875
Flags: HW
HStem: -1 21G<173.08 299.64 635.25 769.72> 684 106<599 609> 705 95<136.012 153>
VStem: -8 95<637 656> 173 133<324 491> 207 99<637 658> 635 134<13 623>
DStem: 443.15 656.575 570.84 652.055 306.42 323.225 299.64 -1.08496
Fore
173 -1 m 1
 173 492 l 1
 122 489 l 1
 83 494 51 512 27 542 c 0
 4 573 -8 607 -8 646 c 0
 -8 689 6 726 34 756 c 1
 59 785 97 800 147 800 c 0
 197 800 236 785 266 754 c 0
 293 724 306 686 306 640 c 2
 306 323 l 1
 443 657 l 2
 464 707 483 742 501 763 c 1
 520 781 555 790 606 790 c 0
 680 790 726 774 741 741 c 1
 760 710 769 664 769 603 c 2
 769 -1 l 1
 635 -1 l 1
 635 593 l 2
 635 626 634 651 631 666 c 0
 629 675 622 681 608 684 c 1
 596 684 587 680 582 672 c 0
 578 668 574 661 571 652 c 1
 300 -1 l 1
 173 -1 l 1
147 582 m 0
 167 582 181 588 191 600 c 0
 202 611 207 626 207 644 c 0
 207 663 202 678 191 688 c 1
 183 700 168 705 147 705 c 0
 131 705 116 699 103 686 c 0
 92 675 87 661 87 644 c 0
 87 626 92 611 103 600 c 0
 115 588 130 582 147 582 c 0
EndSplineSet
MinimumDistance: x14,-1 
EndChar
StartChar: uni0E18
Encoding: 184 3608
OldEncoding: 3608
Width: 690
Flags: HW
HStem: -1 120<39 129 261 401> 646 103<535 553> 703 99<260 287>
VStem: 129 133<119 479> 446 134<173 399>
Fore
138 633 m 1
 159 635 l 1
 216 635 l 2
 354 635 455 610 520 559 c 1
 560 525 580 467 580 383 c 2
 580 149 l 2
 580 86 569 45 547 27 c 1
 528 8 482 -1 411 -1 c 2
 32 -1 l 1
 32 119 l 1
 129 119 l 1
 129 487 l 1
 262 487 l 1
 262 119 l 1
 384 119 l 2
 411 119 428 123 437 131 c 1
 443 139 446 158 446 186 c 2
 446 385 l 2
 446 412 443 434 439 450 c 0
 434 465 421 482 399 498 c 1
 385 512 347 522 284 529 c 0
 214 536 148 540 87 540 c 2
 -7 538 l 1
 -7 619 l 1
 19 667 57 709 106 747 c 0
 155 784 214 802 282 802 c 0
 325 802 376 794 437 776 c 0
 492 758 529 749 545 749 c 0
 573 749 602 757 631 772 c 1
 661 672 l 1
 621 655 584 646 552 646 c 0
 526 646 481 656 419 675 c 0
 352 693 302 703 267 703 c 0
 232 703 203 694 180 677 c 0
 162 663 148 649 138 633 c 1
EndSplineSet
MinimumDistance: x4,-1 y10,12 y10,11 y8,10 x10,8 x10,9 
EndChar
StartChar: uni0E19
Encoding: 185 3609
OldEncoding: 3609
Width: 859
Flags: HW
HStem: -0 21G<159.05 289> 710 95<136 152> 766 20G<553.42 686.76>
VStem: -16 97<638 656> 159 134<201 496> 201 93<638 656> 553 133<111 256 356 784> 746 92<152 154 154.413 165.664 165.695 183.146>
Fore
553 786 m 1
 686 786 l 1
 686 358 l 1
 735 349 773 326 799 289 c 0
 827 246 841 201 838 154 c 1
 838 103 822 62 792 32 c 0
 762 -0 724 -16 680 -16 c 0
 646 -16 617 -6 592 13 c 0
 566 35 553 67 553 110 c 2
 553 258 l 1
 495 241 439 205 386 150 c 0
 333 96 300 46 289 -0 c 1
 159 -0 l 1
 159 497 l 1
 150 497 l 1
 139 495 l 1
 91 495 54 511 26 543 c 0
 -2 573 -16 609 -16 649 c 0
 -16 692 -2 729 26 759 c 0
 54 790 92 805 139 805 c 0
 182 805 218 793 247 768 c 1
 278 739 293 705 293 666 c 2
 293 201 l 1
 324 241 363 275 410 300 c 0
 459 328 507 347 553 358 c 1
 553 786 l 1
141 587 m 0
 161 587 176 594 187 606 c 0
 196 618 201 632 201 649 c 0
 201 667 196 682 187 693 c 0
 177 705 161 710 141 710 c 0
 123 710 108 704 97 691 c 0
 86 681 81 667 81 649 c 0
 81 631 86 617 97 606 c 0
 108 594 123 587 141 587 c 0
746 166 m 0
 746 191 740 212 729 229 c 0
 718 244 703 254 686 258 c 1
 686 113 l 1
 688 93 695 83 706 83 c 1
 713 85 720 90 726 97 c 1
 740 132 l 1
 744 145 746 156 746 166 c 0
EndSplineSet
MinimumDistance: x4,-1 
EndChar
StartChar: uni0E1A
Encoding: 186 3610
OldEncoding: 3610
Width: 831
Flags: HW
HStem: -1 120<65 149 287 533> 489 93<101 133> 705 95<126 133> 765 20G<584.3 721.03>
VStem: -27 95<637 655> 154 134<119 491> 189 99<637 655> 584 137<173 783>
Fore
154 119 m 1
 154 492 l 1
 148 490 131 489 103 489 c 1
 64 494 33 512 8 542 c 0
 -15 574 -27 609 -27 646 c 0
 -27 674 -21 700 -10 723 c 0
 2 748 20 767 43 779 c 0
 67 793 96 800 129 800 c 0
 178 800 217 785 246 754 c 0
 274 724 288 686 288 640 c 2
 288 119 l 1
 513 119 l 2
 543 119 563 124 573 133 c 0
 581 141 584 159 584 186 c 2
 584 785 l 1
 721 785 l 5
 721 151 l 2
 721 92 705 52 672 32 c 0
 637 10 584 -1 513 -1 c 2
 52 -1 l 1
 52 119 l 1
 154 119 l 1
129 582 m 0
 145 582 159 588 173 600 c 0
 184 611 189 626 189 644 c 0
 189 663 184 678 173 688 c 0
 162 700 147 705 129 705 c 0
 112 705 98 699 85 686 c 0
 74 675 68 661 68 644 c 0
 68 626 74 611 85 600 c 0
 97 588 112 582 129 582 c 0
EndSplineSet
MinimumDistance: x15,-1 y19,0 x0,19 x0,20 
EndChar
StartChar: uni0E1B
Encoding: 187 3611
OldEncoding: 3611
Width: 831
Flags: HW
HStem: -18 120<65 149 287 533> 472 93<101 133> 688 95<126 133>
VStem: -27 95<620 639> 154 134<102 474> 189 99<620 639> 584 137<157 1071>
Fore
154 102 m 1
 154 475 l 1
 148 473 131 472 103 472 c 1
 64 477 33 495 8 526 c 0
 -15 557 -27 592 -27 630 c 0
 -27 657 -21 683 -10 706 c 0
 2 731 20 750 43 762 c 0
 67 776 96 783 129 783 c 0
 178 783 217 768 246 737 c 0
 274 707 288 669 288 623 c 2
 288 102 l 1
 513 102 l 2
 543 102 563 107 573 116 c 0
 581 124 584 142 584 170 c 2
 584 1077 l 1
 721 1077 l 1
 721 135 l 2
 721 75 705 35 672 15 c 0
 637 -7 584 -18 513 -18 c 2
 52 -18 l 1
 52 102 l 1
 154 102 l 1
129 565 m 0
 145 565 159 571 173 583 c 0
 184 594 189 609 189 627 c 0
 189 646 184 661 173 671 c 0
 162 683 147 688 129 688 c 0
 112 688 98 682 85 669 c 0
 74 659 68 645 68 627 c 0
 68 609 74 594 85 583 c 0
 97 571 112 565 129 565 c 0
EndSplineSet
MinimumDistance: x15,-1 y19,0 x0,19 x0,20 
EndChar
StartChar: uni0E1C
Encoding: 188 3612
OldEncoding: 3612
Width: 814
Flags: HW
HStem: -1 21G<60.9502 188.64 572.84 705.05> 705 95<210.292 234> 765 20G<570.58 705.05>
VStem: 61 99<637 655> 61 134<266 491> 281 95<637 655> 571 134<13 15 266 783>
Fore
189 -1 m 1
 61 -1 l 1
 61 640 l 2
 61 684 75 722 103 754 c 0
 132 785 172 800 221 800 c 0
 255 800 284 793 308 779 c 0
 332 764 349 745 359 723 c 0
 371 700 376 674 376 646 c 0
 376 607 365 573 341 542 c 0
 317 512 285 494 246 489 c 1
 195 492 l 1
 195 266 l 1
 383 458 l 1
 571 266 l 1
 571 785 l 1
 705 785 l 1
 705 -1 l 1
 573 -1 l 1
 573 61 557 109 527 145 c 2
 381 309 l 1
 233 145 l 2
 203 113 189 64 189 -1 c 1
221 705 m 0
 205 705 190 699 177 686 c 0
 166 675 160 661 160 644 c 0
 160 626 166 611 177 600 c 0
 189 588 204 582 221 582 c 0
 237 582 252 588 265 600 c 0
 276 611 281 626 281 644 c 0
 281 663 276 678 265 688 c 0
 254 700 239 705 221 705 c 0
EndSplineSet
MinimumDistance: x15,-1 
EndChar
StartChar: uni0E1D
Encoding: 189 3613
OldEncoding: 3613
Width: 814
Flags: HW
HStem: -18 21G<60.9502 188.64 572.84 705.05> 688 95<210.292 234>
VStem: 61 99<620 639> 61 134<249 474> 281 95<620 639> 571 134<-3 -1 249 1071>
Fore
189 -18 m 1
 61 -18 l 1
 61 623 l 2
 61 667 75 705 103 737 c 0
 132 768 172 783 221 783 c 0
 255 783 284 776 308 762 c 0
 332 747 349 728 359 706 c 0
 371 683 376 657 376 630 c 0
 376 590 365 556 341 526 c 0
 317 495 285 477 246 472 c 1
 195 475 l 1
 195 249 l 1
 383 441 l 1
 571 249 l 1
 571 1077 l 1
 705 1077 l 1
 705 -18 l 1
 573 -18 l 1
 573 44 557 92 527 128 c 2
 381 292 l 1
 233 128 l 2
 203 96 189 48 189 -18 c 1
221 688 m 0
 205 688 190 682 177 669 c 0
 166 659 160 645 160 627 c 0
 160 609 166 594 177 583 c 0
 189 571 204 565 221 565 c 0
 237 565 252 571 265 583 c 0
 276 594 281 609 281 627 c 0
 281 646 276 661 265 671 c 0
 254 683 239 688 221 688 c 0
EndSplineSet
MinimumDistance: x15,-1 
EndChar
StartChar: uni0E1E
Encoding: 190 3614
OldEncoding: 3614
Width: 932
Flags: HW
HStem: -1 21G<141.14 273.35 686.93 821.4> 489 93<91 123> 705 95<107.391 123> 765 20G<686.93 821.4>
VStem: -37 95<637 655> 178 99<637 655> 687 134<360 783>
DStem: 481.27 767.315 481.27 500.635 277.87 359.385 291.43 105.135
Fore
277 359 m 1
 481 767 l 1
 687 359 l 1
 687 785 l 1
 821 785 l 1
 821 -1 l 1
 687 -1 l 1
 682 50 l 1
 680 71 676 89 669 105 c 1
 481 501 l 1
 291 105 l 1
 285 89 279 71 277 50 c 1
 273 -1 l 1
 141 -1 l 1
 141 492 l 1
 137 490 120 489 93 489 c 1
 53 494 22 512 -2 542 c 0
 -26 574 -37 609 -37 646 c 0
 -37 674 -32 700 -20 723 c 0
 -10 746 8 764 33 779 c 0
 57 793 85 800 119 800 c 0
 168 800 207 785 236 754 c 0
 264 724 277 686 277 640 c 2
 277 359 l 1
119 582 m 0
 135 582 149 588 161 600 c 0
 173 611 178 626 178 644 c 0
 178 663 173 678 161 688 c 0
 151 700 137 705 119 705 c 0
 102 705 87 699 74 686 c 0
 63 675 58 661 58 644 c 0
 58 626 63 611 74 600 c 0
 87 588 101 582 119 582 c 0
EndSplineSet
MinimumDistance: x4,-1 
EndChar
StartChar: uni0E1F
Encoding: 191 3615
OldEncoding: 3615
Width: 932
Flags: HW
HStem: -18 21G<141.14 273.35 686.93 821.4> 472 93<91 123> 688 95<107.391 123>
VStem: -37 95<620 639> 178 99<620 639> 687 134<343 1071>
DStem: 481.27 750.415 481.27 483.735 277.87 342.485 291.43 88.2354
Fore
277 342 m 1
 481 750 l 1
 687 342 l 1
 687 1077 l 1
 821 1077 l 1
 821 -18 l 1
 687 -18 l 1
 682 33 l 1
 680 54 676 72 669 88 c 1
 481 484 l 1
 291 88 l 1
 285 72 279 54 277 33 c 1
 273 -18 l 1
 141 -18 l 1
 141 475 l 1
 137 473 120 472 93 472 c 1
 53 477 22 495 -2 526 c 0
 -26 557 -37 592 -37 630 c 0
 -37 657 -32 683 -20 706 c 0
 -10 729 8 747 33 762 c 0
 57 776 85 783 119 783 c 0
 168 783 207 768 236 737 c 0
 264 707 277 669 277 623 c 2
 277 342 l 1
119 565 m 0
 135 565 149 571 161 583 c 0
 173 594 178 609 178 627 c 0
 178 646 173 661 161 671 c 0
 151 683 137 688 119 688 c 0
 102 688 87 682 74 669 c 0
 63 659 58 645 58 627 c 0
 58 609 63 594 74 583 c 0
 87 571 101 565 119 565 c 0
EndSplineSet
MinimumDistance: x4,-1 
EndChar
StartChar: uni0E20
Encoding: 192 3616
OldEncoding: 3616
Width: 876
Flags: HW
HStem: -0 21G<631.64 766.11> 205 88<124 148> 704 102<428 462>
VStem: -18 87<134 144> 203 86<126 144> 632 134<14 554>
Fore
137 293 m 2
 148 293 l 1
 153 291 l 1
 153 382 l 2
 153 425 159 460 172 485 c 1
 184 516 201 538 225 552 c 1
 210 559 191 565 169 571 c 0
 136 580 107 586 81 587 c 1
 81 631 l 1
 111 666 l 2
 125 682 148 701 179 724 c 0
 212 747 250 766 292 782 c 0
 334 797 388 806 451 806 c 0
 513 806 568 795 614 775 c 1
 662 757 699 727 724 687 c 1
 752 647 766 600 766 545 c 2
 766 -0 l 1
 632 -0 l 1
 632 534 l 2
 632 591 614 633 579 662 c 0
 543 690 497 704 440 704 c 0
 408 704 375 698 340 687 c 0
 306 678 275 663 245 643 c 1
 311 627 l 1
 312 627 l 2
 338 621 368 606 400 583 c 1
 400 518 l 1
 376 518 352 510 329 495 c 0
 302 479 289 444 289 391 c 2
 289 141 l 2
 289 95 276 58 250 30 c 1
 226 1 189 -14 137 -16 c 1
 85 -14 47 1 23 30 c 1
 -5 59 -18 95 -18 136 c 0
 -18 181 -5 218 23 247 c 0
 49 278 87 293 137 293 c 2
137 71 m 0
 159 71 175 78 188 92 c 0
 198 103 203 118 203 139 c 0
 203 183 181 205 137 205 c 0
 116 205 100 199 88 187 c 0
 75 172 69 156 69 139 c 0
 69 123 75 107 88 92 c 0
 100 78 116 71 137 71 c 0
EndSplineSet
MinimumDistance: x15,-1 
EndChar
StartChar: uni0E21
Encoding: 193 3617
OldEncoding: 3617
Width: 842
Flags: HW
HStem: -0 21G<601.585 731.535> 490 93<152 164 175 177> 706 95<153.629 178> 766 20G<597.065 731.535>
VStem: 9 95<639 657> 14 102<152 154 154.712 182.504> 183 134<110 241 362 492> 225 93<639 657> 597 134<213 785>
Fore
597 786 m 1
 731 786 l 1
 731 -0 l 1
 602 -0 l 1
 595 28 579 60 553 97 c 0
 531 129 497 163 451 196 c 0
 411 227 366 245 317 252 c 1
 317 120 l 2
 317 74 306 41 281 20 c 0
 253 -4 223 -16 193 -16 c 0
 141 -18 97 -2 63 33 c 0
 30 65 14 106 14 155 c 0
 12 207 27 256 60 300 c 1
 93 339 134 360 183 364 c 1
 183 493 l 1
 177 493 l 1
 164 490 l 1
 118 490 81 506 51 537 c 0
 23 567 9 603 9 645 c 0
 9 689 23 726 49 757 c 1
 78 786 116 801 164 801 c 0
 205 801 241 788 274 761 c 0
 303 736 317 703 317 662 c 2
 317 360 l 1
 402 348 467 326 510 294 c 0
 556 259 585 232 597 212 c 1
 597 786 l 1
164 583 m 0
 182 583 196 589 208 601 c 0
 220 612 225 627 225 645 c 0
 225 664 220 679 208 689 c 0
 198 700 183 706 164 706 c 0
 148 706 134 700 121 687 c 0
 110 676 104 662 104 645 c 0
 104 627 110 612 121 601 c 0
 133 589 148 583 164 583 c 0
183 259 m 1
 162 256 146 247 135 231 c 0
 122 213 116 191 116 166 c 0
 116 115 132 88 164 86 c 0
 177 86 183 95 183 113 c 2
 183 259 l 1
EndSplineSet
MinimumDistance: x1,-1 
EndChar
StartChar: uni0E22
Encoding: 194 3618
OldEncoding: 3618
Width: 779
Flags: HW
HStem: -1 120<203 481> 503 93<255 273> 707 95<255 273> 765 20G<531.955 668.685>
VStem: 320 89<649 662> 532 137<173 783>
Fore
176 376 m 1
 139 388 109 412 86 450 c 1
 61 485 48 526 48 573 c 0
 48 607 54 637 64 661 c 0
 81 706 106 742 141 767 c 1
 177 791 217 802 261 802 c 0
 306 802 342 788 368 760 c 0
 395 730 409 695 409 654 c 0
 409 614 396 578 370 547 c 1
 344 517 307 503 261 503 c 0
 242 503 220 508 194 520 c 1
 174 524 164 529 164 533 c 1
 166 533 l 1
 166 502 187 476 229 454 c 0
 268 435 309 425 353 423 c 1
 353 323 l 1
 297 323 257 311 234 288 c 1
 210 268 199 235 199 191 c 2
 199 119 l 1
 461 119 l 2
 491 119 511 123 521 133 c 0
 528 141 532 158 532 186 c 2
 532 785 l 1
 669 785 l 1
 669 149 l 2
 669 86 658 45 636 27 c 0
 614 8 568 -1 499 -1 c 2
 64 -1 l 1
 64 191 l 2
 64 237 73 274 90 302 c 0
 104 327 121 346 139 359 c 0
 151 367 163 372 176 376 c 1
263 596 m 0
 283 596 297 601 305 612 c 0
 315 624 320 638 320 652 c 0
 320 665 315 678 305 690 c 0
 297 702 283 707 263 707 c 0
 244 707 231 702 222 690 c 1
 211 680 205 667 205 652 c 0
 205 638 211 625 222 615 c 1
 233 602 246 596 263 596 c 0
EndSplineSet
MinimumDistance: x23,-1 
EndChar
StartChar: uni0E23
Encoding: 195 3619
OldEncoding: 3619
Width: 676
Flags: HW
HStem: -10 95<399 417> 654 102<529.914 561> 710 99<239 273>
VStem: 250 95<132 151> 468 102<132 151>
Fore
570 388 m 2
 570 149 l 2
 570 105 554 67 523 36 c 0
 490 5 450 -10 404 -10 c 0
 354 -10 316 5 291 36 c 1
 263 65 250 101 250 145 c 0
 250 188 263 225 291 253 c 0
 318 283 356 299 404 302 c 1
 433 299 l 1
 433 388 l 2
 433 413 430 434 426 450 c 0
 421 466 408 483 386 501 c 0
 374 512 348 522 307 531 c 0
 267 538 216 545 155 551 c 0
 99 557 42 559 -16 559 c 1
 -16 631 l 1
 10 680 46 722 92 756 c 0
 141 791 199 809 268 809 c 0
 316 809 369 800 428 783 c 0
 485 765 524 756 543 756 c 0
 573 756 602 764 631 779 c 1
 662 679 l 1
 621 663 582 654 546 654 c 0
 513 654 465 663 402 681 c 0
 341 700 292 710 254 710 c 0
 216 710 189 702 170 686 c 0
 152 669 140 656 134 646 c 1
 312 646 436 618 506 562 c 0
 548 526 570 468 570 388 c 2
407 85 m 0
 425 85 440 90 451 101 c 0
 462 112 468 127 468 145 c 0
 468 162 463 177 453 189 c 0
 442 199 427 205 407 205 c 0
 389 205 374 199 360 186 c 0
 350 176 345 162 345 145 c 0
 345 127 350 113 360 103 c 0
 374 91 389 85 407 85 c 0
EndSplineSet
MinimumDistance: x0,-1 
EndChar
StartChar: uni0E24
Encoding: 196 3620
OldEncoding: 3620
Width: 807
Flags: HW
HStem: 9 88<226 240> 230 88<224 254> 726 102<348 396>
VStem: 84 90<156 174> 305 90<156 174> 563 133<-372 576>
Fore
221 318 m 1
 239 318 l 2
 288 318 327 303 354 272 c 0
 382 241 395 205 395 163 c 0
 395 120 382 84 354 55 c 1
 327 24 288 9 239 9 c 0
 192 9 155 24 128 55 c 1
 98 84 84 120 84 163 c 2
 84 404 l 2
 84 450 89 485 100 508 c 0
 111 534 130 557 157 575 c 1
 144 582 125 588 102 594 c 0
 70 603 41 608 14 610 c 1
 14 654 l 1
 42 689 l 2
 53 701 75 720 109 747 c 1
 146 771 184 790 225 804 c 0
 266 820 319 828 382 828 c 0
 445 828 499 818 544 800 c 0
 591 779 628 749 656 711 c 0
 683 672 696 624 696 568 c 2
 696 -387 l 1
 563 -387 l 1
 563 557 l 2
 563 612 545 655 510 684 c 0
 474 712 428 726 371 726 c 0
 305 726 240 706 176 665 c 1
 206 658 l 2
 212 658 231 652 263 643 c 0
 288 634 310 621 331 605 c 1
 331 541 l 1
 306 541 281 533 257 517 c 0
 233 502 221 467 221 413 c 2
 221 318 l 1
239 97 m 0
 261 97 278 104 289 117 c 0
 300 128 305 143 305 163 c 0
 305 208 283 230 239 230 c 0
 218 230 202 224 192 212 c 0
 180 198 174 182 174 163 c 0
 174 147 180 131 192 117 c 0
 204 104 219 97 239 97 c 0
EndSplineSet
MinimumDistance: x20,-1 
EndChar
StartChar: uni0E25
Encoding: 197 3621
OldEncoding: 3621
Width: 773
Flags: HW
HStem: -16 93<223.687 235.221> -0 21G<529.06 665.79> 701 102<313 351>
VStem: 295 95<124.637 138.664 142 146> 529 137<349 560>
Fore
235 -16 m 0
 189 -16 151 -2 121 26 c 0
 89 55 73 88 70 125 c 0
 67 161 66 228 66 329 c 1
 73 397 93 452 127 495 c 1
 159 540 204 562 260 562 c 0
 317 565 367 550 408 518 c 0
 447 488 476 454 496 417 c 1
 529 349 l 1
 529 539 l 2
 529 592 512 632 478 660 c 0
 442 687 393 701 332 701 c 0
 281 701 236 689 196 664 c 0
 160 641 129 612 103 578 c 1
 26 645 l 1
 50 684 90 721 145 755 c 0
 201 787 263 803 332 803 c 0
 427 803 507 780 571 733 c 0
 634 686 666 622 666 541 c 2
 666 -0 l 1
 529 -0 l 1
 524 27 508 86 483 178 c 1
 456 257 426 322 392 375 c 0
 354 434 312 463 267 461 c 0
 209 458 180 400 180 287 c 1
 202 291 l 1
 235 293 l 1
 286 291 324 277 348 252 c 0
 376 222 390 186 390 143 c 0
 392 99 378 61 348 30 c 1
 325 2 287 -14 235 -16 c 0
235 77 m 0
 254 77 270 83 282 95 c 1
 291 106 295 121 295 139 c 0
 295 157 291 171 282 183 c 0
 271 193 256 199 235 199 c 0
 216 199 201 193 191 180 c 0
 181 170 175 156 175 139 c 0
 175 121 181 107 191 97 c 0
 202 83 217 77 235 77 c 0
EndSplineSet
MinimumDistance: x18,-1 
EndChar
StartChar: uni0E26
Encoding: 198 3622
OldEncoding: 3622
Width: 876
Flags: HW
HStem: 228 88<124 148> 726 102<428 462>
VStem: -18 87<156 166> 203 86<156 174> 632 134<-372 576>
Fore
137 316 m 2
 148 316 l 1
 153 314 l 1
 153 404 l 2
 153 448 159 482 172 508 c 1
 184 538 201 560 225 575 c 1
 210 582 191 588 169 594 c 0
 136 603 107 608 81 610 c 1
 81 654 l 1
 111 689 l 2
 125 705 148 724 179 747 c 0
 212 770 250 789 292 804 c 0
 334 820 388 828 451 828 c 0
 513 828 568 818 614 797 c 1
 662 779 699 750 724 709 c 1
 752 670 766 623 766 568 c 2
 766 -387 l 1
 632 -387 l 1
 632 557 l 2
 632 613 614 656 579 684 c 0
 543 712 497 726 440 726 c 0
 408 726 375 721 340 709 c 0
 306 700 275 685 245 665 c 1
 311 649 l 1
 312 649 l 2
 338 643 368 629 400 605 c 1
 400 541 l 1
 376 541 352 533 329 517 c 0
 302 501 289 467 289 413 c 2
 289 163 l 2
 289 117 276 81 250 53 c 1
 226 24 189 9 137 6 c 1
 85 9 47 24 23 53 c 1
 -5 82 -18 117 -18 159 c 0
 -18 203 -5 240 23 270 c 0
 49 301 87 316 137 316 c 2
137 93 m 0
 159 93 175 101 188 115 c 0
 198 125 203 141 203 161 c 0
 203 206 181 228 137 228 c 0
 116 228 100 222 88 210 c 0
 75 195 69 179 69 161 c 0
 69 145 75 130 88 115 c 0
 100 101 116 93 137 93 c 0
EndSplineSet
MinimumDistance: x15,-1 
EndChar
StartChar: uni0E27
Encoding: 199 3623
OldEncoding: 3623
Width: 704
Flags: HW
HStem: -16 93<424.922 438> 198 95<423.46 436.477> 693 112<247.521 294>
VStem: 279 97<126.048 138.531 145 147> 459 134<291 544> 496 97<126 147>
Fore
437 293 m 1
 459 291 l 1
 459 534 l 2
 459 592 442 632 408 655 c 0
 372 681 328 693 276 693 c 0
 189 696 113 651 50 560 c 1
 -43 631 l 1
 -13 679 28 721 82 757 c 1
 137 789 203 805 279 805 c 0
 380 805 457 781 512 733 c 0
 566 683 593 618 593 536 c 2
 593 143 l 2
 593 96 579 59 550 30 c 0
 520 -1 482 -16 437 -16 c 0
 388 -16 349 -1 320 30 c 0
 290 63 276 102 279 145 c 1
 279 184 295 219 325 252 c 0
 353 279 390 293 437 293 c 1
437 77 m 0
 455 77 471 82 483 94 c 1
 492 106 496 120 496 139 c 0
 496 157 492 171 483 183 c 0
 472 193 457 198 437 198 c 0
 417 198 402 192 392 180 c 0
 382 170 376 156 376 139 c 0
 376 121 382 107 392 97 c 0
 404 83 418 77 437 77 c 0
EndSplineSet
MinimumDistance: x10,-1 
EndChar
StartChar: uni0E28
Encoding: 200 3624
OldEncoding: 3624
Width: 796
Flags: HW
HStem: -4 21G<133.14 269.87 551.24 685.71> 511 97<334.325 348.238>
VStem: 3 116<498 521> 133 137<11 157> 394 95<449.525 463.476> 551 134<11 532>
Fore
595 727 m 1
 598 727 605 739 619 763 c 0
 633 791 643 818 648 842 c 1
 765 787 l 1
 758 756 744 724 723 692 c 0
 700 658 683 635 670 624 c 1
 679 593 l 1
 683 579 685 559 685 531 c 2
 685 -4 l 1
 551 -4 l 1
 551 498 l 1
 551 535 l 1
 532 522 508 511 480 504 c 1
 485 485 l 2
 488 472 489 461 489 450 c 0
 487 406 473 369 447 339 c 0
 424 310 386 295 334 292 c 1
 297 297 l 1
 279 301 270 304 270 306 c 2
 270 -4 l 1
 133 -4 l 1
 133 133 l 2
 133 171 127 202 116 228 c 0
 103 259 87 291 68 325 c 0
 47 362 31 395 19 422 c 0
 8 448 3 481 3 522 c 0
 5 583 23 635 56 679 c 0
 88 723 130 754 182 774 c 1
 231 795 285 807 343 809 c 0
 380 809 413 806 440 800 c 0
 466 795 496 784 531 767 c 0
 555 756 576 743 595 727 c 1
425 579 m 1
 441 579 458 587 476 601 c 2
 515 630 l 1
 495 655 470 673 438 683 c 0
 404 695 367 700 330 700 c 0
 275 698 227 680 186 646 c 1
 142 612 119 569 119 517 c 0
 119 491 126 462 138 429 c 0
 147 401 152 387 153 387 c 1
 153 390 l 2
 153 427 165 472 189 524 c 1
 209 578 257 606 334 608 c 0
 364 608 385 604 396 598 c 0
 409 592 419 585 425 579 c 1
334 387 m 0
 353 387 369 393 381 405 c 1
 390 417 394 432 394 450 c 0
 394 468 390 482 381 494 c 0
 370 505 355 511 334 511 c 0
 316 511 302 504 290 491 c 0
 280 481 274 467 274 450 c 0
 274 431 280 417 290 405 c 0
 302 393 317 387 334 387 c 0
EndSplineSet
MinimumDistance: x7,-1 
EndChar
StartChar: uni0E29
Encoding: 201 3625
OldEncoding: 3625
Width: 837
Flags: HW
HStem: -1 120<58 156 293 541> 485 72<442 448> 705 95<132 140> 765 20G<592.355 726.825>
VStem: -20 95<637 655> 161 133<119 491> 195 99<637 655> 322 79<432 447> 493 75<440 447> 592 134<173 267 404 783>
Fore
903 568 m 1
 903 522 896 484 882 452 c 0
 868 417 851 391 831 372 c 1
 813 351 793 335 771 323 c 2
 726 297 l 1
 726 151 l 2
 726 92 711 52 678 32 c 0
 646 10 593 -1 519 -1 c 2
 58 -1 l 1
 58 119 l 1
 161 119 l 1
 161 492 l 1
 112 489 l 1
 73 494 41 512 17 542 c 0
 -8 572 -20 606 -20 646 c 0
 -20 689 -6 726 22 756 c 1
 47 785 84 800 135 800 c 0
 188 800 227 785 252 756 c 1
 280 726 294 687 294 640 c 2
 294 119 l 1
 523 119 l 2
 554 119 574 124 581 133 c 0
 589 141 592 159 592 186 c 2
 592 268 l 1
 508 268 446 278 406 299 c 1
 374 322 352 340 343 353 c 0
 331 370 325 397 322 434 c 0
 322 465 332 493 352 518 c 0
 374 544 406 557 447 557 c 0
 482 557 511 546 532 524 c 0
 556 499 568 471 568 441 c 0
 570 405 560 376 539 353 c 1
 570 353 588 353 592 355 c 1
 592 785 l 1
 726 785 l 1
 726 403 l 1
 767 425 788 480 788 568 c 1
 903 568 l 1
447 394 m 0
 463 394 475 399 482 408 c 0
 489 419 493 430 493 441 c 0
 493 454 488 464 479 474 c 0
 472 481 461 485 447 485 c 0
 432 485 422 480 415 471 c 1
 406 462 401 452 401 441 c 0
 401 431 406 420 415 408 c 0
 422 399 432 394 447 394 c 0
135 582 m 0
 154 582 169 588 181 600 c 1
 190 612 195 627 195 644 c 0
 195 662 190 677 181 688 c 0
 170 700 155 705 135 705 c 0
 118 705 103 699 91 686 c 0
 80 675 75 661 75 644 c 0
 75 626 80 611 91 600 c 0
 103 588 117 582 135 582 c 0
EndSplineSet
MinimumDistance: x4,-1 y8,10 x10,8 x10,9 
EndChar
StartChar: uni0E2A
Encoding: 202 3626
OldEncoding: 3626
Width: 770
Flags: HW
HStem: -21 93<220.987 232.545> -6 21G<526.395 663.125> 696 102<310 348>
VStem: 292 95<119.458 133.47 137 141> 524 139<344 560>
Fore
233 72 m 0
 251 72 267 77 279 89 c 1
 288 101 292 115 292 133 c 0
 292 152 288 166 279 178 c 0
 268 188 253 193 233 193 c 0
 213 193 198 187 189 175 c 0
 178 165 173 151 173 133 c 0
 173 116 178 102 189 92 c 0
 200 78 215 72 233 72 c 0
471 644 m 1
 439 679 392 696 330 696 c 0
 279 696 233 684 193 659 c 0
 158 636 127 607 100 573 c 1
 24 640 l 1
 48 679 87 715 142 749 c 0
 198 782 260 798 330 798 c 0
 402 798 467 783 524 754 c 1
 528 754 542 776 566 821 c 1
 587 866 600 888 605 888 c 1
 656 860 l 2
 686 843 704 830 709 823 c 1
 659 749 l 1
 632 709 619 687 619 682 c 1
 633 667 645 647 654 622 c 0
 660 604 663 575 663 536 c 2
 663 -6 l 1
 526 -6 l 1
 521 22 506 81 480 173 c 1
 454 251 424 317 390 370 c 0
 351 429 309 458 264 456 c 0
 206 453 177 395 177 282 c 1
 200 286 l 1
 233 288 l 1
 284 286 321 272 346 246 c 0
 373 217 387 181 387 138 c 0
 389 94 376 56 346 25 c 1
 322 -4 285 -19 233 -21 c 0
 187 -21 149 -7 118 20 c 0
 87 50 70 83 68 120 c 0
 65 155 63 223 63 323 c 1
 70 392 90 447 124 489 c 1
 157 535 201 557 257 557 c 1
 313 559 361 549 401 524 c 1
 404 524 416 544 436 584 c 0
 456 624 468 644 471 644 c 1
522 566 m 1
 517 550 507 531 494 511 c 0
 479 488 471 475 471 471 c 1
 485 453 496 432 505 407 c 1
 526 344 l 1
 524 456 l 1
 522 566 l 1
EndSplineSet
MinimumDistance: x23,-1 
EndChar
StartChar: uni0E2B
Encoding: 203 3627
OldEncoding: 3627
Width: 847
Flags: HW
HStem: -1 21G<141.95 274.16 599.6 736.33> 467 118<563.44 586.04> 489 93<92 122> 705 95<113 122 584 601>
VStem: -39 95<637 655> 142 132<13 47 365 491> 177 99<637 655> 429 97<637 655> 600 137<13 399> 646 95<637 655>
Fore
276 359 m 1
 305 407 340 447 380 478 c 0
 417 507 447 526 469 538 c 1
 442 569 429 605 429 646 c 0
 429 692 443 730 471 760 c 0
 499 788 539 802 593 802 c 0
 640 802 677 788 702 758 c 0
 728 727 741 689 741 646 c 0
 741 589 721 547 681 520 c 1
 689 517 701 505 716 482 c 0
 730 462 737 425 737 372 c 2
 737 -1 l 1
 600 -1 l 1
 600 372 l 2
 600 411 595 436 586 447 c 0
 577 460 569 467 563 467 c 1
 476 421 406 355 352 270 c 0
 300 186 274 105 274 29 c 2
 274 -1 l 1
 142 -1 l 1
 142 491 l 1
 137 490 121 489 93 489 c 1
 54 494 23 511 -2 542 c 0
 -26 572 -39 606 -39 646 c 0
 -39 689 -25 726 3 756 c 0
 29 785 67 800 116 800 c 0
 168 800 208 785 237 756 c 1
 263 723 276 685 276 639 c 2
 276 359 l 1
586 585 m 0
 606 585 621 591 630 603 c 1
 641 614 646 628 646 646 c 0
 646 665 641 680 630 690 c 1
 622 702 607 707 586 707 c 0
 568 707 553 701 542 688 c 0
 531 678 526 664 526 646 c 0
 526 628 531 614 542 603 c 0
 553 591 568 585 586 585 c 0
116 582 m 0
 136 582 150 588 160 600 c 0
 171 611 177 626 177 644 c 0
 177 663 171 678 160 688 c 1
 152 699 137 705 116 705 c 0
 101 705 86 699 72 686 c 0
 61 675 56 661 56 644 c 0
 56 626 61 611 72 600 c 0
 85 588 100 582 116 582 c 0
EndSplineSet
MinimumDistance: x7,-1 
EndChar
StartChar: uni0E2C
Encoding: 204 3628
OldEncoding: 3628
Width: 927
Flags: HW
HStem: -8 21G<138.495 268.445 682.025 816.495> 483 93<87 118> 619 93<675 682> 699 95<111 118> 816 93<665.829 684>
VStem: -42 95<630 649> 138 134<335 484> 174 99<630 651> 532 95<761 777> 682 134<335 619>
Fore
816 650 m 1
 816 -8 l 1
 682 -8 l 1
 678 43 l 1
 674 70 670 88 664 99 c 2
 476 451 l 1
 289 99 l 1
 282 87 277 69 275 43 c 1
 271 21 268 4 268 -8 c 1
 138 -8 l 1
 138 485 l 1
 132 483 116 483 88 483 c 1
 49 487 18 505 -7 536 c 0
 -31 567 -42 602 -42 640 c 0
 -42 668 -37 693 -25 717 c 0
 -13 741 4 760 28 772 c 0
 52 786 80 794 114 794 c 0
 163 794 202 778 231 747 c 0
 259 717 272 679 272 633 c 2
 272 335 l 1
 476 684 l 1
 682 335 l 1
 682 619 l 1
 639 619 604 633 576 661 c 1
 549 686 534 720 532 763 c 0
 532 804 545 838 571 867 c 0
 597 895 632 909 678 909 c 0
 732 909 771 893 792 860 c 1
 809 828 819 802 821 781 c 1
 842 798 858 830 870 878 c 1
 971 832 l 1
 964 796 951 767 933 745 c 0
 908 715 886 693 867 679 c 0
 845 662 828 652 816 650 c 1
678 712 m 0
 694 712 707 717 715 728 c 1
 725 736 731 749 731 765 c 0
 731 779 726 791 717 802 c 0
 708 812 695 816 678 816 c 0
 662 816 650 812 641 802 c 0
 632 792 627 780 627 765 c 0
 627 752 632 740 641 728 c 0
 652 717 664 712 678 712 c 0
114 576 m 0
 129 576 144 581 158 593 c 0
 168 605 174 619 174 638 c 0
 174 656 168 671 158 682 c 0
 146 693 132 699 114 699 c 0
 97 699 82 692 70 679 c 0
 58 669 53 655 53 638 c 0
 53 619 58 605 70 593 c 0
 82 581 96 576 114 576 c 0
EndSplineSet
MinimumDistance: x0,-1 
EndChar
StartChar: uni0E2D
Encoding: 205 3629
OldEncoding: 3629
Width: 785
Flags: HW
HStem: -1 120<245.329 486> 242 95<227 237> 457 94<226 237> 695 110<308 346>
VStem: 66 104<385 400> 66 134<173 243> 290 95<384 400> 538 137<173 554>
Fore
200 244 m 1
 200 186 l 2
 200 158 204 141 211 133 c 0
 219 123 237 119 267 119 c 2
 467 119 l 2
 497 119 517 123 527 133 c 0
 534 141 538 158 538 186 c 2
 538 533 l 2
 538 639 469 692 332 695 c 0
 288 695 247 686 207 668 c 1
 164 644 131 618 107 589 c 1
 21 659 l 1
 49 697 90 732 145 763 c 1
 199 790 263 805 337 805 c 0
 445 805 528 781 586 734 c 0
 645 687 675 621 675 535 c 2
 675 153 l 2
 675 92 663 52 640 31 c 0
 616 10 571 -1 505 -1 c 2
 235 -1 l 2
 191 -1 156 2 131 10 c 0
 107 16 90 30 80 52 c 0
 70 72 66 104 66 149 c 2
 66 385 l 2
 66 432 80 471 110 503 c 0
 140 535 179 551 228 551 c 0
 264 551 293 544 315 529 c 1
 339 515 357 497 369 473 c 0
 380 451 385 427 385 399 c 0
 385 357 371 320 343 288 c 0
 315 257 276 242 228 242 c 1
 211 244 l 1
 200 244 l 1
230 337 m 0
 248 337 263 343 277 355 c 1
 286 367 290 381 290 396 c 0
 290 414 286 429 277 440 c 1
 264 452 249 457 230 457 c 0
 214 457 199 451 186 438 c 0
 175 427 170 413 170 396 c 0
 170 381 175 367 186 355 c 0
 198 343 213 337 230 337 c 0
EndSplineSet
MinimumDistance: x15,-1 
EndChar
StartChar: uni0E2E
Encoding: 206 3630
OldEncoding: 3630
Width: 778
Flags: HW
HStem: -3 120<229 482> 395 95<203 228> 523 86<288 305 306.055 358.417> 720 95<288 338>
VStem: 34 106<652 662> 59 104<320 344> 59 134<141 196> 270 95<332 344> 531 137<172 557>
Fore
769 742 m 1
 735 695 701 659 668 631 c 1
 668 152 l 2
 668 91 656 51 633 30 c 0
 609 8 564 -3 498 -3 c 2
 228 -3 l 2
 184 -3 149 1 124 9 c 0
 99 16 82 29 73 48 c 0
 63 68 59 100 59 143 c 2
 59 322 l 2
 59 369 72 409 100 442 c 0
 128 474 169 490 221 490 c 0
 263 490 297 476 323 448 c 0
 349 418 363 384 365 344 c 1
 365 304 352 269 327 238 c 0
 303 210 268 194 221 192 c 1
 207 194 l 2
 199 194 195 195 193 196 c 1
 193 159 l 2
 193 139 196 127 202 123 c 1
 213 119 233 117 260 117 c 2
 462 117 l 2
 493 117 512 122 520 132 c 0
 527 139 531 157 531 185 c 2
 531 565 l 1
 525 559 504 550 469 539 c 0
 436 528 381 523 304 523 c 0
 232 523 169 534 114 556 c 0
 60 576 34 609 34 655 c 0
 34 688 48 716 78 740 c 1
 103 765 138 784 182 796 c 0
 224 808 265 815 304 815 c 0
 384 815 448 804 498 782 c 0
 541 764 573 746 593 729 c 1
 609 743 636 775 674 824 c 1
 769 742 l 1
217 289 m 0
 234 289 247 294 255 305 c 0
 265 317 270 329 270 342 c 0
 270 356 265 369 255 379 c 0
 247 390 234 395 217 395 c 0
 199 395 186 391 177 382 c 0
 167 370 163 356 163 342 c 0
 163 329 168 317 179 305 c 0
 188 294 200 289 217 289 c 0
306 609 m 0
 358 607 405 613 447 627 c 0
 483 640 500 650 500 655 c 1
 493 665 474 678 443 694 c 0
 413 711 368 720 308 720 c 0
 270 720 232 714 195 704 c 0
 158 692 140 677 140 660 c 0
 140 628 195 611 306 609 c 0
EndSplineSet
MinimumDistance: x1,-1 
EndChar
StartChar: uni0E2F
Encoding: 207 3631
OldEncoding: 3631
Width: 743
Flags: HW
HStem: 491 93<216 226> 707 97<215 226> 767 20G<500.24 632.45>
VStem: 281 95<638 656> 498 134<222 433 766 784>
Fore
34 607 m 1
 45 736 106 802 218 804 c 0
 246 804 273 797 297 783 c 1
 322 770 342 751 354 725 c 0
 369 699 376 673 376 646 c 0
 376 604 362 567 334 535 c 1
 305 506 266 491 218 491 c 1
 197 493 l 1
 182 493 l 1
 194 467 241 454 323 454 c 1
 370 461 412 497 447 561 c 0
 483 624 500 699 500 787 c 1
 632 787 l 1
 632 246 l 2
 632 165 614 104 577 65 c 1
 536 25 465 -7 364 -32 c 1
 336 75 l 1
 387 93 424 108 447 120 c 0
 470 133 484 147 489 165 c 0
 495 182 498 212 498 255 c 2
 498 442 l 1
 486 414 461 389 422 369 c 1
 383 346 340 334 292 334 c 1
 241 339 l 1
 180 352 130 383 91 431 c 0
 53 479 34 537 34 607 c 1
220 584 m 0
 237 584 252 590 264 602 c 0
 275 613 281 628 281 646 c 0
 281 665 275 679 264 690 c 0
 254 701 239 707 220 707 c 0
 204 707 190 701 177 688 c 0
 166 677 160 663 160 646 c 0
 160 628 166 613 177 602 c 0
 189 590 203 584 220 584 c 0
EndSplineSet
MinimumDistance: x12,-1 
EndChar
StartChar: uni0E30
Encoding: 208 3632
OldEncoding: 3632
Width: 585
Flags: HW
HStem: 227 95<149 167> 691 95<149 167>
VStem: 8 95<160.004 175 633.729 646.101>
Fore
159 322 m 0
 205 322 242 308 269 280 c 1
 295 252 309 217 311 174 c 1
 307 141 l 1
 302 110 l 1
 320 113 343 127 371 152 c 0
 399 178 413 231 413 312 c 1
 543 312 l 1
 543 216 518 140 468 83 c 0
 417 28 333 -0 216 -0 c 0
 161 -0 113 15 71 46 c 0
 29 76 8 118 8 172 c 0
 8 215 22 251 48 280 c 0
 74 308 110 322 159 322 c 0
159 786 m 0
 208 786 245 772 269 744 c 0
 295 718 309 682 311 636 c 1
 307 604 l 1
 302 574 l 1
 302 574 l 1
 335 585 l 1
 354 596 372 616 390 647 c 0
 405 677 413 719 413 775 c 1
 543 775 l 1
 543 707 533 653 512 611 c 0
 491 565 457 529 408 504 c 0
 359 478 295 465 216 465 c 0
 164 465 115 481 71 512 c 0
 25 542 4 582 6 634 c 0
 6 676 20 713 48 744 c 0
 73 772 110 786 159 786 c 0
161 113 m 0
 180 113 194 119 203 132 c 0
 212 143 216 156 216 172 c 0
 216 186 212 199 203 210 c 0
 194 221 181 227 161 227 c 0
 141 227 127 221 119 210 c 1
 109 199 103 187 103 172 c 0
 103 156 109 143 119 132 c 1
 128 119 142 113 161 113 c 0
161 576 m 0
 177 576 191 582 203 594 c 1
 212 606 216 619 216 634 c 0
 216 650 212 664 203 676 c 0
 194 686 181 691 161 691 c 0
 144 691 130 686 119 676 c 0
 109 665 103 651 103 634 c 0
 103 619 109 605 119 594 c 0
 131 582 145 576 161 576 c 0
EndSplineSet
MinimumDistance: x35,-1 
EndChar
StartChar: uni0E31
Encoding: 209 3633
OldEncoding: 3633
Width: 0
Flags: HW
HStem: 1091 95<-345 -333>
VStem: -494 97<1025 1043> -285 85<1025 1043>
Fore
-343 1186 m 0
 -299 1186 -263 1172 -236 1142 c 1
 -212 1114 -200 1077 -200 1034 c 0
 -200 1021 -202 1007 -207 992 c 1
 -218 963 l 1
 -204 960 l 1
 -183 958 l 1
 -144 958 -102 972 -56 1001 c 0
 -11 1029 29 1082 65 1161 c 1
 178 1122 l 1
 162 1065 136 1018 100 978 c 1
 57 935 11 904 -37 883 c 0
 -94 862 -151 851 -207 851 c 1
 -257 853 l 1
 -319 860 -374 880 -421 912 c 1
 -470 941 -494 982 -494 1034 c 0
 -494 1077 -480 1114 -454 1142 c 0
 -427 1174 -390 1188 -343 1186 c 0
-340 981 m 0
 -323 981 -310 986 -299 996 c 0
 -289 1009 -285 1022 -285 1036 c 0
 -285 1052 -289 1065 -299 1076 c 0
 -310 1086 -323 1091 -340 1091 c 0
 -357 1091 -371 1086 -382 1076 c 0
 -392 1065 -397 1052 -397 1036 c 0
 -397 1022 -392 1009 -382 996 c 0
 -371 986 -357 981 -340 981 c 0
EndSplineSet
MinimumDistance: x2,-1 
EndChar
StartChar: uni0E32
Encoding: 210 3634
OldEncoding: 3634
Width: 650
Flags: HW
HStem: -2 21G<405.77 540.24> 702 106<250 272>
VStem: 406 134<13 591>
Fore
-20 595 m 1
 -5 646 24 695 68 741 c 0
 113 786 180 808 269 808 c 0
 365 806 435 786 478 746 c 0
 520 707 540 648 540 570 c 2
 540 -2 l 1
 406 -2 l 1
 406 572 l 2
 406 659 356 702 255 702 c 0
 174 702 121 656 96 563 c 1
 -20 595 l 1
EndSplineSet
MinimumDistance: x4,-1 
EndChar
StartChar: uni0E33
Encoding: 211 3635
OldEncoding: 3635
Width: 674
Flags: HW
HStem: -26 21G<429.43 563.9> 677 106<263 297> 903 95<-256 -248> 1122 95<-265 -248>
VStem: -408 97<1048.18 1063> -191 93<1048.18 1063> 429 134<-12 566>
Fore
3 570 m 1
 18 621 48 670 92 716 c 0
 137 761 204 783 293 783 c 0
 389 781 459 761 502 722 c 0
 543 682 563 623 563 545 c 2
 563 -26 l 1
 429 -26 l 1
 429 548 l 2
 429 634 379 677 279 677 c 0
 198 677 145 631 120 538 c 1
 3 570 l 1
-253 1217 m 0
 -203 1217 -165 1202 -140 1172 c 1
 -112 1142 -98 1105 -98 1062 c 0
 -98 1017 -112 980 -140 950 c 0
 -169 919 -206 903 -253 903 c 4
 -300 903 -337 919 -366 950 c 0
 -394 980 -408 1017 -408 1062 c 0
 -408 1105 -394 1142 -366 1172 c 1
 -341 1202 -304 1217 -253 1217 c 0
-251 998 m 0
 -233 998 -218 1005 -207 1018 c 0
 -196 1028 -191 1043 -191 1062 c 0
 -191 1080 -196 1094 -207 1105 c 0
 -217 1116 -232 1122 -251 1122 c 0
 -272 1122 -287 1116 -295 1105 c 1
 -305 1094 -311 1080 -311 1062 c 0
 -311 1043 -305 1028 -295 1018 c 1
 -286 1005 -271 998 -251 998 c 0
EndSplineSet
MinimumDistance: x4,-1 
EndChar
StartChar: uni0E34
Encoding: 212 3636
OldEncoding: 3636
Width: 0
Flags: HW
HStem: 1084 93<-384 -372>
Fore
-372 1177 m 5
 -314 1175 -266 1159 -226 1130 c 4
 -193 1108 -164 1077 -140 1037 c 5
 -120 1000 -108 963 -102 927 c 5
 -82 841 l 5
 -189 873 l 5
 -242 886 -299 897 -358 905 c 4
 -396 912 -447 915 -511 915 c 5
 -629 911 l 5
 -703 903 l 5
 -696 954 -677 1000 -647 1042 c 4
 -615 1084 -577 1116 -532 1139 c 4
 -485 1164 -432 1177 -372 1177 c 5
-372 1084 m 5
 -415 1084 -453 1076 -483 1061 c 4
 -517 1043 -537 1025 -543 1008 c 5
 -506 1012 l 5
 -451 1012 l 5
 -369 1008 l 5
 -323 1003 -287 996 -261 989 c 5
 -205 968 l 5
 -240 1036 -296 1075 -372 1084 c 5
EndSplineSet
EndChar
StartChar: uni0E35
Encoding: 213 3637
OldEncoding: 3637
Width: 0
Flags: HW
HStem: 968 21G<-224.395 -224.395> 1083 93<-393 -392.824>
VStem: -231 121<1121 1252>
DStem: -460.565 1011.91 -460.565 1011.91 -527.235 1009.64 -390.505 1007.38
Fore
-393 1176 m 4
 -357 1176 -321 1168 -287 1153 c 5
 -261 1140 -242 1129 -231 1120 c 5
 -231 1259 l 5
 -110 1259 l 5
 -110 940 l 5
 -105 940 -97 905 -83 836 c 5
 -207 873 l 6
 -249 884 -305 895 -377 906 c 4
 -416 912 -467 915 -529 915 c 6
 -615 912 l 5
 -684 906 l 5
 -724 902 l 5
 -717 955 -699 1001 -668 1041 c 4
 -636 1085 -598 1117 -553 1138 c 5
 -503 1166 -449 1178 -393 1176 c 4
-393 1083 m 5
 -435 1083 -471 1076 -501 1060 c 4
 -536 1042 -556 1024 -562 1005 c 5
 -527 1010 l 5
 -461 1012 l 5
 -391 1007 l 5
 -302 993 l 5
 -245 975 l 5
 -224 968 l 5
 -224 968 l 5
 -258 1033 -314 1072 -393 1083 c 5
EndSplineSet
MinimumDistance: x4,-1 
EndChar
StartChar: uni0E36
Encoding: 214 3638
OldEncoding: 3638
Width: 0
Flags: HW
HStem: 1182 90<-227 -207>
Fore
-86 1157 m 5
 -86 1088 -106 1044 -147 1022 c 5
 -114 956 l 5
 -100 923 -90 882 -83 835 c 5
 -209 872 l 6
 -249 883 -306 894 -377 905 c 4
 -416 911 -467 914 -530 914 c 6
 -616 912 l 5
 -683 905 l 5
 -722 902 l 5
 -713 956 -693 1002 -664 1040 c 5
 -636 1083 -599 1116 -551 1138 c 5
 -504 1163 -451 1175 -392 1175 c 5
 -364 1173 l 6
 -353 1170 -348 1169 -348 1168 c 4
 -324 1238 -280 1272 -215 1272 c 4
 -178 1272 -148 1262 -125 1243 c 5
 -103 1219 -90 1191 -86 1157 c 5
-394 1082 m 5
 -435 1082 -472 1075 -503 1060 c 4
 -536 1043 -556 1025 -562 1007 c 5
 -525 1011 l 5
 -470 1011 l 5
 -390 1007 l 5
 -355 1003 -318 996 -280 987 c 5
 -225 967 l 5
 -259 1033 -316 1071 -394 1082 c 5
-218 1102 m 4
 -206 1102 -197 1106 -189 1115 c 4
 -182 1123 -178 1132 -178 1142 c 4
 -178 1154 -181 1162 -187 1168 c 4
 -195 1177 -205 1182 -218 1182 c 4
 -244 1182 -257 1169 -257 1142 c 4
 -257 1115 -244 1102 -218 1102 c 4
EndSplineSet
EndChar
StartChar: uni0E37
Encoding: 215 3639
OldEncoding: 3639
Width: 0
Flags: HW
HStem: 968 21G<-224.395 -224.395>
VStem: -227 116<1120 1252>
DStem: -460.565 1011.91 -460.565 1011.91 -527.235 1009.64 -390.505 1007.38
Fore
-227 1116 m 5
 -227 1259 l 5
 -111 1259 l 5
 -111 940 l 5
 -106 940 -97 905 -83 836 c 5
 -207 873 l 6
 -249 884 -305 895 -377 906 c 4
 -416 912 -467 915 -529 915 c 6
 -615 912 l 5
 -684 906 l 5
 -724 902 l 5
 -695 1015 -650 1088 -587 1123 c 4
 -525 1158 -458 1176 -388 1176 c 5
 -388 1259 l 5
 -280 1259 l 5
 -280 1149 l 5
 -256 1136 l 5
 -227 1116 l 5
-393 1083 m 5
 -435 1083 -471 1076 -501 1060 c 4
 -536 1042 -556 1024 -562 1005 c 5
 -527 1010 l 5
 -461 1012 l 5
 -391 1007 l 5
 -302 993 l 5
 -245 975 l 5
 -224 968 l 5
 -224 968 l 5
 -258 1033 -314 1072 -393 1083 c 5
EndSplineSet
MinimumDistance: x2,-1 
EndChar
StartChar: uni0E38
Encoding: 216 3640
OldEncoding: 3640
Width: 0
Flags: HW
HStem: -104 95<-278.211 -260>
VStem: -423 95<-176 -153> -235 125<-480 -319> -203 93<-176 -153>
Fore
-110 -495 m 1
 -235 -495 l 1
 -235 -319 l 1
 -291 -321 l 1
 -317 -319 -341 -310 -363 -294 c 1
 -382 -278 -397 -259 -408 -236 c 0
 -418 -216 -423 -192 -423 -166 c 0
 -423 -125 -409 -89 -381 -58 c 0
 -353 -25 -314 -9 -263 -9 c 0
 -235 -9 -210 -14 -189 -25 c 0
 -168 -35 -150 -52 -134 -76 c 0
 -118 -98 -110 -123 -110 -153 c 2
 -110 -495 l 1
-266 -226 m 0
 -247 -226 -232 -220 -220 -208 c 0
 -208 -197 -203 -183 -203 -166 c 0
 -203 -148 -208 -133 -220 -122 c 0
 -232 -110 -247 -104 -266 -104 c 0
 -284 -104 -299 -110 -311 -122 c 0
 -322 -133 -328 -148 -328 -166 c 0
 -328 -183 -322 -197 -311 -208 c 0
 -299 -220 -284 -226 -266 -226 c 0
EndSplineSet
MinimumDistance: x0,-1 
EndChar
StartChar: uni0E39
Encoding: 217 3641
OldEncoding: 3641
Width: 0
Flags: HW
HStem: -508 113<-276 -268> -101 93<-475.256 -458> -40 20G<-236.115 -110.685>
VStem: -620 95<-173 -152> -440 132<-365 -319> -400 93<-173 -152> -236 125<-365 -27>
Fore
-440 -377 m 2
 -440 -318 l 1
 -488 -320 l 1
 -514 -318 -539 -309 -560 -293 c 0
 -579 -278 -594 -259 -607 -235 c 1
 -616 -214 -620 -190 -620 -165 c 0
 -620 -123 -606 -87 -579 -57 c 0
 -551 -24 -511 -8 -461 -8 c 0
 -420 -8 -385 -21 -354 -48 c 0
 -323 -74 -308 -109 -308 -152 c 2
 -308 -355 l 2
 -308 -382 -295 -395 -271 -395 c 0
 -248 -395 -236 -382 -236 -357 c 2
 -236 -20 l 1
 -111 -20 l 1
 -111 -377 l 2
 -111 -416 -128 -447 -162 -472 c 0
 -195 -496 -233 -508 -273 -508 c 0
 -315 -508 -353 -496 -386 -472 c 0
 -422 -447 -440 -416 -440 -377 c 2
-463 -225 m 0
 -444 -225 -428 -218 -417 -205 c 1
 -406 -194 -400 -180 -400 -163 c 0
 -400 -147 -406 -133 -417 -119 c 0
 -429 -107 -444 -101 -463 -101 c 0
 -481 -101 -496 -107 -510 -119 c 1
 -520 -133 -525 -147 -525 -163 c 0
 -525 -180 -520 -194 -510 -205 c 0
 -497 -218 -481 -225 -463 -225 c 0
EndSplineSet
MinimumDistance: x14,-1 
EndChar
StartChar: uni0E3A
Encoding: 218 3642
OldEncoding: 3642
Width: 0
Flags: HW
Fore
-179 -61 m 0
 -164 -61 -150 -65 -137 -72 c 0
 -126 -79 -116 -89 -109 -103 c 0
 -103 -112 -100 -125 -100 -141 c 0
 -100 -162 -107 -181 -121 -198 c 0
 -134 -213 -153 -220 -179 -220 c 0
 -204 -220 -224 -213 -236 -198 c 0
 -252 -181 -260 -162 -260 -141 c 0
 -260 -120 -252 -101 -236 -83 c 0
 -224 -68 -204 -61 -179 -61 c 0
EndSplineSet
EndChar
StartChar: dottedcircle
Encoding: 221 9676
OldEncoding: 65536
Width: 1269
VWidth: 1000
Flags: HW
HStem: 31 0<236.615 660 246.462 660> 31 100<452 470> 45 100<821.959 838> 153 100<324 338> 169 100<932 950> 343 100<980 998> 352 100<276 290> 523 100<932 950> 531 100<327 342> 643 100<805.959 822> 653 100<468 476> 699 100<647.959 663>
VStem: 229 100<391 404> 278 100<192.959 206> 288 100<571 590> 410 100<76 83> 424 100<692 705> 610 100<28 34 741 755> 766 100<684 703> 782 100<92 98> 892 100<208.959 222 562.959 583> 940 100<382.959 404>
Fore
323 603 m 6
459 725 m 6
445 103 m 6
313 225 m 6
817 117 m 6
927 241 m 6
927 595 m 6
801 715 m 6
975 415 m 6
264 424 m 6
643 771 m 6
338 631 m 0
 366 631 388 609 388 581 c 0
 388 553 366 531 338 531 c 0
 310 531 288 553 288 581 c 0
 288 609 310 631 338 631 c 0
338 581 m 0
 338 581 l 0
 338 581 l 0
 338 581 l 0
 338 581 l 0
474 753 m 0
 502 753 524 731 524 703 c 0
 524 675 502 653 474 653 c 0
 446 653 424 675 424 703 c 0
 424 731 446 753 474 753 c 0
474 703 m 0
 474 703 l 0
 474 703 l 0
 474 703 l 0
 474 703 l 0
460 131 m 0
 488 131 510 109 510 81 c 0
 510 53 488 31 460 31 c 0
 432 31 410 53 410 81 c 0
 410 109 432 131 460 131 c 0
460 81 m 0
 460 81 l 0
 460 81 l 0
 460 81 l 0
 460 81 l 0
328 253 m 0
 356 253 378 231 378 203 c 0
 378 175 356 153 328 153 c 0
 300 153 278 175 278 203 c 0
 278 231 300 253 328 253 c 0
328 203 m 0
 328 203 l 0
 328 203 l 0
 328 203 l 0
 328 203 l 0
832 145 m 0
 860 145 882 123 882 95 c 0
 882 67 860 45 832 45 c 0
 804 45 782 67 782 95 c 0
 782 123 804 145 832 145 c 0
832 95 m 0
 832 95 l 0
 832 95 l 0
 832 95 l 0
 832 95 l 0
942 269 m 0
 970 269 992 247 992 219 c 0
 992 191 970 169 942 169 c 0
 914 169 892 191 892 219 c 0
 892 247 914 269 942 269 c 0
942 219 m 0
 942 219 l 0
 942 219 l 0
 942 219 l 0
 942 219 l 0
942 623 m 0
 970 623 992 601 992 573 c 0
 992 545 970 523 942 523 c 0
 914 523 892 545 892 573 c 0
 892 601 914 623 942 623 c 0
942 573 m 0
 942 573 l 0
 942 573 l 0
 942 573 l 0
 942 573 l 0
816 743 m 0
 844 743 866 721 866 693 c 0
 866 665 844 643 816 643 c 0
 788 643 766 665 766 693 c 0
 766 721 788 743 816 743 c 0
816 693 m 0
 816 693 l 0
 816 693 l 0
 816 693 l 0
 816 693 l 0
990 443 m 0
 1018 443 1040 421 1040 393 c 0
 1040 365 1018 343 990 343 c 0
 962 343 940 365 940 393 c 0
 940 421 962 443 990 443 c 0
990 393 m 0
 990 393 l 0
 990 393 l 0
 990 393 l 0
 990 393 l 0
279 452 m 0
 307 452 329 430 329 402 c 0
 329 374 307 352 279 352 c 0
 251 352 229 374 229 402 c 0
 229 430 251 452 279 452 c 0
279 402 m 0
 279 402 l 0
 279 402 l 0
 279 402 l 0
 279 402 l 0
660 81 m 0
 688 81 710 59 710 31 c 0
 710 3 688 -19 660 -19 c 0
 632 -19 610 3 610 31 c 0
 610 59 632 81 660 81 c 0
660 31 m 0
 660 31 l 0
 660 31 l 0
 660 31 l 0
 660 31 l 0
658 799 m 0
 686 799 708 777 708 749 c 0
 708 721 686 699 658 699 c 0
 630 699 608 721 608 749 c 0
 608 777 630 799 658 799 c 0
658 749 m 0
 658 749 l 0
 658 749 l 0
 658 749 l 0
 658 749 l 0
EndSplineSet
MinimumDistance: x76,-1 
EndChar
StartChar: uni0E3F
Encoding: 223 3647
OldEncoding: 3647
Width: 891
Flags: HW
HStem: -20 20G<51.9297 371.72> 777 20G<248.55 371.72 464.38 482.46> 941 20G<51.9297 371.72> 961 21G<464.38 477.94>
VStem: 52 197<167 400 590 784> 372 93<-66 0 167 400 590 784 960 1065> 628 190<298 310.022>
Fore
372 797 m 1
 249 797 l 1
 249 577 l 1
 372 577 l 1
 372 797 l 1
372 413 m 1
 249 413 l 1
 249 164 l 1
 372 164 l 1
 372 413 l 1
465 797 m 1
 465 577 l 1
 473 577 l 2
 517 577 550 587 571 607 c 0
 594 628 606 654 606 685 c 0
 603 760 562 797 482 797 c 2
 465 797 l 1
465 413 m 1
 465 164 l 1
 480 164 l 2
 520 164 555 172 584 188 c 0
 616 205 630 242 628 299 c 0
 628 345 615 376 589 389 c 1
 564 405 529 413 485 413 c 2
 465 413 l 1
372 0 m 1
 52 0 l 1
 52 961 l 1
 372 961 l 1
 372 1065 l 1
 465 1065 l 1
 465 961 l 1
 478 961 l 2
 510 961 551 955 601 943 c 0
 647 930 682 911 707 886 c 1
 735 866 755 845 767 822 c 1
 783 769 l 1
 795 709 l 1
 795 673 788 639 772 607 c 1
 758 572 735 540 703 512 c 1
 733 490 758 462 779 426 c 0
 800 389 813 350 818 310 c 1
 818 254 811 207 795 170 c 0
 778 129 753 94 719 65 c 0
 667 22 589 0 485 0 c 2
 465 0 l 1
 465 -81 l 1
 372 -81 l 1
 372 0 l 1
EndSplineSet
MinimumDistance: x37,-1 y23,21 x21,23 x21,22 
EndChar
StartChar: uni0E40
Encoding: 224 3648
OldEncoding: 3648
Width: 404
Flags: HW
HStem: -9 95<234 240> 206 97<234 240> 767 20G<80.125 214.595>
VStem: 80 95<144 152> 80 134<302 776> 298 93<134 150>
Fore
236 -9 m 0
 187 -9 148 7 120 38 c 0
 93 68 80 106 80 151 c 2
 80 787 l 1
 214 787 l 1
 214 303 l 1
 236 303 l 2
 284 303 322 288 351 259 c 1
 375 233 389 197 391 151 c 1
 391 104 378 66 351 38 c 0
 325 7 287 -9 236 -9 c 0
238 86 m 0
 256 86 271 91 281 102 c 0
 293 113 298 127 298 146 c 0
 298 164 294 179 285 190 c 1
 273 201 258 206 238 206 c 0
 219 206 204 200 192 188 c 0
 181 177 175 163 175 146 c 0
 175 129 181 116 194 104 c 0
 206 92 221 86 238 86 c 0
EndSplineSet
MinimumDistance: x8,-1 y5,3 y5,4 
EndChar
StartChar: uni0E41
Encoding: 225 3649
OldEncoding: 3649
Width: 752
Flags: HW
HStem: -9 95<212 218 575.392 588> 206 97<212 218 573.781 588> 767 20G<58.7402 193.21 431.64 566.11>
VStem: 59 95<144 152> 59 134<302 776> 277 93<134 150> 432 95<134 152> 432 134<302 776> 646 95<134 150>
Fore
215 -9 m 0
 166 -9 127 7 98 38 c 0
 72 68 59 106 59 151 c 2
 59 787 l 1
 193 787 l 1
 193 303 l 1
 215 303 l 2
 262 303 301 288 330 259 c 1
 354 233 368 197 370 151 c 1
 370 104 356 66 330 38 c 0
 304 7 265 -9 215 -9 c 0
586 -9 m 0
 536 -9 498 7 473 38 c 1
 446 66 432 104 432 151 c 2
 432 787 l 1
 566 787 l 1
 566 303 l 1
 586 303 l 2
 632 303 670 288 698 257 c 0
 725 228 739 193 741 151 c 1
 741 105 728 67 701 38 c 0
 672 7 634 -9 586 -9 c 0
217 86 m 0
 235 86 249 91 260 102 c 0
 271 113 277 127 277 146 c 0
 277 164 272 179 263 190 c 1
 252 201 237 206 217 206 c 0
 198 206 183 200 171 188 c 0
 159 177 154 163 154 146 c 0
 154 129 160 116 173 104 c 0
 185 92 200 86 217 86 c 0
586 86 m 0
 608 86 622 91 631 102 c 1
 641 113 646 127 646 146 c 0
 646 165 641 180 631 190 c 1
 622 201 608 206 586 206 c 0
 568 206 553 200 542 188 c 0
 532 177 527 163 527 146 c 0
 527 129 532 115 542 104 c 0
 556 92 571 86 586 86 c 0
EndSplineSet
MinimumDistance: x18,-1 y15,13 y15,14 x3,5 y5,3 y5,4 
EndChar
StartChar: uni0E42
Encoding: 226 3650
OldEncoding: 3650
Width: 517
Flags: HW
HStem: -46 99<317 335> 164 102<317 335> 1215 115<381 399>
VStem: 175 99<107 115> 175 134<265 1059> 386 99<107 113>
Fore
309 1026 m 2
 309 266 l 1
 330 266 l 2
 379 266 418 251 446 220 c 0
 470 194 483 158 485 114 c 1
 485 69 473 32 446 1 c 0
 418 -30 379 -46 330 -46 c 0
 282 -46 243 -30 215 1 c 0
 188 32 175 69 175 114 c 2
 175 1030 l 2
 175 1057 174 1081 171 1100 c 1
 167 1111 158 1124 146 1136 c 0
 132 1148 110 1160 80 1174 c 2
 -81 1244 l 1
 -75 1253 -60 1270 -35 1292 c 0
 -14 1313 16 1336 55 1359 c 1
 97 1381 138 1392 177 1392 c 0
 206 1392 227 1389 241 1384 c 2
 312 1354 l 2
 347 1339 374 1330 391 1330 c 0
 413 1330 439 1342 471 1363 c 1
 517 1262 l 1
 475 1231 434 1215 393 1215 c 0
 361 1215 324 1225 284 1244 c 0
 246 1260 220 1270 206 1273 c 2
 173 1278 l 2
 164 1278 155 1276 146 1273 c 1
 133 1264 l 1
 191 1235 229 1215 250 1202 c 1
 268 1186 284 1166 296 1141 c 1
 305 1116 309 1078 309 1026 c 2
330 53 m 0
 349 53 363 59 372 70 c 0
 381 82 386 95 386 109 c 0
 386 123 381 137 372 149 c 0
 363 159 349 164 330 164 c 0
 313 164 300 159 291 149 c 1
 280 138 274 125 274 109 c 0
 274 93 280 80 291 70 c 1
 300 59 313 53 330 53 c 0
EndSplineSet
MinimumDistance: x4,-1 
EndChar
StartChar: uni0E43
Encoding: 227 3651
OldEncoding: 3651
Width: 519
Flags: HW
HStem: -46 99<324 342> 164 99<324 342> 1294 104<100 131>
VStem: -90 93<1145 1170.94> 69 90<1125 1148> 177 102<106 115> 177 137<262 1202> 391 99<96 113>
Fore
314 1187 m 2
 314 263 l 1
 334 263 l 2
 381 263 419 249 449 219 c 1
 474 192 488 156 490 113 c 1
 490 69 477 31 451 0 c 0
 422 -31 383 -46 334 -46 c 0
 285 -46 246 -31 217 0 c 0
 191 31 177 69 177 113 c 2
 177 1189 l 2
 177 1227 174 1254 168 1268 c 0
 161 1285 144 1294 118 1294 c 0
 93 1294 77 1291 71 1284 c 1
 61 1276 55 1270 53 1266 c 1
 88 1266 114 1253 131 1229 c 0
 150 1204 159 1171 159 1127 c 1
 152 1053 116 1016 49 1016 c 0
 18 1016 -8 1023 -31 1036 c 0
 -56 1051 -72 1070 -79 1094 c 0
 -87 1126 -90 1151 -90 1171 c 0
 -90 1233 -70 1286 -31 1330 c 0
 10 1375 60 1398 120 1398 c 0
 182 1398 230 1379 263 1340 c 0
 297 1302 314 1251 314 1187 c 2
334 53 m 0
 352 53 366 59 376 69 c 0
 386 80 391 93 391 109 c 0
 391 125 386 138 376 148 c 0
 366 159 352 164 334 164 c 0
 317 164 304 159 296 148 c 1
 285 138 279 125 279 109 c 0
 279 93 285 80 296 69 c 1
 304 59 317 53 334 53 c 0
34 1182 m 0
 26 1182 19 1178 11 1171 c 0
 5 1165 3 1157 3 1146 c 0
 3 1135 5 1126 11 1120 c 0
 19 1113 26 1109 34 1109 c 0
 57 1109 69 1121 69 1146 c 0
 69 1170 57 1182 34 1182 c 0
EndSplineSet
MinimumDistance: x4,-1 
EndChar
StartChar: uni0E44
Encoding: 228 3652
OldEncoding: 3652
Width: 590
Flags: HW
HStem: -46 99<394 412> 164 102<394 412>
VStem: 251 99<96 115> 251 134<264 1170> 462 99<96 113>
DStem: -37.7852 1263.6 59.3945 1318.97 35.665 990.14 117.025 1108.79 183.695 1332.53 251.495 1184.5 117.025 1108.79 187.085 969.8
Fore
251 1184 m 1
 187 970 l 1
 174 930 150 910 115 910 c 0
 94 910 78 916 66 928 c 0
 53 943 43 964 36 990 c 1
 -38 1264 l 1
 -45 1291 -60 1310 -84 1321 c 1
 -8 1398 l 1
 25 1384 48 1357 59 1319 c 1
 117 1109 l 1
 184 1333 l 2
 197 1375 229 1396 281 1396 c 0
 310 1396 334 1387 355 1370 c 0
 376 1354 385 1330 385 1296 c 2
 385 266 l 1
 404 266 l 2
 453 266 491 251 519 222 c 0
 545 195 559 159 561 113 c 1
 561 67 547 29 519 0 c 1
 492 -31 454 -46 404 -46 c 0
 354 -46 316 -31 291 0 c 0
 265 30 251 68 251 113 c 2
 251 1184 l 1
406 53 m 0
 426 53 440 59 448 69 c 0
 457 80 462 94 462 109 c 0
 462 124 457 137 448 148 c 0
 440 159 426 164 406 164 c 0
 387 164 373 159 364 148 c 0
 355 137 350 124 350 109 c 0
 350 94 355 80 364 69 c 0
 373 59 387 53 406 53 c 0
EndSplineSet
MinimumDistance: x17,-1 
EndChar
StartChar: uni0E45
Encoding: 229 3653
OldEncoding: 3653
Width: 650
Flags: HW
HStem: 726 106<250 272>
VStem: 406 134<-373 605>
Fore
-20 619 m 1
 -5 670 24 718 68 764 c 0
 113 810 180 832 269 832 c 0
 365 830 435 809 478 770 c 0
 520 730 540 671 540 594 c 2
 540 -387 l 1
 406 -387 l 1
 406 596 l 2
 406 683 356 726 255 726 c 0
 174 726 121 680 96 587 c 1
 -20 619 l 1
EndSplineSet
MinimumDistance: x4,-1 
EndChar
StartChar: uni0E46
Encoding: 230 3654
OldEncoding: 3654
Width: 851
Flags: HW
HStem: 338 97<364 374.624> 518 99<353 372>
VStem: 407 97<475 483> 608 134<-30 598>
Fore
356 701 m 1
 332 690 315 673 305 648 c 1
 296 633 290 616 286 597 c 1
 314 610 l 2
 325 615 342 617 365 617 c 0
 409 617 444 605 469 581 c 1
 492 554 504 521 504 482 c 0
 504 442 492 408 469 380 c 1
 443 352 409 338 365 338 c 0
 308 340 261 361 224 400 c 0
 186 440 166 493 164 557 c 0
 164 622 183 679 221 729 c 0
 258 777 305 807 360 820 c 1
 427 787 l 2
 453 773 467 765 467 761 c 1
 557 820 l 1
 621 807 669 781 700 740 c 1
 728 700 742 648 742 586 c 2
 742 -28 l 2
 742 -102 717 -160 665 -202 c 1
 610 -244 545 -272 469 -285 c 1
 434 -167 l 1
 504 -143 l 2
 543 -131 570 -117 584 -99 c 1
 600 -84 608 -57 608 -19 c 2
 608 572 l 2
 608 611 605 638 599 652 c 0
 591 671 577 687 557 701 c 1
 467 643 l 1
 467 643 l 1
 425 664 l 1
 356 701 l 1
365 435 m 0
 378 435 387 440 394 449 c 1
 403 456 407 465 407 477 c 0
 407 491 403 500 396 506 c 0
 389 514 378 518 365 518 c 0
 351 518 340 514 332 506 c 0
 326 500 323 491 323 477 c 0
 323 466 327 456 334 449 c 0
 341 440 351 435 365 435 c 0
EndSplineSet
MinimumDistance: x17,-1 
EndChar
StartChar: uni0E47
Encoding: 231 3655
OldEncoding: 3655
Width: 0
Flags: HW
HStem: 837 88<-247.555 -225> 956 108<-472 -456> 1002 85<-245.808 -225> 1106 99<-350 -296>
VStem: -685 120<1010.98 1046.01> -199 88<954 966>
Fore
-236 837 m 4
 -259 837 -279 843 -298 856 c 5
 -318 867 -340 881 -364 899 c 4
 -387 919 -406 933 -421 943 c 4
 -436 951 -452 956 -470 956 c 4
 -485 956 -499 942 -512 916 c 5
 -522 890 -528 862 -528 832 c 5
 -560 832 l 5
 -593 848 -622 878 -647 923 c 5
 -672 961 -685 1002 -685 1046 c 4
 -685 1069 -681 1089 -673 1108 c 4
 -658 1146 -633 1174 -599 1192 c 4
 -571 1207 -528 1214 -470 1214 c 6
 -442 1214 l 5
 -421 1212 l 6
 -380 1208 -343 1205 -309 1205 c 4
 -269 1205 -240 1212 -225 1226 c 4
 -206 1242 -196 1271 -196 1312 c 5
 -83 1312 l 5
 -83 1238 -102 1186 -139 1154 c 4
 -176 1122 -237 1106 -324 1106 c 4
 -356 1106 -389 1107 -424 1110 c 5
 -476 1110 -513 1104 -534 1091 c 4
 -555 1078 -565 1052 -565 1011 c 5
 -563 1019 -553 1030 -537 1046 c 5
 -520 1058 -494 1064 -459 1064 c 4
 -425 1064 -401 1059 -386 1048 c 4
 -372 1038 -360 1028 -349 1018 c 5
 -333 1064 -295 1087 -236 1087 c 4
 -195 1087 -164 1075 -143 1053 c 4
 -121 1029 -111 1000 -111 965 c 4
 -111 930 -122 900 -146 874 c 4
 -168 849 -198 837 -236 837 c 4
-236 925 m 4
 -211 925 -199 938 -199 965 c 4
 -199 977 -202 986 -208 992 c 4
 -214 999 -223 1002 -236 1002 c 4
 -248 1002 -258 998 -266 990 c 4
 -273 983 -276 975 -276 965 c 4
 -276 938 -262 925 -236 925 c 4
EndSplineSet
MinimumDistance: x30,-1 
EndChar
StartChar: uni0E48
Encoding: 232 3656
OldEncoding: 3656
Width: 0
Flags: HW
VStem: -231 121<1312 1554>
Fore
-231 1297 m 5
 -231 1568 l 5
 -110 1568 l 5
 -110 1297 l 5
 -231 1297 l 5
EndSplineSet
MinimumDistance: x2,-1 
EndChar
StartChar: uni0E49
Encoding: 233 3657
OldEncoding: 3657
Width: 0
Flags: HW
HStem: 1493 80<-298 -276>
VStem: -405 79<1445 1464> -247 88<1444 1457>
Fore
-159 1468 m 4
 -161 1430 -166 1403 -173 1387 c 4
 -180 1368 -187 1358 -193 1356 c 6
 -162 1364 l 6
 -144 1369 -127 1376 -111 1387 c 4
 -96 1397 -82 1411 -69 1429 c 4
 -52 1455 -43 1478 -41 1498 c 4
 -38 1526 -36 1556 -36 1588 c 5
 75 1588 l 5
 75 1442 27 1347 -67 1303 c 4
 -122 1277 -183 1264 -250 1264 c 5
 -307 1269 l 5
 -339 1274 l 5
 -339 1312 l 5
 -314 1329 l 6
 -304 1337 -298 1346 -296 1356 c 5
 -332 1367 l 6
 -353 1373 -370 1386 -383 1405 c 4
 -397 1426 -405 1451 -405 1480 c 4
 -405 1512 -393 1540 -370 1563 c 5
 -349 1586 -321 1597 -284 1597 c 4
 -244 1597 -213 1584 -191 1559 c 5
 -170 1529 -159 1499 -159 1468 c 4
-286 1438 m 4
 -274 1438 -264 1442 -257 1449 c 4
 -251 1455 -247 1465 -247 1477 c 4
 -247 1488 -251 1497 -259 1505 c 4
 -266 1513 -275 1517 -286 1517 c 4
 -312 1517 -326 1504 -326 1477 c 4
 -326 1468 -322 1459 -314 1449 c 4
 -307 1442 -297 1438 -286 1438 c 4
EndSplineSet
MinimumDistance: x0,-1 
EndChar
StartChar: uni0E4A
Encoding: 234 3658
OldEncoding: 3658
Width: 0
Flags: HW
HStem: 1235 68<-430 -424> 1469 81<-426 -404.194>
VStem: -397 72<1323 1338> -221 87<1386 1417.67>
Fore
-426 1235 m 0
 -463 1235 -495 1252 -521 1285 c 0
 -547 1322 -559 1362 -557 1404 c 0
 -557 1440 -545 1475 -521 1508 c 1
 -497 1536 -466 1550 -426 1550 c 0
 -400 1550 -380 1545 -365 1536 c 1
 -348 1521 -339 1513 -338 1510 c 1
 -338 1510 -327 1519 -305 1536 c 0
 -291 1545 -273 1550 -252 1550 c 0
 -214 1550 -185 1538 -164 1515 c 0
 -144 1491 -134 1458 -134 1418 c 0
 -134 1390 -136 1371 -141 1362 c 0
 -145 1351 -152 1336 -161 1318 c 1
 -159 1319 -151 1325 -136 1336 c 1
 -122 1345 -112 1357 -106 1371 c 0
 -89 1408 -80 1441 -78 1469 c 0
 -78 1486 -80 1504 -84 1522 c 1
 3 1554 l 1
 9 1534 13 1513 13 1492 c 0
 13 1432 -3 1378 -36 1330 c 1
 -61 1296 -91 1275 -124 1267 c 0
 -166 1255 -213 1249 -265 1249 c 5
 -265 1267 l 1
 -267 1283 l 1
 -240 1318 l 1
 -228 1337 -221 1360 -221 1387 c 0
 -221 1411 -223 1429 -228 1444 c 1
 -236 1457 -250 1464 -270 1464 c 0
 -287 1464 -299 1461 -305 1455 c 0
 -313 1449 -320 1443 -325 1436 c 1
 -325 1436 l 1
 -325 1438 -333 1444 -349 1453 c 0
 -364 1463 -382 1469 -404 1469 c 0
 -439 1469 -457 1453 -460 1422 c 1
 -446 1427 l 1
 -413 1429 l 1
 -385 1427 -364 1417 -349 1400 c 1
 -333 1378 -325 1354 -325 1325 c 0
 -325 1302 -335 1282 -353 1263 c 0
 -374 1244 -399 1235 -426 1235 c 0
-428 1362 m 0
 -449 1362 -460 1352 -460 1332 c 0
 -460 1312 -449 1303 -428 1303 c 0
 -408 1303 -397 1312 -397 1332 c 0
 -397 1352 -408 1362 -428 1362 c 0
EndSplineSet
MinimumDistance: x10,-1 
EndChar
StartChar: uni0E4B
Encoding: 235 3659
OldEncoding: 3659
Width: 0
Flags: HW
HStem: 1378 106<-332 -232 -116 -10>
VStem: -232 116<1293 1377 1483 1583>
Fore
-232 1378 m 5
 -347 1378 l 5
 -347 1484 l 5
 -232 1484 l 5
 -232 1586 l 5
 -116 1586 l 5
 -116 1484 l 5
 -0 1484 l 5
 -0 1378 l 5
 -116 1378 l 5
 -116 1278 l 5
 -232 1278 l 5
 -232 1378 l 5
EndSplineSet
MinimumDistance: y3,5 y3,4 y0,10 y0,11 x6,8 x6,7 x0,2 x0,1 
EndChar
StartChar: uni0E4C
Encoding: 236 3660
OldEncoding: 3660
Width: 0
Flags: HW
HStem: 1181 79<-192.046 -172>
VStem: -324 104<1298 1322.38> -143 82<1289.21 1299.77 1299.79 1308>
Fore
-3 1426 m 0
 5 1428 -35 1424 -123 1415 c 1
 -171 1413 l 1
 -137 1413 -110 1403 -90 1382 c 0
 -70 1360 -61 1335 -61 1307 c 0
 -59 1273 -68 1245 -90 1221 c 0
 -112 1194 -140 1181 -174 1181 c 0
 -219 1179 -255 1192 -282 1221 c 1
 -310 1246 -324 1280 -324 1322 c 0
 -324 1400 -294 1452 -233 1479 c 0
 -203 1493 -166 1501 -120 1503 c 0
 -78 1505 -44 1511 -19 1519 c 0
 2 1526 12 1546 12 1579 c 1
 109 1579 l 1
 109 1538 99 1505 81 1479 c 1
 63 1449 35 1431 -3 1426 c 0
-180 1336 m 0
 -207 1336 -220 1324 -220 1300 c 0
 -220 1273 -207 1260 -180 1260 c 0
 -170 1260 -161 1264 -153 1272 c 0
 -146 1278 -143 1288 -143 1300 c 0
 -143 1310 -146 1318 -153 1325 c 0
 -161 1332 -170 1336 -180 1336 c 0
EndSplineSet
MinimumDistance: x4,-1 
EndChar
StartChar: uni0E4D
Encoding: 237 3661
OldEncoding: 3661
Width: 0
Flags: HW
HStem: 903 95<-251.017 -237> 1121 95<-252.527 -237>
VStem: -397 97<1047.74 1063> -179 95<1048.17 1063>
Fore
-240 1216 m 4
 -192 1216 -153 1201 -124 1170 c 5
 -97 1137 -84 1101 -84 1061 c 4
 -84 1021 -98 983 -126 949 c 5
 -155 918 -193 903 -240 903 c 4
 -287 903 -326 918 -355 949 c 5
 -383 982 -397 1019 -397 1061 c 4
 -397 1103 -383 1140 -355 1170 c 4
 -326 1201 -287 1216 -240 1216 c 4
-240 998 m 4
 -222 998 -207 1004 -196 1017 c 4
 -185 1028 -179 1042 -179 1061 c 4
 -179 1078 -185 1091 -196 1102 c 4
 -207 1115 -222 1121 -240 1121 c 4
 -258 1121 -273 1115 -284 1104 c 4
 -295 1094 -300 1079 -300 1061 c 4
 -300 1042 -295 1028 -284 1017 c 4
 -271 1004 -257 998 -240 998 c 4
EndSplineSet
MinimumDistance: x2,-1 
EndChar
StartChar: uni0E4E
Encoding: 238 3662
OldEncoding: 3662
Width: 0
Flags: HW
HStem: 919 81<-371.975 -344.855> 1127 112<-342.595 -323.385> 1254 102<-157.275 -124.505>
VStem: -515 124<1045 1063>
Fore
-16 1195 m 1
 -31 1199 l 2
 -39 1203 -45 1207 -49 1213 c 0
 -60 1225 -70 1235 -77 1241 c 0
 -90 1250 -106 1254 -125 1254 c 0
 -143 1254 -159 1248 -173 1236 c 0
 -189 1224 -197 1205 -197 1180 c 0
 -197 1166 -191 1149 -180 1131 c 0
 -175 1126 -173 1116 -173 1102 c 0
 -173 1093 -178 1085 -188 1077 c 0
 -197 1070 -205 1067 -213 1067 c 0
 -228 1067 -241 1075 -250 1091 c 0
 -260 1107 -271 1117 -283 1121 c 0
 -291 1125 -305 1127 -323 1127 c 0
 -341 1127 -357 1121 -370 1109 c 0
 -384 1097 -391 1080 -391 1058 c 0
 -391 1041 -386 1028 -376 1017 c 0
 -367 1006 -357 1000 -345 1000 c 0
 -328 1000 -315 1004 -306 1010 c 1
 -285 1032 l 1
 -250 1018 l 1
 -259 967 l 1
 -287 935 -325 919 -372 919 c 0
 -415 919 -450 933 -477 962 c 0
 -503 990 -515 1024 -515 1065 c 1
 -511 1104 l 1
 -511 1105 l 1
 -509 1119 -503 1132 -495 1146 c 0
 -479 1175 -457 1197 -430 1214 c 0
 -403 1230 -374 1239 -343 1239 c 0
 -325 1239 -308 1236 -289 1230 c 1
 -289 1265 -277 1295 -251 1319 c 0
 -225 1344 -193 1356 -157 1356 c 0
 -127 1356 -99 1350 -73 1339 c 0
 -47 1328 -26 1310 -9 1285 c 0
 -4 1279 1 1269 7 1254 c 0
 12 1243 14 1233 14 1224 c 0
 14 1204 4 1195 -16 1195 c 1
EndSplineSet
MinimumDistance: x15,-1 
EndChar
StartChar: uni0E4F
Encoding: 239 3663
OldEncoding: 3663
Width: 741
Flags: HW
HStem: -0 88<323 373> 172 92<339 357> 530 83<339 357> 698 88<323 373>
VStem: -43 86<366 416> 129 87<382 399> 478 90<382 399> 656 85<366 416>
Fore
347 530 m 4
 275 530 216 470 216 397 c 0
 216 324 275 264 347 264 c 0
 419 264 478 324 478 397 c 4
 478 470 419 530 347 530 c 4
348 -0 m 0
 227 -0 131 39 61 117 c 0
 -8 197 -43 289 -43 393 c 0
 -43 501 -9 593 59 671 c 0
 126 748 223 786 348 786 c 0
 431 786 503 768 564 731 c 1
 624 692 668 643 697 585 c 0
 726 526 741 462 741 393 c 0
 741 323 726 259 697 201 c 0
 668 143 624 94 564 55 c 1
 503 18 431 -0 348 -0 c 0
348 698 m 0
 251 698 177 668 124 609 c 0
 70 546 43 474 43 393 c 0
 43 340 54 290 78 243 c 0
 100 196 135 159 182 132 c 1
 226 103 282 88 348 88 c 0
 414 88 471 103 517 132 c 0
 565 162 600 200 624 245 c 0
 645 289 656 339 656 393 c 0
 656 475 629 547 575 609 c 0
 522 668 447 698 348 698 c 0
348 172 m 0
 303 172 263 182 228 203 c 0
 193 226 169 254 154 287 c 0
 137 321 129 357 129 393 c 0
 129 428 137 464 154 499 c 0
 168 532 193 559 228 581 c 0
 264 602 304 613 348 613 c 0
 393 613 433 602 469 581 c 0
 503 560 527 533 542 499 c 0
 560 465 568 429 568 393 c 0
 568 334 549 283 511 238 c 0
 471 194 416 172 348 172 c 0
EndSplineSet
EndChar
StartChar: uni0E50
Encoding: 240 3664
OldEncoding: 3664
Width: 761
Flags: HW
HStem: 4 118<350 384> 461 121<350 384>
VStem: 32 139<274 308> 557 138<274 308>
Fore
362 4 m 0
 259 4 178 33 119 92 c 0
 61 150 32 217 32 293 c 0
 32 344 44 391 68 434 c 0
 94 479 132 515 182 543 c 1
 233 569 293 582 362 582 c 0
 431 582 491 569 543 543 c 0
 595 514 633 478 659 434 c 0
 683 391 695 344 695 293 c 0
 695 244 682 197 657 152 c 0
 630 107 592 72 543 46 c 0
 491 18 430 4 362 4 c 0
362 461 m 0
 302 461 255 444 222 411 c 0
 188 377 171 338 171 293 c 0
 171 246 188 206 222 172 c 1
 253 138 300 122 362 122 c 0
 424 122 471 138 505 172 c 0
 540 207 557 246 557 291 c 0
 557 337 540 377 505 411 c 0
 472 444 424 461 362 461 c 0
EndSplineSet
MinimumDistance: x8,-1 
EndChar
StartChar: uni0E51
Encoding: 241 3665
OldEncoding: 3665
Width: 781
Flags: HW
HStem: 316 106<353 358> 481 124<337 371>
VStem: 206 110<268 274> 405 112<259 275> 581 132<255 289>
Fore
162 300 m 0
 162 260 172 227 194 201 c 1
 218 175 240 161 259 161 c 1
 248 164 238 173 227 190 c 0
 215 205 208 232 206 270 c 1
 206 311 220 347 250 376 c 0
 281 407 317 422 358 422 c 0
 411 424 451 409 479 376 c 0
 504 347 517 308 517 261 c 0
 517 199 496 147 455 104 c 1
 417 60 360 38 285 38 c 1
 207 47 146 73 102 117 c 0
 57 162 35 224 35 305 c 0
 35 362 50 413 79 457 c 0
 110 506 150 542 199 566 c 0
 248 592 301 605 358 605 c 0
 474 603 562 573 620 515 c 0
 682 453 713 372 713 270 c 0
 715 140 655 28 532 -63 c 1
 449 20 l 1
 487 50 519 86 543 131 c 0
 568 173 581 219 581 270 c 0
 581 311 572 348 556 379 c 0
 539 410 514 435 479 453 c 0
 440 472 400 481 358 481 c 0
 300 481 254 464 220 430 c 0
 183 396 164 352 162 300 c 0
358 316 m 0
 345 316 336 312 329 303 c 1
 320 294 316 283 316 272 c 0
 316 262 320 252 329 240 c 0
 336 231 345 226 358 226 c 0
 375 226 386 231 393 240 c 0
 401 250 405 261 405 272 c 0
 405 285 400 296 391 305 c 0
 383 312 372 316 358 316 c 0
EndSplineSet
MinimumDistance: x17,-1 
EndChar
StartChar: uni0E52
Encoding: 242 3666
OldEncoding: 3666
Width: 932
Flags: HW
HStem: -4 120<301 640> 147 99<369 380> 350 97<372 391> 464 120<657 687.42> 469 115<413 436>
VStem: 56 134<239 653> 208 121<299.09 325.08> 433 97<290 302> 711 137<187 410.687>
Fore
535 383 m 1
 501 440 464 469 424 469 c 0
 410 469 398 466 389 462 c 1
 371 447 l 1
 402 447 431 440 457 427 c 1
 479 413 497 394 512 369 c 1
 524 344 530 317 530 290 c 0
 528 246 513 212 486 186 c 1
 461 160 424 147 373 147 c 0
 325 147 286 163 257 197 c 0
 224 234 208 276 208 325 c 0
 208 399 229 461 269 510 c 0
 309 559 359 584 417 584 c 0
 457 584 487 576 510 559 c 0
 527 545 540 531 550 517 c 1
 556 528 569 542 590 559 c 0
 613 576 645 584 687 584 c 0
 748 584 790 565 813 528 c 0
 836 492 848 453 848 411 c 2
 848 179 l 2
 848 121 832 75 802 43 c 0
 771 12 716 -4 639 -4 c 2
 318 -4 l 2
 220 -4 152 15 115 54 c 0
 75 93 56 156 56 241 c 2
 56 632 l 2
 56 661 52 686 44 707 c 0
 36 729 21 747 -2 760 c 1
 100 844 l 1
 128 828 150 807 165 780 c 0
 182 750 190 716 190 681 c 2
 190 272 l 2
 190 217 197 177 212 151 c 1
 228 128 263 116 316 116 c 2
 616 116 l 2
 656 116 683 123 695 138 c 0
 706 150 711 176 711 214 c 2
 711 383 l 2
 711 414 708 435 702 445 c 0
 695 458 681 464 658 464 c 0
 638 464 622 459 612 449 c 0
 600 437 592 425 588 411 c 1
 579 385 l 1
 535 383 l 1
380 350 m 0
 362 350 349 345 341 334 c 0
 333 324 329 313 329 299 c 0
 329 286 334 274 343 263 c 1
 349 252 361 246 380 246 c 0
 415 248 433 265 433 297 c 0
 433 310 429 323 420 334 c 0
 411 345 398 350 380 350 c 0
EndSplineSet
MinimumDistance: x18,-1 
EndChar
StartChar: uni0E53
Encoding: 243 3667
OldEncoding: 3667
Width: 903
Flags: HW
HStem: 7 104<205 223> 213 106<205 223> 484 115<264 287>
VStem: 30 139<309.933 327> 391 134<21 359> 693 131<268 278 278.222 300.694 300.779 330.404>
Fore
280 484 m 0
 206 484 169 426 169 310 c 1
 181 314 l 2
 187 317 199 319 218 319 c 0
 268 319 305 303 331 270 c 1
 361 236 375 197 373 153 c 1
 373 108 357 74 326 49 c 1
 296 21 257 7 208 7 c 0
 87 7 28 112 30 321 c 0
 30 363 40 408 60 456 c 1
 82 501 109 535 143 560 c 0
 179 586 220 599 267 599 c 0
 325 599 369 587 398 564 c 1
 427 544 446 526 454 509 c 1
 454 514 459 524 470 539 c 0
 480 554 496 568 519 581 c 0
 540 593 570 599 607 599 c 0
 688 599 744 568 775 506 c 0
 810 441 826 365 824 278 c 0
 822 160 802 71 766 11 c 1
 627 11 l 1
 646 36 661 75 671 129 c 0
 685 191 693 248 693 301 c 0
 693 351 685 394 671 428 c 0
 658 461 636 477 607 477 c 0
 577 477 555 466 541 444 c 0
 531 425 525 392 525 345 c 2
 525 11 l 1
 391 11 l 1
 391 349 l 2
 391 389 381 422 361 447 c 0
 341 471 314 484 280 484 c 0
218 213 m 0
 200 213 187 208 181 199 c 0
 172 188 167 175 167 162 c 0
 167 150 172 139 181 127 c 0
 187 116 199 111 218 111 c 0
 234 111 246 116 254 127 c 0
 264 139 269 150 269 162 c 0
 269 175 265 187 256 199 c 1
 247 208 235 213 218 213 c 0
EndSplineSet
MinimumDistance: x18,-1 
EndChar
StartChar: uni0E54
Encoding: 244 3668
OldEncoding: 3668
Width: 917
Flags: HW
HStem: -6 130<315 378.86> 325 111<415 433>
VStem: 16 138<263 276 276.784 287.996 288 307.379> 268 108<274 288> 469 108<274 288>
Fore
154 277 m 0
 154 217 177 176 224 154 c 0
 266 134 318 124 379 124 c 1
 340 135 312 155 293 182 c 0
 276 208 268 241 268 279 c 0
 268 316 281 352 308 387 c 0
 333 420 370 436 421 436 c 0
 473 436 511 420 536 387 c 0
 564 353 577 318 577 284 c 0
 577 252 572 227 560 209 c 0
 551 198 541 188 529 180 c 1
 554 161 581 151 611 149 c 2
 712 138 l 1
 753 130 792 116 830 94 c 1
 779 -24 l 1
 762 -10 739 2 708 10 c 0
 668 18 633 22 604 22 c 0
 571 22 527 18 469 8 c 0
 416 -1 365 -6 317 -6 c 0
 279 -6 242 0 206 12 c 0
 169 25 137 44 109 69 c 0
 80 92 58 123 41 160 c 0
 24 197 16 240 16 288 c 0
 16 342 30 392 57 438 c 0
 85 484 126 520 180 547 c 0
 234 573 298 586 370 586 c 1
 441 582 l 1
 499 576 541 573 566 573 c 0
 621 575 663 585 692 603 c 1
 720 618 742 650 759 698 c 0
 774 745 785 810 789 895 c 1
 918 880 l 1
 918 850 916 815 911 776 c 0
 906 732 896 686 882 639 c 0
 865 590 841 551 809 522 c 0
 754 471 687 445 611 445 c 0
 585 445 555 448 520 453 c 1
 485 455 456 458 432 460 c 2
 386 462 l 1
 320 462 265 448 220 420 c 1
 174 389 152 341 154 277 c 0
423 230 m 0
 454 230 469 247 469 279 c 0
 469 290 465 300 458 312 c 0
 451 321 440 325 423 325 c 0
 406 325 395 321 388 312 c 0
 380 298 376 287 376 279 c 0
 376 268 380 257 388 244 c 0
 395 235 406 230 423 230 c 0
EndSplineSet
MinimumDistance: x8,-1 
EndChar
StartChar: uni0E55
Encoding: 245 3669
OldEncoding: 3669
Width: 944
Flags: HW
HStem: 325 111<419 439> 445 128<580 614.51> 672 113<422 433>
VStem: 20 139<263 276 276.784 287.996 288 306.875> 272 106<274 288> 274 111<623 633> 473 108<274 288> 480 112<623 633>
Fore
581 573 m 1
 686 573 749 622 769 721 c 0
 781 777 789 835 793 895 c 1
 922 880 l 1
 917 816 l 2
 915 783 911 749 904 714 c 0
 896 673 885 638 871 610 c 1
 856 572 837 542 813 522 c 0
 758 471 691 445 615 445 c 0
 588 445 559 448 526 453 c 1
 438 460 l 1
 392 462 l 1
 324 462 269 448 226 420 c 0
 179 388 157 340 159 277 c 0
 159 219 182 178 228 156 c 0
 274 135 326 124 383 124 c 1
 344 135 316 155 297 182 c 0
 280 208 272 241 272 279 c 0
 272 316 285 352 312 387 c 0
 337 420 374 436 425 436 c 0
 477 436 515 420 540 387 c 0
 568 353 581 318 581 284 c 0
 581 252 576 227 564 209 c 0
 555 198 545 188 533 180 c 1
 558 161 585 151 615 149 c 2
 716 138 l 1
 756 130 796 116 835 94 c 1
 784 -24 l 1
 764 -10 740 0 712 8 c 0
 676 18 642 22 608 22 c 0
 575 22 531 18 473 8 c 0
 420 -1 369 -6 321 -6 c 0
 283 -6 246 0 210 12 c 0
 173 25 141 44 113 69 c 1
 86 91 63 121 45 160 c 0
 28 197 20 240 20 288 c 0
 20 393 53 465 120 506 c 0
 184 547 238 571 281 577 c 1
 277 595 274 612 274 628 c 0
 274 674 291 712 323 742 c 0
 352 771 389 785 434 785 c 0
 481 783 519 768 548 739 c 0
 577 710 592 673 592 628 c 0
 592 609 588 591 581 573 c 1
427 230 m 0
 458 230 473 247 473 279 c 0
 473 290 469 300 462 312 c 0
 455 321 444 325 427 325 c 0
 412 325 399 321 390 312 c 1
 382 298 378 287 378 279 c 0
 378 247 395 230 427 230 c 0
431 580 m 0
 447 580 460 584 469 593 c 1
 476 604 480 615 480 626 c 0
 480 639 476 651 469 661 c 1
 459 668 447 672 431 672 c 0
 418 672 407 668 398 659 c 0
 389 649 385 638 385 626 c 0
 385 617 389 606 398 593 c 1
 407 584 418 580 431 580 c 0
EndSplineSet
MinimumDistance: x42,-1 
EndChar
StartChar: uni0E56
Encoding: 246 3670
OldEncoding: 3670
Width: 678
Flags: HW
VStem: 75 112<185 201>
Fore
381 122 m 1
 386 122 400 128 423 140 c 0
 442 151 463 170 484 196 c 0
 485 197 486 198 487 200 c 0
 507 225 518 258 518 299 c 0
 515 361 498 406 467 436 c 0
 433 467 382 482 313 480 c 0
 276 480 243 471 214 453 c 0
 182 433 164 420 158 413 c 1
 107 413 l 1
 105 455 98 502 85 552 c 0
 68 616 51 669 34 711 c 0
 12 763 -8 805 -27 836 c 1
 89 892 l 1
 101 876 121 828 149 749 c 1
 179 661 197 602 205 572 c 1
 266 599 324 612 379 612 c 0
 439 612 488 598 527 570 c 0
 567 542 598 504 619 457 c 1
 640 407 651 355 651 301 c 0
 651 192 616 112 545 63 c 1
 475 11 396 -15 306 -15 c 0
 272 -15 237 -7 200 10 c 0
 165 26 135 50 110 80 c 1
 86 110 75 145 75 186 c 0
 75 230 89 269 117 303 c 0
 147 340 188 357 240 354 c 0
 268 354 295 347 320 332 c 1
 343 322 362 305 376 281 c 0
 388 261 394 238 397 212 c 1
 397 183 395 161 392 146 c 1
 381 122 l 1
235 146 m 0
 251 146 263 152 271 163 c 0
 280 173 284 184 284 195 c 0
 284 227 268 244 235 244 c 0
 203 244 187 227 187 195 c 0
 187 183 191 172 200 163 c 1
 206 152 218 146 235 146 c 0
EndSplineSet
MinimumDistance: x35,-1 
EndChar
StartChar: uni0E57
Encoding: 247 3671
OldEncoding: 3671
Width: 935
Flags: HW
HStem: -19 104<216 232> 177 106<216 232> 443 121<491 509> 443 116<216 237>
VStem: -4 132<275 311> 267 104<122 139> 575 128<292 322> 740 127<353 421>
Fore
652 140 m 1
 687 157 710 184 721 221 c 0
 733 265 740 314 740 369 c 2
 740 420 l 1
 734 515 l 1
 732 608 l 1
 732 729 755 815 802 867 c 1
 857 836 l 1
 913 804 l 1
 877 762 860 693 860 595 c 1
 862 538 l 1
 864 480 l 1
 867 434 l 1
 867 381 l 2
 867 322 860 267 848 215 c 0
 837 168 814 126 781 89 c 0
 757 63 720 38 670 15 c 0
 616 -9 579 -24 557 -30 c 1
 480 54 l 1
 500 70 517 93 531 124 c 1
 546 152 557 182 564 215 c 0
 571 247 575 278 575 308 c 0
 575 347 569 379 557 406 c 0
 546 430 526 443 497 443 c 0
 444 443 418 399 418 312 c 1
 312 312 l 1
 309 341 301 371 286 401 c 1
 274 429 255 443 228 443 c 0
 199 443 174 426 156 392 c 0
 138 357 128 324 128 293 c 0
 128 276 131 264 135 255 c 1
 138 262 145 268 156 274 c 0
 167 280 190 283 226 283 c 0
 274 283 310 269 334 239 c 0
 359 210 371 174 371 131 c 0
 371 88 358 53 332 25 c 0
 306 -5 268 -19 219 -19 c 0
 174 -19 133 -4 98 27 c 0
 63 58 37 96 22 142 c 0
 5 190 -4 239 -4 290 c 0
 -4 335 7 380 29 425 c 0
 49 464 79 497 117 524 c 0
 152 548 190 559 232 559 c 0
 276 559 308 551 327 533 c 0
 345 517 357 503 362 489 c 1
 371 504 385 520 404 535 c 1
 424 554 456 564 501 564 c 0
 549 564 587 551 617 526 c 0
 649 499 671 468 681 436 c 1
 695 402 703 364 703 321 c 0
 703 289 699 258 691 228 c 1
 665 160 l 1
 658 147 654 140 652 140 c 1
 652 140 l 1
221 85 m 0
 235 85 246 89 256 98 c 1
 264 108 267 119 267 131 c 0
 267 139 264 150 256 163 c 1
 246 172 235 177 221 177 c 0
 206 177 195 172 188 163 c 0
 181 153 177 142 177 131 c 0
 177 119 181 108 188 98 c 0
 195 89 206 85 221 85 c 0
EndSplineSet
MinimumDistance: x12,-1 
EndChar
StartChar: uni0E58
Encoding: 248 3672
OldEncoding: 3672
Width: 888
Flags: HW
HStem: -3 301<262.794 283.657> 101 104<612 623> 297 106<612 634> 423 120<615 634>
VStem: 20 133<267.84 294.96> 473 106<250 261>
Fore
436 202 m 1
 494 128 546 92 593 92 c 1
 614 94 l 1
 623 101 l 1
 580 101 544 116 517 147 c 1
 485 179 471 216 473 260 c 0
 473 296 489 330 522 363 c 1
 552 390 586 403 625 403 c 0
 661 403 693 393 720 372 c 0
 747 352 768 324 785 286 c 0
 799 252 806 217 806 180 c 0
 806 120 787 72 749 36 c 1
 710 -2 661 -21 601 -21 c 0
 555 -21 514 -13 477 3 c 1
 441 24 397 63 348 120 c 0
 328 144 313 156 303 156 c 0
 293 156 288 146 288 127 c 0
 288 109 292 87 301 61 c 0
 311 38 322 16 334 -3 c 1
 172 -3 l 1
 71 87 20 186 20 295 c 1
 31 383 67 451 128 498 c 0
 189 545 265 568 358 568 c 1
 427 564 l 1
 510 553 l 1
 570 545 l 1
 616 543 l 1
 684 543 720 567 727 615 c 1
 729 663 l 1
 729 687 727 712 723 737 c 1
 711 809 l 1
 702 855 l 1
 829 855 l 1
 834 847 841 815 848 758 c 0
 856 697 859 651 857 619 c 0
 855 550 835 499 797 467 c 0
 763 437 708 423 632 423 c 0
 589 423 529 428 455 438 c 0
 424 443 396 445 371 445 c 0
 313 445 267 436 232 418 c 0
 198 399 175 370 163 330 c 0
 157 307 153 287 153 268 c 0
 153 232 163 205 184 186 c 1
 184 203 189 223 199 246 c 0
 209 271 230 289 263 298 c 1
 300 298 334 288 364 270 c 1
 397 246 421 223 436 202 c 1
623 205 m 0
 640 205 651 209 658 219 c 0
 666 229 670 240 670 251 c 0
 670 264 666 276 658 286 c 0
 651 293 639 298 623 298 c 0
 610 298 600 293 590 286 c 1
 583 276 579 264 579 251 c 0
 579 240 583 229 590 219 c 0
 598 209 609 205 623 205 c 0
EndSplineSet
MinimumDistance: x52,-1 
EndChar
StartChar: uni0E59
Encoding: 249 3673
OldEncoding: 3673
Width: 805
Flags: HW
HStem: -17 118<294.606 322.856> 195 111<317 335> 440 130<274 303>
VStem: 14 128<267 286> 369 111<141 152>
DStem: 431.337 356.72 570.327 373.67 627.957 -12.79 751.127 47.0996
Fore
179 387 m 1
 154 358 142 322 142 281 c 0
 142 261 146 239 153 217 c 0
 160 195 166 184 170 184 c 1
 177 215 193 244 219 270 c 0
 243 294 278 306 323 306 c 0
 359 306 388 298 411 283 c 0
 434 266 451 247 462 226 c 0
 472 204 478 179 480 151 c 1
 480 99 462 58 427 29 c 0
 391 -2 347 -17 295 -17 c 0
 243 -17 188 2 131 40 c 0
 76 77 40 127 25 188 c 0
 18 211 14 241 14 279 c 0
 14 340 30 396 61 447 c 0
 91 495 136 530 195 552 c 0
 228 564 260 570 292 570 c 0
 338 570 373 562 396 547 c 1
 426 529 443 516 449 508 c 1
 457 556 481 579 522 579 c 0
 555 579 584 570 610 552 c 1
 631 535 645 526 652 526 c 0
 665 526 672 554 672 610 c 0
 670 668 661 724 646 778 c 0
 630 831 621 857 619 857 c 2
 747 857 l 1
 755 838 763 812 771 780 c 0
 784 732 790 690 790 654 c 0
 793 582 787 521 771 469 c 0
 760 426 730 403 681 401 c 0
 664 401 642 409 614 427 c 1
 587 442 569 449 559 449 c 1
 552 447 549 441 549 431 c 1
 556 405 564 386 570 374 c 2
 751 47 l 1
 628 -13 l 1
 431 357 l 1
 419 384 399 405 374 420 c 0
 347 434 321 440 295 440 c 0
 245 440 206 423 179 387 c 1
323 101 m 0
 339 101 350 105 357 114 c 0
 365 124 369 136 369 149 c 0
 369 162 365 174 357 184 c 0
 349 191 338 195 323 195 c 0
 306 195 295 191 288 182 c 0
 280 172 277 161 277 149 c 0
 277 139 280 127 288 114 c 0
 295 105 306 101 323 101 c 0
EndSplineSet
MinimumDistance: x34,-1 
EndChar
StartChar: uni0E5A
Encoding: 250 3674
OldEncoding: 3674
Width: 836
Flags: HW
HStem: 374 110<274 282> 546 98<198 204>
VStem: 450 130<188 430> 655 132<172 544 545 668 669 682>
Fore
197 741 m 0
 173 741 160 730 150 690 c 1
 152 662 162 651 198 644 c 1
 213 644 225 649 233 656 c 1
 238 665 243 678 245 693 c 1
 242 728 234 738 197 741 c 0
559 797 m 1
 589 816 l 0
 603 824 619 829 638 832 c 0
 641 832 l 0
 693 832 735 815 762 778 c 0
 771 765 777 748 783 725 c 0
 783 724 783 724 783 723 c 0
 787 684 l 0
 787 683 787 683 787 682 c 0
 787 190 l 0
 788 95 740 25 651 -8 c 0
 650 -8 650 -8 649 -8 c 0
 622 -18 l 0
 613 -19 604 -18 598 -10 c 0
 566 56 l 0
 562 72 551 78 566 86 c 0
 582 91 l 0
 592 93 599 96 605 101 c 0
 640 130 l 0
 648 137 654 149 655 156 c 1
 655 676 l 0
 655 691 652 697 651 698 c 0
 645 706 638 710 618 710 c 0
 599 711 585 699 580 691 c 1
 580 201 l 0
 580 143 564 92 530 50 c 0
 494 5 445 -19 387 -19 c 0
 380 -19 376 -16 372 -10 c 0
 331 62 l 0
 328 82 327 79 346 87 c 0
 372 87 398 99 426 127 c 0
 441 142 450 165 450 203 c 0
 450 446 l 1
 450 446 450 431 404 407 c 0
 371 384 329 374 279 374 c 0
 197 374 130 404 85 463 c 0
 44 516 24 585 24 668 c 0
 24 669 24 669 24 670 c 0
 28 715 47 754 80 787 c 0
 113 819 154 836 199 836 c 0
 222 836 242 832 254 827 c 1
 306 811 342 781 343 696 c 0
 343 655 330 619 304 590 c 0
 277 561 242 546 201 546 c 0
 164 546 l 1
 161 558 l 1
 173 527 l 1
 180 514 189 506 194 502 c 1
 237 488 l 1
 275 484 l 1
 301 485 319 492 340 508 c 1
 371 542 l 1
 405 600 l 0
 416 620 424 645 429 672 c 1
 438 781 l 0
 438 782 438 782 438 783 c 0
 442 814 469 836 500 834 c 0
 515 834 529 831 541 822 c 0
 544 819 l 0
 557 801 l 0
 558 800 558 799 559 798 c 0
 559 797 l 1
EndSplineSet
MinimumDistance: x12,-1 
EndChar
